<?xml version="1.0" encoding="UTF-8" standalone="no"?>
<svg
   width="24"
   height="24"
   viewBox="0 0 24 24"
   version="1.1"
   id="svg1"
   sodipodi:docname="input-num-on.svg"
   inkscape:version="1.3.2 (091e20ef0f, 2023-11-25)"
   xmlns:inkscape="http://www.inkscape.org/namespaces/inkscape"
   xmlns:sodipodi="http://sodipodi.sourceforge.net/DTD/sodipodi-0.dtd"
   xmlns:xlink="http://www.w3.org/1999/xlink"
   xmlns="http://www.w3.org/2000/svg"
   xmlns:svg="http://www.w3.org/2000/svg">
  <defs
     id="defs1">
    <linearGradient
       inkscape:collect="always"
       xlink:href="#linearGradient1"
       id="linearGradient67"
       x1="4"
       y1="11"
       x2="18"
       y2="11"
       gradientUnits="userSpaceOnUse" />
    <linearGradient
       id="linearGradient1"
       inkscape:collect="always">
      <stop
         style="stop-color:#00ccff;stop-opacity:1"
         offset="0"
         id="stop1" />
      <stop
         style="stop-color:#00d4aa;stop-opacity:1"
         offset="1"
         id="stop3" />
    </linearGradient>
  </defs>
  <sodipodi:namedview
     id="namedview1"
     pagecolor="#ffffff"
     bordercolor="#999999"
     borderopacity="1"
     inkscape:showpageshadow="2"
     inkscape:pageopacity="0"
     inkscape:pagecheckerboard="0"
     inkscape:deskcolor="#d1d1d1"
     inkscape:zoom="31.75"
     inkscape:cx="12"
     inkscape:cy="12"
     inkscape:window-width="1920"
     inkscape:window-height="994"
     inkscape:window-x="0"
     inkscape:window-y="0"
     inkscape:window-maximized="1"
     inkscape:current-layer="svg1" />
  <style
     type="text/css"
     id="current-color-scheme">.ColorScheme-Text{color:#31363b;}.ColorScheme-Background{color:#eff0f1;}.ColorScheme-Highlight{color:#3daee9;}.ColorScheme-ViewText{color:#31363b;}.ColorScheme-ViewBackground{color:#fcfcfc;}.ColorScheme-ViewHover{color:#93cee9;}.ColorScheme-ViewFocus{color:#3daee9;}.ColorScheme-ButtonText{color:#31363b;}.ColorScheme-ButtonBackground{color:#eff0f1;}.ColorScheme-ButtonHover{color:#93cee9;}.ColorScheme-ButtonFocus { color: #3daee9; } </style>
  <g
     id="22-22-input-num-on"
     transform="translate(1,1)">
    <rect
       style="opacity:0.00100002;fill-opacity:1;stroke:none;stroke-width:0.49066;stroke-linecap:round;stroke-linejoin:round;stroke-miterlimit:4;stroke-dasharray:none;stroke-opacity:1"
       id="rect972"
       width="22"
       height="22"
       x="0"
       y="0" />
    <path
       inkscape:connector-curvature="0"
       id="path896-7-7-5-1"
       d="m 4,4.33332 v 9.94864 c 0,1.38463 0.7000002,2.0513 1.4000004,2.36116 L 11,19 16.6,16.7036 C 17.3,16.33326 18,15.66659 18,14.28878 v -9.95546 0 C 18,3.66666 17.3,3 16.6,3 l -11.2051596,9e-5 C 4.7000002,3 4,3.66666 4,4.33332 Z M 5,5.002 C 5,4.000002 5.5397795,4.000002 6.073,4 h 9.873 c 0.58072,2e-6 1.054,2e-6 1.054,0.974 v 8.02594 C 17,14.000002 16.519258,14.000002 15.876867,14 H 6.0879936 C 5.5341922,14.000002 5,14.000002 5,12.99994 Z m 6,0.66474 V 7.00007 H 9.5999996 V 7.66673 H 11 v 3.99998 H 9.5999996 v 0.66666 H 13.1 V 11.66671 H 11.7 V 5.66674 Z M 5,15.00002 H 17 C 17,15.66659 16.6,16 15.899999,16 H 6.0999996 C 5.4000004,16 5,15.66659 5,15.00002 Z"
       style="color:#d1d5e9;fill:url(#linearGradient67);fill-opacity:1;stroke:none;stroke-width:0.683128"
       sodipodi:nodetypes="cccccccccccccccccccccccccccccccccccccc"
       class="ColorScheme-Text" />
  </g>
</svg>
