<?xml version="1.0" encoding="UTF-8" standalone="no"?>
<svg
   width="24"
   height="24"
   viewBox="0 0 24 24"
   version="1.1"
   id="svg1"
   sodipodi:docname="keyboard-layout.svg"
   inkscape:version="1.3.2 (091e20ef0f, 2023-11-25)"
   xmlns:inkscape="http://www.inkscape.org/namespaces/inkscape"
   xmlns:sodipodi="http://sodipodi.sourceforge.net/DTD/sodipodi-0.dtd"
   xmlns:xlink="http://www.w3.org/1999/xlink"
   xmlns="http://www.w3.org/2000/svg"
   xmlns:svg="http://www.w3.org/2000/svg">
  <defs
     id="defs1">
    <linearGradient
       inkscape:collect="always"
       xlink:href="#linearGradient1"
       id="linearGradient20"
       x1="-17"
       y1="22.999956"
       x2="-5"
       y2="22.999956"
       gradientUnits="userSpaceOnUse" />
    <linearGradient
       id="linearGradient1"
       inkscape:collect="always">
      <stop
         style="stop-color:#00ccff;stop-opacity:1"
         offset="0"
         id="stop1" />
      <stop
         style="stop-color:#00d4aa;stop-opacity:1"
         offset="1"
         id="stop3" />
    </linearGradient>
    <linearGradient
       inkscape:collect="always"
       xlink:href="#linearGradient1"
       id="linearGradient14"
       x1="-20"
       y1="23.00001"
       x2="-2"
       y2="23.00001"
       gradientUnits="userSpaceOnUse" />
    <linearGradient
       inkscape:collect="always"
       xlink:href="#linearGradient1"
       id="linearGradient17"
       x1="-11"
       y1="14.999957"
       x2="-6"
       y2="14.999957"
       gradientUnits="userSpaceOnUse" />
  </defs>
  <sodipodi:namedview
     id="namedview1"
     pagecolor="#ffffff"
     bordercolor="#999999"
     borderopacity="1"
     inkscape:showpageshadow="2"
     inkscape:pageopacity="0"
     inkscape:pagecheckerboard="0"
     inkscape:deskcolor="#d1d1d1"
     inkscape:zoom="31.75"
     inkscape:cx="12"
     inkscape:cy="12"
     inkscape:window-width="1920"
     inkscape:window-height="994"
     inkscape:window-x="0"
     inkscape:window-y="0"
     inkscape:window-maximized="1"
     inkscape:current-layer="svg1" />
  <style
     type="text/css"
     id="current-color-scheme">.ColorScheme-Text{color:#31363b;}.ColorScheme-Background{color:#eff0f1;}.ColorScheme-Highlight{color:#3daee9;}.ColorScheme-ViewText{color:#31363b;}.ColorScheme-ViewBackground{color:#fcfcfc;}.ColorScheme-ViewHover{color:#93cee9;}.ColorScheme-ViewFocus{color:#3daee9;}.ColorScheme-ButtonText{color:#31363b;}.ColorScheme-ButtonBackground{color:#eff0f1;}.ColorScheme-ButtonHover{color:#93cee9;}.ColorScheme-ButtonFocus { color: #3daee9; } </style>
  <g
     id="22-22-input-keyboard"
     transform="translate(23,-9.00001)">
    <path
       style="color:#d1d5e9;fill:url(#linearGradient20);fill-opacity:1;stroke-width:1.26448"
       fill-rule="evenodd"
       d="m -17,20.00001 v 1.999947 h 2 V 20.00001 Z m 3,0 v 1.999947 h 2 V 20.00001 Z m 3,0 v 1.999947 h 2 V 20.00001 Z m 6,0 v 1.999947 h -2 v -2 z m -12,4.999947 v 0 h 2 v 0 z m 3,0 v 0 0 h 6 z m 7,0 v 0 h 2 v 0 z m -10,-1 v 2 h 2 v -2 z m 3,0 v 2 h 6 v -2 z m 7,0 v 2 h 2 v -2 z"
       font-family="sans-serif"
       font-weight="400"
       overflow="visible"
       id="path60-5-7"
       sodipodi:nodetypes="cccccccccccccccccccccccccccccccccccccccccccccccccc"
       class="ColorScheme-Text" />
    <path
       d="m -2,27.60001 v -9.3 c 0,-0.673471 -0.675,-1.3 -1.499993,-1.3 H -18.6 c -0.825001,0 -1.400001,0.626529 -1.4,1.3 v 9.3 c 0,0.673467 0.574999,1.4 1.4,1.4 h 15.2 c 0.824993,0 1.4,-0.726533 1.4,-1.4 z m -16.4,0.4 c -0.599626,0 -0.6,-0.463278 -0.6,-0.8 v -8.4 c 0,-0.33675 -0.11213,-0.800484 0.6,-0.8 l 14.7,0.01 c 0.71212,4.84e-4 0.7,0.45325 0.7,0.79 v 8.4 c 0,0.336722 -3.8e-4,0.8 -0.6,0.8 z"
       id="path2"
       style="color:#d1d5e9;fill:url(#linearGradient14);fill-opacity:1;stroke-width:0.338818"
       sodipodi:nodetypes="ssssssssssssssssss"
       class="ColorScheme-Text" />
    <rect
       y="10.00001"
       x="-22"
       height="22"
       width="22"
       id="rect4147"
       style="fill:none;fill-rule:evenodd;stroke:none;stroke-width:1px;stroke-linecap:butt;stroke-linejoin:miter;stroke-opacity:1" />
    <path
       id="Keyboard-s-3"
       class="st1  ColorScheme-Text"
       d="m -7.25,13.999957 v -1 H -6 v 1 c 0,0.99 -0.84375,1.8 -1.875,1.8 h -1.25 c -0.34375,0 -0.625,0.27 -0.625,0.6 v 0.6 H -11 v -0.6 c 0,-0.99 0.84375,-1.8 1.875,-1.8 h 1.25 c 0.34375,0 0.625,-0.27 0.625,-0.6 z"
       style="color:#d1d5e9;clip-rule:evenodd;fill:url(#linearGradient17);fill-opacity:1;fill-rule:evenodd;stroke-width:0.306186"
       sodipodi:nodetypes="sccccccccsccs" />
  </g>
</svg>
