<?xml version="1.0" encoding="UTF-8" standalone="no"?>
<svg
   viewBox="0 0 24 24"
   width="24"
   height="24"
   version="1.1"
   id="svg4"
   sodipodi:docname="microphone-sensitivity-medium.svg"
   inkscape:version="1.3.2 (091e20ef0f, 2023-11-25)"
   xmlns:inkscape="http://www.inkscape.org/namespaces/inkscape"
   xmlns:sodipodi="http://sodipodi.sourceforge.net/DTD/sodipodi-0.dtd"
   xmlns="http://www.w3.org/2000/svg"
   xmlns:svg="http://www.w3.org/2000/svg">
  <defs
     id="defs4" />
  <sodipodi:namedview
     id="namedview4"
     pagecolor="#ffffff"
     bordercolor="#999999"
     borderopacity="1"
     inkscape:showpageshadow="2"
     inkscape:pageopacity="0"
     inkscape:pagecheckerboard="0"
     inkscape:deskcolor="#d1d1d1"
     inkscape:zoom="31.75"
     inkscape:cx="12"
     inkscape:cy="12"
     inkscape:window-width="1920"
     inkscape:window-height="994"
     inkscape:window-x="0"
     inkscape:window-y="0"
     inkscape:window-maximized="1"
     inkscape:current-layer="svg4" />
  <style
     id="current-color-scheme"
     type="text/css">.ColorScheme-Text { color: #fcfcfc; } </style>
  <g
     id="microphone-sensitivity-medium"
     transform="translate(-289.53571,-335.50504)">
    <rect
       ry="4.9089599e-06"
       y="336.50504"
       x="290.53571"
       height="22"
       width="22"
       id="rect846-1-9-6"
       style="opacity:0.003;fill:#00ccff;fill-opacity:1;stroke-width:2" />
    <path
       id="rect1209-3-7-7-3"
       d="m 298.03572,339.50505 c -1.939,0 -3.46473,1.56131 -3.5,3.5 v 0.5 4.49999 c 0,1.93901 1.561,3.5 3.5,3.5 1.939,0 3.5,-1.56099 3.5,-3.5 v -4.99999 c 0,-1.93901 -1.561,-3.5 -3.5,-3.5 z m 0,1 c 1.385,0 2.5,1.11499 2.5,2.5 v 4.99999 c 0,1.38501 -1.115,2.5 -2.5,2.5 -1.385,0 -2.5,-1.11499 -2.5,-2.5 v -4.99999 c 0,-1.38501 1.115,-2.5 2.5,-2.5 z m -5,6.99999 c -0.277,0 -0.5,0.22297 -0.5,0.5 0,2.87831 2.18919,5.22539 5,5.47657 v 2.02343 0.5 c 0,0.27701 0.223,0.5 0.5,0.5 0.277,0 0.5,-0.22296 0.5,-0.5 v -2.52343 c 2.81081,-0.25118 5,-2.59826 5,-5.47657 0,-0.277 -0.223,-0.5 -0.5,-0.5 -0.277,0 -0.5,0.22297 -0.5,0.5 0,2.49298 -2.007,4.5 -4.5,4.5 -2.493,0 -4.5,-2.00702 -4.5,-4.5 0,-0.277 -0.223,-0.5 -0.5,-0.5 z"
       style="fill:#00ccff;fill-opacity:1" />
    <path
       d="m 307.73884,341.8019 a 0.49999948,0.49999948 0 0 0 -0.38085,0.16601 0.49999948,0.49999948 0 0 0 0.0352,0.70508 c 1.31707,1.18797 2.14258,2.90598 2.14258,4.83203 0,1.92657 -0.82491,3.64402 -2.14258,4.83203 a 0.49999948,0.49999948 0 0 0 -0.0371,0.70703 0.49999948,0.49999948 0 0 0 0.70508,0.0352 c 1.52027,-1.37068 2.47461,-3.3612 2.47461,-5.57422 0,-2.21243 -0.95308,-4.20358 -2.47266,-5.57422 a 0.49999948,0.49999948 0 0 0 -0.32422,-0.1289 z"
       id="path2370-5"
       style="fill:#00ccff;fill-opacity:0.501706" />
    <path
       d="m 305.95174,344.0558 a 0.49999948,0.49999948 0 0 0 -0.3379,0.12305 0.49999948,0.49999948 0 0 0 -0.0508,0.70508 c 0.60717,0.70105 0.97266,1.61272 0.97266,2.62109 0,1.01377 -0.36939,1.93031 -0.98242,2.63281 a 0.49999948,0.49999948 0 0 0 0.0469,0.70508 0.49999948,0.49999948 0 0 0 0.70508,-0.0469 c 0.76623,-0.87806 1.23047,-2.03268 1.23047,-3.29102 0,-1.25164 -0.45789,-2.39913 -1.2168,-3.27539 a 0.49999948,0.49999948 0 0 0 -0.36718,-0.17383 z"
       id="path2366-4"
       style="fill:#00ccff;fill-opacity:1" />
    <path
       d="m 298.73572,356.50504 h 2.90127 c 0.33138,-0.002 0.59944,-0.37769 0.59873,-0.70907 -0.002,-0.33137 -0.26991,-0.69165 -0.60129,-0.69092 h -2.89871 v 0 h -0.7 -0.69999 v 0 h -2.90128 c -0.33138,0.002 -0.59944,0.37769 -0.59871,0.70906 0.002,0.33138 0.26994,0.69165 0.6013,0.69093 h 2.89869 v 0 h 0.69999 z"
       style="fill:#00ccff;fill-opacity:1;fill-rule:evenodd;stroke:none;stroke-width:0.400003"
       id="path2830-6-6"
       sodipodi:nodetypes="ccccccccccccccccc" />
  </g>
</svg>
