<?xml version="1.0" encoding="UTF-8" standalone="no"?>
<svg
   width="24"
   height="24"
   viewBox="0 0 24 24"
   version="1.1"
   id="svg1"
   sodipodi:docname="plasmavault_error.svg"
   inkscape:version="1.3.2 (091e20ef0f, 2023-11-25)"
   xmlns:inkscape="http://www.inkscape.org/namespaces/inkscape"
   xmlns:sodipodi="http://sodipodi.sourceforge.net/DTD/sodipodi-0.dtd"
   xmlns="http://www.w3.org/2000/svg"
   xmlns:svg="http://www.w3.org/2000/svg">
  <defs
     id="defs1" />
  <sodipodi:namedview
     id="namedview1"
     pagecolor="#ffffff"
     bordercolor="#999999"
     borderopacity="1"
     inkscape:showpageshadow="2"
     inkscape:pageopacity="0"
     inkscape:pagecheckerboard="0"
     inkscape:deskcolor="#d1d1d1"
     inkscape:zoom="31.75"
     inkscape:cx="12"
     inkscape:cy="12"
     inkscape:window-width="1920"
     inkscape:window-height="994"
     inkscape:window-x="0"
     inkscape:window-y="0"
     inkscape:window-maximized="1"
     inkscape:current-layer="svg1" />
  <style
     type="text/css"
     id="current-color-scheme">.ColorScheme-NegativeText { color: #da4453; } </style>
  <g
     id="22-22-plasmavault_error"
     transform="translate(1,1)"
     style="fill:#ff557f;fill-opacity:1">
    <g
       id="g1271"
       style="fill:#ff557f;fill-opacity:1">
      <rect
         style="opacity:0.00100002;fill:#ff557f;fill-opacity:1"
         width="22"
         height="22"
         x="0"
         y="0"
         id="rect2" />
      <path
         d="M 12.821385,11.441333 H 12.65672 l -9.35e-4,-0.820664 C 12.654996,9.72667 11.927844,8.999335 11.033844,9 10.139843,9.000822 9.41251,9.728003 9.413177,10.622003 l 0.0014,0.820668 h -0.05858 c -0.30733,6.21e-4 -0.556663,0.249995 -0.555996,0.55733 v 2.443334 C 8.800001,14.750671 9.05,15 9.357334,15 l 3.465337,-0.002 c 0.307327,0 0.556662,-0.249335 0.555997,-0.556669 v -2.443972 c 0,-0.307332 -0.249997,-0.555997 -0.557333,-0.555997 z m -2.809333,0.0015 -0.0014,-0.820665 c 0,-0.564666 0.458667,-1.023999 1.023331,-1.024668 0.564672,0 1.023999,0.459335 1.023999,1.023334 l 0.0015,0.820648 z"
         id="path2-7"
         style="fill:#ff557f;fill-opacity:1;stroke-width:0.0666646" />
      <path
         style="color:#000000;font-style:normal;font-variant:normal;font-weight:normal;font-stretch:normal;font-size:medium;line-height:normal;font-family:Sans;-inkscape-font-specification:Sans;text-indent:0;text-align:start;text-decoration:none;text-decoration-line:none;letter-spacing:normal;word-spacing:normal;text-transform:none;writing-mode:lr-tb;direction:ltr;baseline-shift:baseline;text-anchor:start;display:inline;overflow:visible;visibility:visible;fill:#ff557f;fill-opacity:1;fill-rule:nonzero;stroke:none;stroke-width:0.808683;marker:none;enable-background:accumulate"
         d="M 3.54552,4.000056 C 2.712107,4.000056 2,4.671741 2,5.431 V 15.000001 16.8 c 0,0.604929 0.834101,1.200003 1.545751,1.2 l 14.394752,-4.9e-5 c 0.342976,0.0065 0.333213,-0.995169 8.4e-5,-0.999951 H 4.250002 C 3.849318,17 3,17 3,15.914895 V 14.921987 5.985816 C 3,5.602725 3,5 4.05,4.992908 H 8.536766 L 10.70975,6.66623 C 10.78217,6.72881 11.099874,6.998002 11.196499,7 h 6.972455 C 18.524468,6.998 18.513233,6.00546 18.157174,6 H 11.342877 L 8.801564,4.09375 C 8.728204,4.03344 8.635526,4.00025 8.539725,4 Z M 11.742082,4 c -0.319043,0 -0.352624,1 0,1 h 4.882932 1.86157 C 19.235973,5 19,6 19,6 v 11.599954 c 0.0015,0.371835 0.984074,0.384063 0.985456,0.01282 L 19.999996,5.4 C 20.000899,4.641695 19.484491,4 18.586997,4 h -0.849801 -4.737199 z"
         id="path2-3-3-5"
         sodipodi:nodetypes="ssccscccccccccccccccscccccccscccc" />
    </g>
  </g>
</svg>
