<?xml version="1.0" encoding="UTF-8" standalone="no"?>
<svg
   viewBox="0 0 24 24"
   width="24"
   height="24"
   version="1.1"
   id="svg2"
   sodipodi:docname="state-warning.svg"
   inkscape:version="1.3.2 (091e20ef0f, 2023-11-25)"
   xmlns:inkscape="http://www.inkscape.org/namespaces/inkscape"
   xmlns:sodipodi="http://sodipodi.sourceforge.net/DTD/sodipodi-0.dtd"
   xmlns="http://www.w3.org/2000/svg"
   xmlns:svg="http://www.w3.org/2000/svg">
  <sodipodi:namedview
     id="namedview2"
     pagecolor="#ffffff"
     bordercolor="#999999"
     borderopacity="1"
     inkscape:showpageshadow="2"
     inkscape:pageopacity="0"
     inkscape:pagecheckerboard="0"
     inkscape:deskcolor="#d1d1d1"
     inkscape:zoom="31.75"
     inkscape:cx="12"
     inkscape:cy="12"
     inkscape:window-width="1920"
     inkscape:window-height="994"
     inkscape:window-x="0"
     inkscape:window-y="0"
     inkscape:window-maximized="1"
     inkscape:current-layer="svg2" />
  <defs
     id="defs3051">
    <style
       type="text/css"
       id="current-color-scheme">.ColorScheme-Text{color:#232629;}.ColorScheme-NeutralText { color: #f67400; } </style>
  </defs>
  <g
     transform="translate(1,1)"
     id="g2">
    <g
       transform="translate(-421.71429,-525.79074)"
       id="g1">
      <path
         style="opacity:1;fill:#d35f8d;fill-opacity:1;stroke:none"
         d="M 11 4 A 6 6 0 0 0 5 10 A 6 6 0 0 0 5.0039062 10.128906 A 4 4 0 0 0 2 14 A 4 4 0 0 0 6 18 L 15 18 A 5 5 0 0 0 20 13 A 5 5 0 0 0 16.757812 8.3242188 A 6 6 0 0 0 11 4 z M 11 5 A 5 5 0 0 1 15.919922 9.1113281 A 4.0000019 4.0000019 0 0 1 19 13 A 4.0000019 4.0000019 0 0 1 15 17 L 6 17 A 2.9999979 2.9999979 0 0 1 3 14 A 2.9999979 2.9999979 0 0 1 6 11 A 2.9999979 2.9999979 0 0 1 6.1074219 11.005859 A 5 5 0 0 1 6 10 A 5 5 0 0 1 11 5 z "
         transform="translate(421.71429,525.79074)"
         class="ColorScheme-Text"
         id="path4196" />
      <path
         style="fill:#d35f8d;fill-opacity:1;stroke:none"
         class="ColorScheme-NeutralText"
         d="m 437.21429,536.78874 0.004,0 a 0.5,0.5 0 0 1 0.43945,0.2695 l 0.004,0 3.98633,6.9746 -0.002,0 a 0.5,0.5 0 0 1 0.0684,0.252 0.5,0.5 0 0 1 -0.5,0.5 l -8,0 a 0.5,0.5 0 0 1 -0.5,-0.5 0.5,0.5 0 0 1 0.0684,-0.252 l -0.002,0 3.98633,-6.9727 0.002,0 a 0.5,0.5 0 0 1 0.002,0 0.5,0.5 0 0 1 0.44336,-0.2715 l 0,0 z"
         id="path4250" />
      <path
         style="opacity:1;fill:#ffffff"
         d="M 15 13 L 15 16 L 16 16 L 16 13 L 15 13 z M 15 17 L 15 18 L 16 18 L 16 17 L 15 17 z "
         transform="translate(421.71429,525.79074)"
         id="rect4241" />
    </g>
  </g>
</svg>
