<?xml version="1.0" encoding="UTF-8" standalone="no"?>
<svg
   id="svg8"
   version="1.1"
   viewBox="0 0 24 24"
   width="24"
   height="24"
   sodipodi:docname="transmission-tray-icon.svg"
   inkscape:version="1.3.2 (091e20ef0f, 2023-11-25)"
   xmlns:inkscape="http://www.inkscape.org/namespaces/inkscape"
   xmlns:sodipodi="http://sodipodi.sourceforge.net/DTD/sodipodi-0.dtd"
   xmlns="http://www.w3.org/2000/svg"
   xmlns:svg="http://www.w3.org/2000/svg">
  <defs
     id="defs2" />
  <sodipodi:namedview
     id="namedview2"
     pagecolor="#ffffff"
     bordercolor="#999999"
     borderopacity="1"
     inkscape:showpageshadow="2"
     inkscape:pageopacity="0"
     inkscape:pagecheckerboard="0"
     inkscape:deskcolor="#d1d1d1"
     inkscape:zoom="31.75"
     inkscape:cx="12"
     inkscape:cy="12"
     inkscape:window-width="1920"
     inkscape:window-height="994"
     inkscape:window-x="0"
     inkscape:window-y="0"
     inkscape:window-maximized="1"
     inkscape:current-layer="svg8" />
  <style
     id="current-color-scheme"
     type="text/css">.ColorScheme-Text { color: #fcfcfc; } </style>
  <g
     transform="translate(1,1)"
     id="g2">
    <g
       class="ColorScheme-Text"
       fill="currentColor"
       id="g1">
      <path
         id="path881"
         d="m5.0982543 8.9973146-2.220432 10.002685h16.244111l-2.220432-10.002685h-2.900036v1.0037834h2.095446l1.556451 6.997193h-13.306969l1.5564508-6.997193h2.0973999v-1.0037834z"
         style="fill:#5599ff" />
      <path
         id="rect822"
         d="m10 3v0.9998777h-2.9996339c-0.5539322 0-0.9998778 0.4459457-0.9998778 0.9998778 0 0.5539326 0.4459456 0.9998783 0.9998778 0.9998783h2.9996339v6.0031732h-2.7067007l3.7046257 3.704626 3.706579-3.704626h-2.704748v-6.0031732h2.999634c0.553933 0 0.999878-0.4459457 0.999878-0.9998783 0-0.5539321-0.445945-0.9998778-0.999878-0.9998778h-2.999634v-0.9998777z"
         style="fill:#00ccff" />
    </g>
  </g>
</svg>
