<?xml version="1.0" encoding="UTF-8" standalone="no"?>
<svg
   width="24"
   height="24"
   viewBox="0 0 24 24"
   version="1.1"
   id="svg1"
   sodipodi:docname="wallet-closed.svg"
   inkscape:version="1.3.2 (091e20ef0f, 2023-11-25)"
   xmlns:inkscape="http://www.inkscape.org/namespaces/inkscape"
   xmlns:sodipodi="http://sodipodi.sourceforge.net/DTD/sodipodi-0.dtd"
   xmlns="http://www.w3.org/2000/svg"
   xmlns:svg="http://www.w3.org/2000/svg">
  <defs
     id="defs1" />
  <sodipodi:namedview
     id="namedview1"
     pagecolor="#ffffff"
     bordercolor="#999999"
     borderopacity="1"
     inkscape:showpageshadow="2"
     inkscape:pageopacity="0"
     inkscape:pagecheckerboard="0"
     inkscape:deskcolor="#d1d1d1"
     inkscape:zoom="31.75"
     inkscape:cx="12"
     inkscape:cy="12"
     inkscape:window-width="1920"
     inkscape:window-height="994"
     inkscape:window-x="0"
     inkscape:window-y="0"
     inkscape:window-maximized="1"
     inkscape:current-layer="svg1" />
  <style
     type="text/css"
     id="current-color-scheme">.ColorScheme-Text{color:#31363b;}.ColorScheme-Background{color:#eff0f1;}.ColorScheme-Highlight{color:#3daee9;}.ColorScheme-ViewText{color:#31363b;}.ColorScheme-ViewBackground{color:#fcfcfc;}.ColorScheme-ViewHover{color:#93cee9;}.ColorScheme-ViewFocus{color:#3daee9;}.ColorScheme-ButtonText{color:#31363b;}.ColorScheme-ButtonBackground{color:#eff0f1;}.ColorScheme-ButtonHover{color:#93cee9;}.ColorScheme-ButtonFocus { color: #3daee9; } </style>
  <g
     id="22-22-wallet-closed"
     transform="translate(-31,23)">
    <rect
       style="opacity:0.00100002;fill:#d3dae3;fill-opacity:1;stroke-width:0.6875"
       width="22"
       height="22"
       x="32"
       y="-22"
       id="rect12-7-6" />
    <path
       style="color:#000000;text-indent:0;text-transform:none;direction:ltr;baseline-shift:baseline;fill:#c83771;fill-opacity:1;stroke-width:0.202899;enable-background:accumulate"
       d="M 45.664323,-12 C 45.27756,-12 45,-11.639525 45,-11.261426 V -7.73855 C 45,-7.360469 45.27756,-7 45.664323,-7 h 5.677515 C 51.729803,-7 52,-7.360469 52,-7.73855 v -3.522876 C 52,-11.639525 51.729803,-12 51.341838,-12 Z m 1.722321,1.342 c 0.647258,0 1.174794,0.466981 1.174794,1.15473 0,0.687767 -0.527619,1.15527 -1.174877,1.15527 -0.647219,0 -1.187079,-0.466207 -1.187079,-1.15527 0,-0.689045 0.539922,-1.15473 1.187162,-1.15473 z"
       fill-opacity="1"
       fill-rule="evenodd"
       stroke="none"
       marker="none"
       visibility="visible"
       display="inline"
       overflow="visible"
       id="path2-62-5"
       sodipodi:nodetypes="ssssssssssssss" />
    <path
       style="color:#000000;text-indent:0;text-transform:none;direction:ltr;baseline-shift:baseline;fill:#c83771;fill-opacity:1;stroke-width:0.207677;enable-background:accumulate"
       d="m 46.932652,-15 h -8.705414 v 0 h -1.815506 c -0.548975,-0.0016 -0.548975,1.003531 0,1.001952 H 49.79 c 0.171413,0 0.21,0.129102 0.21,0.256051 V -12.8 c -0.0011,0.561402 1.001128,0.561402 0.999999,0 v -1.242 C 50.999999,-14.655531 50.863354,-15 50,-15.000001 V -15 -15.915143 c 6.7e-5,-0.0044 6.7e-5,-1.080517 0,-1.084857 0,-0.358244 -0.532078,-1 -1.010463,-1 H 48.286356 39 v 1 h 9.286356 v 0 C 49,-17 49,-16.725799 49,-16.309 l -10e-7,1.309 h -2.067347 v 0 h -8.705414 z"
       fill-opacity="1"
       fill-rule="evenodd"
       stroke="none"
       marker="none"
       visibility="visible"
       display="inline"
       overflow="visible"
       id="path4-91-3"
       sodipodi:nodetypes="cccccssccsccccsccccccccccc" />
    <path
       style="color:#000000;text-indent:0;text-transform:none;direction:ltr;baseline-shift:baseline;fill:#c83771;fill-opacity:1;stroke-width:0.203703;enable-background:accumulate"
       d="M 35.348,-18 C 34.616139,-18 34,-17.254988 34,-16.5 v 12.052303 c 0,0.754998 0.371102,1.447699 1.248446,1.447699 H 49.753 c 0.849817,0 1.246957,-0.693686 1.246957,-1.447699 v -1.10698 c 0.0069,-0.553788 -1.006723,-0.553788 -0.999957,0 v 1.10698 C 50,-4.062075 49.848089,-4 49.653,-4 H 35.348 C 35.152912,-4 35,-4.06306 35,-4.447697 V -16.352 C 35,-16.736634 35.252913,-17 35.448,-17 H 39 v -1 z"
       fill-opacity="1"
       fill-rule="evenodd"
       stroke="none"
       marker="none"
       visibility="visible"
       display="inline"
       overflow="visible"
       id="path6-2-5"
       sodipodi:nodetypes="ssssssccssssssccs" />
  </g>
</svg>
