<?xml version="1.0" encoding="UTF-8" standalone="no"?>
<svg
   viewBox="0 0 24 24"
   width="24"
   height="24"
   version="1.1"
   id="svg2"
   sodipodi:docname="input-touchpad-on.svg"
   inkscape:version="1.3.2 (091e20ef0f, 2023-11-25)"
   xmlns:inkscape="http://www.inkscape.org/namespaces/inkscape"
   xmlns:sodipodi="http://sodipodi.sourceforge.net/DTD/sodipodi-0.dtd"
   xmlns="http://www.w3.org/2000/svg"
   xmlns:svg="http://www.w3.org/2000/svg">
  <sodipodi:namedview
     id="namedview2"
     pagecolor="#ffffff"
     bordercolor="#999999"
     borderopacity="1"
     inkscape:showpageshadow="2"
     inkscape:pageopacity="0"
     inkscape:pagecheckerboard="0"
     inkscape:deskcolor="#d1d1d1"
     showgrid="true"
     inkscape:zoom="31.75"
     inkscape:cx="12"
     inkscape:cy="12"
     inkscape:window-width="1920"
     inkscape:window-height="994"
     inkscape:window-x="0"
     inkscape:window-y="0"
     inkscape:window-maximized="1"
     inkscape:current-layer="svg2">
    <inkscape:grid
       id="grid2"
       units="px"
       originx="0"
       originy="0"
       spacingx="1"
       spacingy="1"
       empcolor="#0099e5"
       empopacity="0.30196078"
       color="#0099e5"
       opacity="0.14901961"
       empspacing="5"
       dotted="false"
       gridanglex="30"
       gridanglez="30"
       visible="true" />
  </sodipodi:namedview>
  <defs
     id="defs3051">
    <style
       type="text/css"
       id="current-color-scheme">.ColorScheme-Text{color:#232629;}.ColorScheme-PositiveText { color: #27ae60; } </style>
  </defs>
  <g
     transform="translate(1,1)"
     id="g2">
    <path
       style="fill:#27ae60;fill-opacity:1;stroke:none"
       d="m 3,4 v 14 c 0,0.473937 0.456248,1 0.8818898,1 H 18.055118 C 18.543527,19 19,18.545639 19,18 V 4 C 19,3.5281714 18.460746,3 18.023622,3 H 3.9133858 C 3.4150611,3 3,3.4878145 3,4 Z M 4,4 H 18 V 18 H 4 Z m 1,11 v 2 h 5 v -2 z m 7,0 v 2 h 5 v -2 z"
       id="path1"
       sodipodi:nodetypes="cccccccccccccccccccccccc" />
    <path
       style="fill:currentColor;fill-opacity:1;stroke:none"
       d="M 11 6 A 4 4 0 0 0 7 10 A 4 4 0 0 0 11 14 A 4 4 0 0 0 15 10 A 4 4 0 0 0 11 6 z M 11 7 C 12.662 7 14 8.338 14 10 C 14 11.662 12.662 13 11 13 C 9.338 13 8 11.662 8 10 C 8 8.338 9.338 7 11 7 z M 11 9 A 1 1 0 0 0 10 10 A 1 1 0 0 0 11 11 A 1 1 0 0 0 12 10 A 1 1 0 0 0 11 9 z "
       id="path2"
       class="ColorScheme-PositiveText" />
  </g>
</svg>
