<?xml version="1.0" encoding="UTF-8" standalone="no"?>
<svg
   width="24"
   height="24"
   viewBox="0 0 24 24"
   version="1.1"
   id="svg1"
   sodipodi:docname="input-caps-on.svg"
   inkscape:version="1.3.2 (091e20ef0f, 2023-11-25)"
   xmlns:inkscape="http://www.inkscape.org/namespaces/inkscape"
   xmlns:sodipodi="http://sodipodi.sourceforge.net/DTD/sodipodi-0.dtd"
   xmlns:xlink="http://www.w3.org/1999/xlink"
   xmlns="http://www.w3.org/2000/svg"
   xmlns:svg="http://www.w3.org/2000/svg">
  <defs
     id="defs1">
    <linearGradient
       inkscape:collect="always"
       xlink:href="#linearGradient2"
       id="linearGradient63"
       x1="-18"
       y1="181"
       x2="-4"
       y2="181"
       gradientUnits="userSpaceOnUse" />
    <linearGradient
       id="linearGradient2"
       inkscape:collect="always">
      <stop
         style="stop-color:#00b7b7;stop-opacity:1;"
         offset="0"
         id="stop5" />
      <stop
         style="stop-color:#b380ff;stop-opacity:1"
         offset="1"
         id="stop7" />
    </linearGradient>
  </defs>
  <sodipodi:namedview
     id="namedview1"
     pagecolor="#ffffff"
     bordercolor="#999999"
     borderopacity="1"
     inkscape:showpageshadow="2"
     inkscape:pageopacity="0"
     inkscape:pagecheckerboard="0"
     inkscape:deskcolor="#d1d1d1"
     inkscape:zoom="31.75"
     inkscape:cx="12"
     inkscape:cy="12"
     inkscape:window-width="1920"
     inkscape:window-height="994"
     inkscape:window-x="0"
     inkscape:window-y="0"
     inkscape:window-maximized="1"
     inkscape:current-layer="svg1" />
  <style
     type="text/css"
     id="current-color-scheme">.ColorScheme-Text{color:#31363b;}.ColorScheme-Background{color:#eff0f1;}.ColorScheme-Highlight{color:#3daee9;}.ColorScheme-ViewText{color:#31363b;}.ColorScheme-ViewBackground{color:#fcfcfc;}.ColorScheme-ViewHover{color:#93cee9;}.ColorScheme-ViewFocus{color:#3daee9;}.ColorScheme-ButtonText{color:#31363b;}.ColorScheme-ButtonBackground{color:#eff0f1;}.ColorScheme-ButtonHover{color:#93cee9;}.ColorScheme-ButtonFocus { color: #3daee9; } </style>
  <g
     id="22-22-input-caps-on"
     transform="translate(23,-169)">
    <rect
       style="fill:none"
       width="22"
       height="22"
       x="-22"
       y="170"
       ry="0"
       id="rect15-6" />
    <path
       inkscape:connector-curvature="0"
       id="path880-8-6-5-7-7"
       d="m -18,174.33332 v 10.66661 c 0,0.66666 0.700001,1.33332 1.4,1.66675 L -11,189 l 5.6,-2.38275 c 0.7000005,-0.284 1.4,-0.95066 1.4,-1.69683 v -10.5871 0 C -4,173.66666 -4.6999995,173 -5.4,173 l -11.209507,1e-4 C -17.299999,173 -18,173.66666 -18,174.33332 Z m 1,0.69668 c 0,-1.02999 0.472354,-1.02999 1.089,-1.03 h 9.85 c 0.6013983,1e-5 1.061,1e-5 1.061,1.051 v 0 7.94894 c 0,1.00007 -0.5865547,1.00007 -1.1596742,1.00006 h -9.7403248 c -0.593996,1e-5 -1.100001,1e-5 -1.100001,-1.00006 z m 5.584374,0.63675 -3.084373,6.66662 h 0.910546 l 0.925587,-1.99998 h 3.3058558 l 0.9447279,1.99998 h 0.9132828 L -10.65,175.66675 Z m 0.386913,1.1302 1.3562492,2.86978 H -12.356253 Z M -17,185.00002 H -5 C -5,185.66659 -5.4,186 -6.0999995,186 H -15.899999 C -16.6,186 -17,185.66659 -17,185.00002 Z"
       style="color:#d1d5e9;fill:url(#linearGradient63);fill-opacity:1;stroke:none;stroke-width:0.683128"
       sodipodi:nodetypes="ccccccccccccccccccccccccccccccccccccccc"
       class="ColorScheme-Text" />
  </g>
</svg>
