<?xml version="1.0" encoding="UTF-8" standalone="no"?>
<svg
   width="24"
   height="24"
   viewBox="0 0 24 24"
   version="1.1"
   id="svg1"
   sodipodi:docname="klipper-symbolic.svg"
   inkscape:version="1.3.2 (091e20ef0f, 2023-11-25)"
   xmlns:inkscape="http://www.inkscape.org/namespaces/inkscape"
   xmlns:sodipodi="http://sodipodi.sourceforge.net/DTD/sodipodi-0.dtd"
   xmlns:xlink="http://www.w3.org/1999/xlink"
   xmlns="http://www.w3.org/2000/svg"
   xmlns:svg="http://www.w3.org/2000/svg">
  <defs
     id="defs1">
    <linearGradient
       inkscape:collect="always"
       xlink:href="#linearGradient1"
       id="linearGradient4"
       x1="5"
       y1="20"
       x2="16"
       y2="2"
       gradientUnits="userSpaceOnUse" />
    <linearGradient
       id="linearGradient1"
       inkscape:collect="always">
      <stop
         style="stop-color:#ffe680;stop-opacity:1"
         offset="0"
         id="stop1" />
      <stop
         style="stop-color:#ffcc00;stop-opacity:1"
         offset="1"
         id="stop2" />
    </linearGradient>
  </defs>
  <sodipodi:namedview
     id="namedview1"
     pagecolor="#ffffff"
     bordercolor="#999999"
     borderopacity="1"
     inkscape:showpageshadow="2"
     inkscape:pageopacity="0"
     inkscape:pagecheckerboard="0"
     inkscape:deskcolor="#d1d1d1"
     showguides="false"
     inkscape:zoom="31.75"
     inkscape:cx="12"
     inkscape:cy="12"
     inkscape:window-width="1920"
     inkscape:window-height="994"
     inkscape:window-x="0"
     inkscape:window-y="0"
     inkscape:window-maximized="1"
     inkscape:current-layer="svg1" />
  <style
     type="text/css"
     id="current-color-scheme">.ColorScheme-Text{color:#31363b;}.ColorScheme-Background{color:#eff0f1;}.ColorScheme-Highlight{color:#3daee9;}.ColorScheme-ViewText{color:#31363b;}.ColorScheme-ViewBackground{color:#fcfcfc;}.ColorScheme-ViewHover{color:#93cee9;}.ColorScheme-ViewFocus{color:#3daee9;}.ColorScheme-ButtonText{color:#31363b;}.ColorScheme-ButtonBackground{color:#eff0f1;}.ColorScheme-ButtonHover{color:#93cee9;}.ColorScheme-ButtonFocus { color: #3daee9; } </style>
  <g
     id="22-22-klipper"
     transform="translate(1,1)"
     style="fill:#d3dae3;fill-opacity:1">
    <rect
       style="opacity:0.00100002;fill:#d3dae3;fill-opacity:1"
       width="22"
       height="22"
       x="0"
       y="0"
       id="rect2" />
    <path
       d="m 6.9627076,5 h 1.321477 V 6 H 7 C 6,6 6,6 6,7 v 10 c 0,1 0,1 1,1 h 8 c 1,0 1,0 1,-1 V 7 C 16,6 16,6 15,6 H 12.201754 V 5 h 3.464913 C 16.333333,5 17,5.5167223 17,6.1587832 V 17.715878 C 17,18.357939 16.333333,19 15.666667,19 H 6.3333332 C 5.6666666,19 5,18.357939 5,17.715878 V 6.1587832 C 5,5.5167223 5.6666666,5 6.3333332,5 Z M 14,15 H 8 v 0 z m 0,0 H 8 v 1 h 6 z m 0,1 H 8 v 0 z m 0,-3 H 8 v -1 h 6 z M 10.212392,2.7133926 c 0.79339,0 1.655754,0.4729507 1.655754,1.2502664 v 4.6099323 c 0,1.9435277 -3.0653141,2.0070137 -3.0653141,-0.02787 v -5.597476 c 0,-2.6434482 4.4652571,-2.5514655 4.4652571,0 V 4.2784944 H 12.159124 V 2.9482447 c 0,-1.3134741 -2.2473332,-1.3091307 -2.2473332,0 v 5.5974751 c 0,0.7412093 0.8474442,0.6790771 0.8474442,0.02788 V 3.9636604 c 0,-0.1885301 -0.413107,-0.2662134 -0.546844,-0.2662134 z"
       fill-rule="evenodd"
       id="path2216-3"
       sodipodi:nodetypes="cccccccccccccsssssssccsccsscsccccccccccccsscccccccccssss"
       style="fill:url(#linearGradient4);fill-opacity:1;stroke-width:0.0423143" />
  </g>
</svg>
