<?xml version="1.0" encoding="UTF-8" standalone="no"?>
<svg
   width="24"
   height="24"
   viewBox="0 0 24 24"
   version="1.1"
   id="svg1"
   sodipodi:docname="kpackagekit-inactive.svg"
   inkscape:version="1.3.2 (091e20ef0f, 2023-11-25)"
   xmlns:inkscape="http://www.inkscape.org/namespaces/inkscape"
   xmlns:sodipodi="http://sodipodi.sourceforge.net/DTD/sodipodi-0.dtd"
   xmlns="http://www.w3.org/2000/svg"
   xmlns:svg="http://www.w3.org/2000/svg">
  <defs
     id="defs1" />
  <sodipodi:namedview
     id="namedview1"
     pagecolor="#ffffff"
     bordercolor="#999999"
     borderopacity="1"
     inkscape:showpageshadow="2"
     inkscape:pageopacity="0"
     inkscape:pagecheckerboard="0"
     inkscape:deskcolor="#d1d1d1"
     inkscape:zoom="31.75"
     inkscape:cx="12"
     inkscape:cy="12"
     inkscape:window-width="1920"
     inkscape:window-height="994"
     inkscape:window-x="0"
     inkscape:window-y="0"
     inkscape:window-maximized="1"
     inkscape:current-layer="svg1" />
  <style
     type="text/css"
     id="current-color-scheme">.ColorScheme-Text{color:#31363b;}.ColorScheme-Background{color:#eff0f1;}.ColorScheme-Highlight{color:#3daee9;}.ColorScheme-ViewText{color:#31363b;}.ColorScheme-ViewBackground{color:#fcfcfc;}.ColorScheme-ViewHover{color:#93cee9;}.ColorScheme-ViewFocus{color:#3daee9;}.ColorScheme-ButtonText{color:#31363b;}.ColorScheme-ButtonBackground{color:#eff0f1;}.ColorScheme-ButtonHover{color:#93cee9;}.ColorScheme-ButtonFocus { color: #3daee9; } </style>
  <g
     id="kpackagekit-inactive">
    <rect
       y="1"
       x="1"
       height="22"
       width="22"
       id="rect3887"
       style="fill:#ffffff;fill-opacity:0;stroke:none" />
    <path
       style="opacity:0.4;fill:#d3dae3;fill-opacity:1;stroke:none"
       d="m 12,20 c 4.431966,0 8,-3.568 8,-8 0,-1.4417 -0.382871,-2.7893 -1.044922,-3.9551 L 18.216797,8.7832 C 18.714171,9.7461 19,10.8375 19,12 c 0,3.878 -3.12203,7 -7,7 -1.162509,0 -2.25389,-0.2858 -3.216797,-0.7832 L 8.044922,18.9551 C 9.210711,19.6171 10.558286,20 12,20 Z M 5.044922,15.9551 5.783203,15.2168 C 5.285828,14.2539 5,13.1625 5,12 5,8.122 8.12203,5 12,5 c 1.16251,0 2.25389,0.2858 3.216797,0.7832 L 15.955078,5.0449 C 14.789289,4.3829 13.441714,4 12,4 7.568034,4 4,7.568 4,12 c 0,1.4417 0.382871,2.7893 1.044922,3.9551 z"
       id="path8157-9"
       class="ColorScheme-Text" />
  </g>
</svg>
