<?xml version="1.0" encoding="UTF-8" standalone="no"?>
<svg
   width="24"
   height="24"
   viewBox="0 0 24 24"
   version="1.1"
   id="svg1"
   sodipodi:docname="mail-unread.svg"
   inkscape:version="1.3.2 (091e20ef0f, 2023-11-25)"
   xmlns:inkscape="http://www.inkscape.org/namespaces/inkscape"
   xmlns:sodipodi="http://sodipodi.sourceforge.net/DTD/sodipodi-0.dtd"
   xmlns="http://www.w3.org/2000/svg"
   xmlns:svg="http://www.w3.org/2000/svg">
  <defs
     id="defs1" />
  <sodipodi:namedview
     id="namedview1"
     pagecolor="#ffffff"
     bordercolor="#999999"
     borderopacity="1"
     inkscape:showpageshadow="2"
     inkscape:pageopacity="0"
     inkscape:pagecheckerboard="0"
     inkscape:deskcolor="#d1d1d1"
     inkscape:zoom="31.75"
     inkscape:cx="12"
     inkscape:cy="12"
     inkscape:window-width="1920"
     inkscape:window-height="994"
     inkscape:window-x="0"
     inkscape:window-y="0"
     inkscape:window-maximized="1"
     inkscape:current-layer="svg1" />
  <style
     type="text/css"
     id="current-color-scheme">.ColorScheme-Text{color:#31363b;}.ColorScheme-Background{color:#eff0f1;}.ColorScheme-Highlight{color:#3daee9;}.ColorScheme-ViewText{color:#31363b;}.ColorScheme-ViewBackground{color:#fcfcfc;}.ColorScheme-ViewHover{color:#93cee9;}.ColorScheme-ViewFocus{color:#3daee9;}.ColorScheme-ButtonText{color:#31363b;}.ColorScheme-ButtonBackground{color:#eff0f1;}.ColorScheme-ButtonHover{color:#93cee9;}.ColorScheme-ButtonFocus { color: #3daee9; } </style>
  <g
     id="22-22-mail-unread"
     transform="translate(1,1)">
    <rect
       style="opacity:0.00100002"
       width="22"
       height="22"
       x="0"
       y="0"
       id="rect2-6" />
    <path
       d="M 20.172846,4 H 1.827154 C 1.370978,4 1,4.382653 1,4.853174 V 17.146825 C 1,17.617347 1.370978,18 1.827154,18 H 20.172846 C 20.629019,18 21,17.617347 21,17.146825 V 4.853174 C 21,4.382653 20.629019,4 20.172846,4 Z M 20,17 v 0 H 2 V 17 7 L 11.000004,11.312564 20,7 Z M 20,5.9 11.000004,10.187 2,5.9 V 5 5 h 18 v 0 z"
       id="path2-6"
       style="fill:#80e5ff;fill-opacity:1;stroke-width:0.280386"
       sodipodi:nodetypes="ssssssssscccccccccccccccc" />
    <path
       inkscape:connector-curvature="0"
       id="path4252-3-6"
       style="font-style:normal;font-variant:normal;font-weight:normal;font-stretch:normal;font-size:18.5263px;line-height:125%;font-family:'Product Sans';-inkscape-font-specification:'Product Sans';letter-spacing:0px;word-spacing:0px;fill:#80e5ff;fill-opacity:1;stroke:none;stroke-width:0.156256;stroke-linecap:butt;stroke-linejoin:miter;stroke-miterlimit:4;stroke-dasharray:none;stroke-opacity:0.85"
       d="m 16.516337,11 q 1.052768,0 1.771746,0.731846 0.718952,0.731895 0.718952,1.768129 0,0.582938 -0.25033,0.96505 -0.243939,0.382133 -0.712556,0.382133 -0.481484,0 -0.718981,-0.472798 -0.314557,0.472798 -0.898713,0.472798 -0.526418,0 -0.885869,-0.36917 -0.359506,-0.375663 -0.359506,-0.952063 0,-0.56995 0.359506,-0.945646 0.359451,-0.375617 0.860181,-0.375617 0.494306,0 0.821696,0.382146 h 0.02576 V 12.29536 h 0.462192 v 1.690402 q 0,0.168387 0.08986,0.304376 0.09628,0.135991 0.2889,0.135991 0.455755,0 0.455755,-0.926154 0,-0.8549 -0.590588,-1.444287 -0.590601,-0.589363 -1.437931,-0.589363 -0.847349,0 -1.437986,0.589363 -0.59055,0.589387 -0.59055,1.444287 0,0.854952 0.59055,1.444336 0.590637,0.589335 1.437986,0.589335 0.455763,0 0.815227,-0.181322 l 0.179773,0.440401 Q 17.062025,16 16.516411,16 15.450794,16 14.725375,15.274591 14,14.542741 14,13.499975 14,12.463741 14.725375,11.731846 15.457183,11 16.516411,11 Z m -0.597014,3.12824 q 0.231107,0.226687 0.552061,0.226687 0.320977,0 0.545655,-0.226687 0.231113,-0.2267 0.231113,-0.602315 0,-0.375693 -0.231113,-0.60235 -0.224678,-0.226686 -0.545655,-0.226686 -0.320954,0 -0.552061,0.226686 -0.224689,0.226657 -0.224689,0.60235 0,0.375615 0.224689,0.602315 z" />
  </g>
</svg>
