<?xml version="1.0" encoding="UTF-8" standalone="no"?>
<svg
   viewBox="0 0 24 24"
   width="24"
   height="24"
   version="1.1"
   id="svg2"
   sodipodi:docname="video-card-inactive.svg"
   inkscape:version="1.3.2 (091e20ef0f, 2023-11-25)"
   xmlns:inkscape="http://www.inkscape.org/namespaces/inkscape"
   xmlns:sodipodi="http://sodipodi.sourceforge.net/DTD/sodipodi-0.dtd"
   xmlns="http://www.w3.org/2000/svg"
   xmlns:svg="http://www.w3.org/2000/svg">
  <sodipodi:namedview
     id="namedview2"
     pagecolor="#ffffff"
     bordercolor="#999999"
     borderopacity="1"
     inkscape:showpageshadow="2"
     inkscape:pageopacity="0"
     inkscape:pagecheckerboard="0"
     inkscape:deskcolor="#d1d1d1"
     inkscape:zoom="31.75"
     inkscape:cx="12"
     inkscape:cy="16.787402"
     inkscape:window-width="1920"
     inkscape:window-height="994"
     inkscape:window-x="0"
     inkscape:window-y="0"
     inkscape:window-maximized="1"
     inkscape:current-layer="svg2" />
  <defs
     id="defs3051">
    <style
       type="text/css"
       id="current-color-scheme">.ColorScheme-Text { color: #fcfcfc; } </style>
  </defs>
  <g
     id="22-22-video-card-inactive"
     transform="translate(1,1)">
    <path
       id="path7"
       style="fill:none"
       d="M 0,0 V 22 H 22 V 0 Z" />
    <g
       id="g14"
       transform="matrix(0.03749997,0,0,0.03749997,1.35,1.3999888)">
      <path
         d="M 479.55273,122.66706 H 70.666723 V 66.667019 c 0,-17.646 -9.618867,-24.00002 -28.000022,-24.00002 H 1.778061 c -6.1416354,0 -11.1114018,7.438344 -11.1114018,13.333344 0,5.896 4.9697664,13.333344 11.1114018,13.333344 h 35.555302 c 6.11976,0 6.666672,10.114013 6.666672,16.000013 v 53.3333 10.667 H 1.778061 C -4.3635744,149.333 -9.3333408,154.104 -9.3333408,160 v 85.333 c 0,5.896 4.9697664,10.667 11.1114018,10.667 h 42.221974 v 26.66719 H 1.778061 c -6.1416354,0 -11.1114018,-0.56319 -11.1114018,5.33281 v 93.33394 c 0,5.896 4.9783735,8 11.1200089,8 H 44.000035 v 5.33306 64 c 0,5.896 6.738376,10.667 12.880011,10.667 6.141636,0 13.786677,-4.771 13.786677,-10.667 V 416.00063 H 101.7786 V 437.334 c 0,5.896 4.96977,5.33332 11.11142,5.33332 h 199.99896 c 6.14164,0 11.11142,0.56268 11.11142,-5.33332 v -21.33337 h 22.22176 V 437.334 c 0,5.896 4.96977,5.33332 11.1114,5.33332 h 111.1109 c 6.14163,0 11.11139,0.56268 11.11139,-5.33332 v -21.33337 c 17.77788,0 44.44457,-26.66669 44.44457,-53.33363 v -192 c -0.003,-23.532 -19.94677,-47.99994 -44.44769,-47.99994 z M 35.111227,362.667 H 17.333347 V 309.33388 H 44.000035 V 362.667 Z m 0,-133.33318 h -17.77788 v -53.33338 h 26.666688 v 53.33338 z M 301.77655,416.00063 H 123.9993 v 0 z m 155.55441,0 h -88.88809 v 0 z m 40.00277,-56.00004 c 0,11.76 -13.52634,29.33335 -25.78669,29.33335 H 70.666723 V 149.333 H 474.21371 c 12.26139,0 23.12002,14.90744 23.12002,26.66744 z"
         id="path2"
         style="fill:#ffb380;fill-opacity:1;stroke-width:1.02061"
         sodipodi:nodetypes="scssssssscccsssccssssccsssccssssccsssscscsccccccccccccccccccccsscsccs" />
      <path
         d="M 433.99908,176.00044 H 213.99999 c -49.6293,0 -89.99989,41.86683 -89.99989,93.33341 0,51.46656 40.37151,93.33341 89.99989,93.33341 h 220.00005 c 5.52748,0 10.00032,-4.63846 10.00032,-10.37069 v -165.9264 c -9.3e-4,-5.73124 -4.47376,-10.36973 -10.00128,-10.36973 z M 417.33367,336.00057 H 219.33351 c -38.594,0 -67.33339,-26.64418 -67.33339,-66.66769 0,-40.02253 28.73939,-66.66575 67.33339,-66.66575 h 198.00016 z"
         id="path4"
         style="fill:#ffb380;fill-opacity:1;stroke-width:0.954702"
         sodipodi:nodetypes="sssssscscssscc" />
      <path
         d="m 164.00013,269.33347 c 0,29.406 23.917,53.333 53.333,53.333 29.417,0 53.334,-23.927 53.334,-53.333 0,-29.406 -23.917,-53.333 -53.333,-53.333 -29.417,-0.001 -53.334,23.926 -53.334,53.333 z m 85.334,0 c 0,17.646 -14.354,32 -32,32 -17.646,0 -32,-14.354 -32,-32 0,-17.646 14.354,-32 32,-32 17.646,0 32,14.354 32,32 z"
         id="path6"
         style="fill:#ffb380;fill-opacity:1" />
    </g>
  </g>
  <path
     d="m 15.615281,10.307013 c -0.611858,0.07096 -1.081897,0.575272 -1.109677,1.190603 -4.24e-4,0.01878 -4.24e-4,0.0376 0,0.05638 h 0.627791 c -3.23e-4,-0.318509 0.237913,-0.58679 0.554227,-0.624115 0.02391,-0.0059 0.04903,-0.0058 0.07357,-0.0035 0.31851,-3.27e-4 0.58679,0.247718 0.624115,0.564035 -0.01151,0.74066 -0.562643,0.776398 -1.250684,0.830109 0,0 -0.0012,1.061177 -0.0012,1.125616 h 0.627795 l 2.9e-5,-0.636377 h 0.0012 0.144686 c 0.611797,-0.07096 1.081865,-0.575271 1.109645,-1.190602 -0.0066,-0.06597 -0.0054,-0.122892 -0.0085,-0.201089 -0.07095,-0.611829 -0.575269,-1.081866 -1.1906,-1.109647 -0.06685,-5.68e-4 -0.133558,-0.0011 -0.202316,-0.0012 z m -0.480659,3.758179 v 0.627796 h 0.627796 v -0.627796 z"
     style="fill:#fdbc4b;fill-opacity:1;stroke:none;stroke-width:0.627797"
     id="path1-3" />
</svg>
