<?xml version="1.0" encoding="UTF-8" standalone="no"?>
<svg
   width="24"
   height="24"
   viewBox="0 0 24 24"
   version="1.1"
   id="svg1"
   sodipodi:docname="wallet-open.svg"
   inkscape:version="1.3.2 (091e20ef0f, 2023-11-25)"
   xmlns:inkscape="http://www.inkscape.org/namespaces/inkscape"
   xmlns:sodipodi="http://sodipodi.sourceforge.net/DTD/sodipodi-0.dtd"
   xmlns="http://www.w3.org/2000/svg"
   xmlns:svg="http://www.w3.org/2000/svg">
  <defs
     id="defs1" />
  <sodipodi:namedview
     id="namedview1"
     pagecolor="#ffffff"
     bordercolor="#999999"
     borderopacity="1"
     inkscape:showpageshadow="2"
     inkscape:pageopacity="0"
     inkscape:pagecheckerboard="0"
     inkscape:deskcolor="#d1d1d1"
     inkscape:zoom="31.75"
     inkscape:cx="12"
     inkscape:cy="12"
     inkscape:window-width="1920"
     inkscape:window-height="994"
     inkscape:window-x="0"
     inkscape:window-y="0"
     inkscape:window-maximized="1"
     inkscape:current-layer="svg1" />
  <style
     type="text/css"
     id="current-color-scheme">.ColorScheme-Text{color:#31363b;}.ColorScheme-Background{color:#eff0f1;}.ColorScheme-Highlight{color:#3daee9;}.ColorScheme-ViewText{color:#31363b;}.ColorScheme-ViewBackground{color:#fcfcfc;}.ColorScheme-ViewHover{color:#93cee9;}.ColorScheme-ViewFocus{color:#3daee9;}.ColorScheme-ButtonText{color:#31363b;}.ColorScheme-ButtonBackground{color:#eff0f1;}.ColorScheme-ButtonHover{color:#93cee9;}.ColorScheme-ButtonFocus { color: #3daee9; } </style>
  <g
     id="22-22-wallet-open"
     style="fill:#d3dae3;fill-opacity:1"
     transform="translate(1.0550003,23.017908)">
    <rect
       style="opacity:0.00100002;fill:#d3dae3;fill-opacity:1;stroke-width:0.6875"
       width="22"
       height="22"
       x="-0.055000305"
       y="-22.017908"
       id="rect12-7" />
    <path
       style="color:#000000;text-indent:0;text-transform:none;direction:ltr;baseline-shift:baseline;fill:#00b2b2;fill-opacity:1;stroke-width:0.202899;enable-background:accumulate"
       d="m 13.609323,-12.017908 c -0.386763,0 -0.664323,0.360475 -0.664323,0.738574 v 3.5228758 c 0,0.3780809 0.27756,0.7385502 0.664323,0.7385502 h 5.677515 c 0.387965,0 0.658162,-0.3604693 0.658162,-0.7385502 v -3.5228758 c 0,-0.378099 -0.270197,-0.738574 -0.658162,-0.738574 z m 1.722321,1.342 c 0.647258,0 1.174794,0.466981 1.174794,1.1547296 0,0.687767 -0.527619,1.1552704 -1.174877,1.1552704 -0.647219,0 -1.187079,-0.4662065 -1.187079,-1.1552704 0,-0.6890446 0.539922,-1.1547296 1.187162,-1.1547296 z"
       fill-opacity="1"
       fill-rule="evenodd"
       stroke="none"
       marker="none"
       visibility="visible"
       display="inline"
       overflow="visible"
       id="path2-62"
       sodipodi:nodetypes="ssssssssssssss" />
    <path
       style="color:#000000;text-indent:0;text-transform:none;direction:ltr;baseline-shift:baseline;fill:#00b2b2;fill-opacity:1;stroke-width:0.207677;enable-background:accumulate"
       d="m 10.470458,-19.117271 c -0.09048,0.01338 -0.174013,0.05728 -0.237354,0.124743 l -4.0608661,3.97462 H 4.3567312 c -0.548975,-0.0016 -0.548975,1.003531 0,1.001952 H 17.735 c 0.171413,0 0.21,0.129102 0.21,0.256051 v 0.941997 c -0.0011,0.561402 1.001128,0.561402 0.999999,0 v -1.242 c 0,-0.613531 -0.136645,-0.958 -0.999999,-0.958001 v 10e-7 -0.915143 c 6.7e-5,-0.0044 6.7e-5,-1.080517 0,-1.084857 0,-0.358244 -0.532078,-1 -1.010463,-1 h -0.703181 -2.110629 c -0.548407,-9.95e-4 -0.548407,1.000995 0,1 h 2.110629 v 0 c 0.713644,0 0.713644,0.274201 0.713644,0.691 l -1e-6,1.309 H 14.877652 L 10.8104,-18.992537 c -0.07789,-0.08062 -0.184305,-0.125604 -0.295081,-0.124742 -0.01496,-8.39e-4 -0.02996,-8.39e-4 -0.04492,0 z"
       fill-opacity="1"
       fill-rule="evenodd"
       stroke="none"
       marker="none"
       visibility="visible"
       display="inline"
       overflow="visible"
       id="path4-91"
       sodipodi:nodetypes="cccccssccsccccscccccccccccc" />
    <path
       style="color:#000000;text-indent:0;text-transform:none;direction:ltr;baseline-shift:baseline;fill:#00b2b2;fill-opacity:1;stroke-width:0.203703;enable-background:accumulate"
       d="m 3.2929997,-18.017908 c -0.7318613,0 -1.348,0.745012 -1.348,1.5 v 12.052303 c 0,0.754998 0.3711017,1.447699 1.2484455,1.447699 H 17.698 c 0.849817,0 1.246957,-0.693686 1.246957,-1.447699 v -1.10698 c 0.0069,-0.5537876 -1.006723,-0.5537876 -0.999957,0 v 1.10698 c 0,0.385622 -0.151911,0.447697 -0.347,0.447697 H 3.2929997 c -0.1950876,0 -0.348,-0.063059 -0.348,-0.447697 v -11.904303 c 0,-0.384634 0.2529128,-0.648 0.448,-0.648 h 3.7894964 c 0.5490003,0.0099 0.5490003,-1.009871 0,-1 z"
       fill-opacity="1"
       fill-rule="evenodd"
       stroke="none"
       marker="none"
       visibility="visible"
       display="inline"
       overflow="visible"
       id="path6-2"
       sodipodi:nodetypes="ssssssccssssssccs" />
  </g>
</svg>
