<?xml version="1.0" encoding="UTF-8" standalone="no"?>
<svg
   width="24"
   height="24"
   viewBox="0 0 24 24"
   version="1.1"
   id="svg1"
   sodipodi:docname="input-keyboard-brightness.svg"
   inkscape:version="1.3.2 (091e20ef0f, 2023-11-25)"
   xmlns:inkscape="http://www.inkscape.org/namespaces/inkscape"
   xmlns:sodipodi="http://sodipodi.sourceforge.net/DTD/sodipodi-0.dtd"
   xmlns:xlink="http://www.w3.org/1999/xlink"
   xmlns="http://www.w3.org/2000/svg"
   xmlns:svg="http://www.w3.org/2000/svg">
  <defs
     id="defs1">
    <linearGradient
       inkscape:collect="always"
       xlink:href="#linearGradient54"
       id="linearGradient57"
       x1="4"
       y1="11.000001"
       x2="18"
       y2="11.000001"
       gradientUnits="userSpaceOnUse" />
    <linearGradient
       id="linearGradient54"
       inkscape:collect="always">
      <stop
         style="stop-color:#ff00ff;stop-opacity:1"
         offset="0"
         id="stop54" />
      <stop
         style="stop-color:#ffd42a;stop-opacity:1"
         offset="1"
         id="stop55" />
    </linearGradient>
  </defs>
  <sodipodi:namedview
     id="namedview1"
     pagecolor="#ffffff"
     bordercolor="#999999"
     borderopacity="1"
     inkscape:showpageshadow="2"
     inkscape:pageopacity="0"
     inkscape:pagecheckerboard="0"
     inkscape:deskcolor="#d1d1d1"
     inkscape:zoom="15.875"
     inkscape:cx="12.472441"
     inkscape:cy="11.590551"
     inkscape:window-width="1920"
     inkscape:window-height="994"
     inkscape:window-x="0"
     inkscape:window-y="0"
     inkscape:window-maximized="1"
     inkscape:current-layer="svg1" />
  <style
     type="text/css"
     id="current-color-scheme">.ColorScheme-Text{color:#31363b;}.ColorScheme-Background{color:#eff0f1;}.ColorScheme-Highlight{color:#3daee9;}.ColorScheme-ViewText{color:#31363b;}.ColorScheme-ViewBackground{color:#fcfcfc;}.ColorScheme-ViewHover{color:#93cee9;}.ColorScheme-ViewFocus{color:#3daee9;}.ColorScheme-ButtonText{color:#31363b;}.ColorScheme-ButtonBackground{color:#eff0f1;}.ColorScheme-ButtonHover{color:#93cee9;}.ColorScheme-ButtonFocus { color: #3daee9; } </style>
  <g
     id="22-22-input-keyboard-brightness"
     transform="translate(1,1)">
    <rect
       ry="0"
       y="0"
       x="0"
       height="22"
       width="22"
       style="fill:none"
       id="rect20" />
    <path
       inkscape:connector-curvature="0"
       id="path880-8-6-6-9"
       d="m 4,4.333325 v 10.6666 c 0,0.666663 0.7000004,1.333326 1.3999998,1.666757 L 11,19.000001 16.6,16.617249 c 0.700001,-0.283998 1.4,-0.950661 1.4,-1.69683 v -10.587094 0 C 18,3.666663 17.300001,3 16.6,3 L 5.3904941,3.0001 C 4.7000004,3 4,3.666663 4,4.333325 Z M 5,5 C 5,4 5.4650539,4 6.089,4.000122 l 9.75,-2.44e-4 C 16.53418,3.999785 17,4 17,5 v 0 7.999938 C 17,14 16.521049,14 15.840327,14 H 6.1000002 C 5.4829304,14 5,14 5,12.999938 Z M 10.584374,5.66675 7.5,12.333375 h 0.9105456 l 0.9255888,-1.999989 h 3.3058596 l 0.944726,1.999989 H 14.5 L 11.35,5.66675 Z m 0.386913,1.1302 1.356247,2.869776 H 9.6437498 Z M 5,15.000025 H 17 C 17,15.666588 16.6,16 15.9,16 H 6.1000002 C 5.3999998,16 5,15.666588 5,15.000025 Z"
       style="color:#d1d5e9;fill:url(#linearGradient57);fill-opacity:1;stroke:none;stroke-width:0.683128"
       sodipodi:nodetypes="ccccccccccccccccccccccccccccccccccccccc"
       class="ColorScheme-Text" />
    <path
       style="fill:#ffcc00;fill-opacity:1;stroke:none;stroke-width:0.399998"
       d="m 13.91836,4.312065 c -0.1108,0 -0.199999,0.0892 -0.199999,0.199999 v 0.399998 c 0,0.110799 0.0892,0.199998 0.199999,0.199998 0.110799,0 0.199998,-0.0892 0.199998,-0.199998 V 4.512064 c 0,-0.110799 -0.0892,-0.199999 -0.199998,-0.199999 z m -1.272646,0.527337 c -0.05113,0 -0.102233,0.0194 -0.141412,0.0586 -0.07835,0.07835 -0.07835,0.204465 0,0.282811 l 0.282811,0.282812 c 0.07835,0.07835 0.204466,0.07835 0.282818,0 0.07834,-0.07835 0.07834,-0.204472 0,-0.282812 L 12.787113,4.898002 c -0.03913,-0.03913 -0.09028,-0.0586 -0.141399,-0.0586 z m 2.545291,0 c -0.05113,0 -0.102226,0.0194 -0.141406,0.0586 l -0.282811,0.282811 c -0.07834,0.07834 -0.07834,0.204466 0,0.282812 0.07835,0.07835 0.204472,0.07835 0.282811,0 l 0.282819,-0.282812 c 0.07834,-0.07835 0.07834,-0.204465 0,-0.282811 -0.03913,-0.03913 -0.09029,-0.0586 -0.141413,-0.0586 z M 13.91836,5.512058 c -0.441824,0 -0.799995,0.358171 -0.799995,0.799995 0,0.441824 0.358171,0.799995 0.799995,0.799995 0.441824,0 0.799995,-0.358171 0.799995,-0.799995 0,-0.441824 -0.358171,-0.799995 -0.799995,-0.799995 z m 0,0.399998 v 0.799995 c -0.220912,0 -0.399998,-0.179086 -0.399998,-0.399998 0,-0.220912 0.179086,-0.399997 0.399998,-0.399997 z m -1.799989,0.199998 c -0.1108,0 -0.199999,0.0892 -0.199999,0.199999 0,0.1108 0.0892,0.199999 0.199999,0.199999 h 0.399997 c 0.1108,0 0.199999,-0.0892 0.199999,-0.199999 0,-0.110799 -0.0892,-0.199999 -0.199999,-0.199999 z m 3.19998,0 c -0.110799,0 -0.199999,0.0892 -0.199999,0.199999 0,0.1108 0.0892,0.199999 0.199999,0.199999 h 0.399998 c 0.110799,0 0.199998,-0.0892 0.199998,-0.199999 0,-0.110799 -0.0892,-0.199999 -0.199998,-0.199999 z m -2.389832,0.989834 c -0.05113,0 -0.102226,0.0194 -0.141406,0.0586 l -0.282811,0.282818 c -0.07835,0.07834 -0.07835,0.204459 0,0.282812 0.07835,0.07835 0.204472,0.07835 0.282811,0 l 0.282818,-0.282812 c 0.07834,-0.07835 0.07834,-0.204465 0,-0.282818 -0.03913,-0.03913 -0.09029,-0.0586 -0.141412,-0.0586 z m 1.979681,0 c -0.05113,0 -0.102232,0.0194 -0.141412,0.0586 -0.07834,0.07835 -0.07834,0.204472 0,0.282818 l 0.282811,0.282812 c 0.07835,0.07835 0.204466,0.07835 0.282819,0 0.07834,-0.07835 0.07834,-0.204472 0,-0.282812 L 15.049599,7.160488 c -0.03913,-0.03913 -0.09028,-0.0586 -0.141399,-0.0586 z m -0.98984,0.410158 c -0.1108,0 -0.199999,0.0892 -0.199999,0.199999 v 0.399997 c 0,0.1108 0.0892,0.199999 0.199999,0.199999 0.110799,0 0.199998,-0.0892 0.199998,-0.199999 V 7.712045 c 0,-0.1108 -0.0892,-0.199999 -0.199998,-0.199999 z"
       id="path4274-9-2-3-1"
       inkscape:connector-curvature="0" />
  </g>
</svg>
