<?xml version="1.0" encoding="UTF-8" standalone="no"?>
<svg
   width="24"
   height="24"
   viewBox="0 0 24 24"
   version="1.1"
   id="svg2"
   sodipodi:docname="input-keyboard-virtual-on.svg"
   inkscape:version="1.3.2 (091e20ef0f, 2023-11-25)"
   xmlns:inkscape="http://www.inkscape.org/namespaces/inkscape"
   xmlns:sodipodi="http://sodipodi.sourceforge.net/DTD/sodipodi-0.dtd"
   xmlns:xlink="http://www.w3.org/1999/xlink"
   xmlns="http://www.w3.org/2000/svg"
   xmlns:svg="http://www.w3.org/2000/svg">
  <defs
     id="defs2">
    <linearGradient
       inkscape:collect="always"
       xlink:href="#linearGradient2"
       id="linearGradient31"
       x1="5"
       y1="45"
       x2="17"
       y2="45"
       gradientUnits="userSpaceOnUse" />
    <linearGradient
       id="linearGradient2"
       inkscape:collect="always">
      <stop
         style="stop-color:#00b7b7;stop-opacity:1;"
         offset="0"
         id="stop5" />
      <stop
         style="stop-color:#b380ff;stop-opacity:1"
         offset="1"
         id="stop7" />
    </linearGradient>
    <linearGradient
       inkscape:collect="always"
       xlink:href="#linearGradient2"
       id="linearGradient34"
       x1="11"
       y1="37"
       x2="16"
       y2="37"
       gradientUnits="userSpaceOnUse" />
    <linearGradient
       inkscape:collect="always"
       xlink:href="#linearGradient2"
       id="linearGradient27"
       x1="2"
       y1="45"
       x2="20"
       y2="45"
       gradientUnits="userSpaceOnUse" />
  </defs>
  <sodipodi:namedview
     id="namedview2"
     pagecolor="#ffffff"
     bordercolor="#999999"
     borderopacity="1"
     inkscape:showpageshadow="2"
     inkscape:pageopacity="0"
     inkscape:pagecheckerboard="0"
     inkscape:deskcolor="#d1d1d1"
     inkscape:zoom="31.75"
     inkscape:cx="12"
     inkscape:cy="12.377953"
     inkscape:window-width="1920"
     inkscape:window-height="994"
     inkscape:window-x="0"
     inkscape:window-y="0"
     inkscape:window-maximized="1"
     inkscape:current-layer="svg2" />
  <style
     type="text/css"
     id="current-color-scheme">.ColorScheme-Text{color:#31363b;}.ColorScheme-Background{color:#eff0f1;}.ColorScheme-Highlight{color:#3daee9;}.ColorScheme-ViewText{color:#31363b;}.ColorScheme-ViewBackground{color:#fcfcfc;}.ColorScheme-ViewHover{color:#93cee9;}.ColorScheme-ViewFocus{color:#3daee9;}.ColorScheme-ButtonText{color:#31363b;}.ColorScheme-ButtonBackground{color:#eff0f1;}.ColorScheme-ButtonHover{color:#93cee9;}.ColorScheme-ButtonFocus { color: #3daee9; } </style>
  <g
     id="22-22-input-keyboard-virtual-on"
     transform="translate(1,-31)">
    <path
       id="path8"
       d="M 3.7442519,35 A 1.7442518,1.7442418 0 0 0 2,36.744252 1.7442518,1.7442418 0 0 0 3.7442519,38.488504 1.7442518,1.7442418 0 0 0 5.4885039,36.744252 1.7442518,1.7442418 0 0 0 3.7442519,35 Z"
       style="fill:#00aa7f;fill-opacity:1;stroke:none;stroke-width:0.697701"
       inkscape:connector-curvature="0" />
    <rect
       y="32"
       x="0"
       height="22"
       width="22"
       id="rect4140"
       style="fill:none;fill-opacity:1;stroke:none;stroke-linejoin:bevel" />
    <path
       style="color:#d1d5e9;fill:url(#linearGradient31);fill-opacity:1;stroke-width:1.26448"
       fill-rule="evenodd"
       d="M 5,42.000053 V 44 h 2 v -1.999947 z m 3,0 V 44 h 2 v -1.999947 z m 3,0 V 44 h 2 v -1.999947 z m 6,0 V 44 H 15 V 42 Z M 5,47 v 0 h 2 v 0 z m 3,0 v 0 0 h 6 z m 7,0 v 0 h 2 v 0 z M 5,46 v 2 h 2 v -2 z m 3,0 v 2 h 6 v -2 z m 7,0 v 2 h 2 v -2 z"
       font-family="sans-serif"
       font-weight="400"
       overflow="visible"
       id="path60-5-7-6"
       sodipodi:nodetypes="cccccccccccccccccccccccccccccccccccccccccccccccccc"
       class="ColorScheme-Text" />
    <path
       id="Keyboard-s-3-9"
       class="st1  ColorScheme-Text"
       d="M 14.75,36 V 35 H 16 v 1 c 0,0.99 -0.84375,1.8 -1.875,1.8 h -1.25 c -0.34375,0 -0.625,0.27 -0.625,0.6 V 39 H 11 v -0.6 c 0,-0.99 0.84375,-1.8 1.875,-1.8 h 1.25 c 0.34375,0 0.625,-0.27 0.625,-0.6 z"
       style="color:#d1d5e9;clip-rule:evenodd;fill:url(#linearGradient34);fill-opacity:1;fill-rule:evenodd;stroke-width:0.306186"
       sodipodi:nodetypes="sccccccccsccs" />
    <path
       d="M 20,49.6 V 40.3 C 20,39.626529 19.325,39 18.500007,39 H 3.4 C 2.574999,39 1.999999,39.626529 2,40.3 v 9.3 C 2,50.273467 2.574999,51 3.4,51 H 18.6 C 19.424993,51 20,50.273467 20,49.6 Z M 3.6,50 C 3.000374,50 3,49.536722 3,49.2 V 40.8 C 3,40.46325 2.88787,39.999516 3.6,40 l 14.7,0.01 c 0.71212,4.84e-4 0.7,0.45325 0.7,0.79 v 8.4 c 0,0.336722 -3.8e-4,0.8 -0.6,0.8 z"
       id="path2-0"
       style="color:#d1d5e9;fill:url(#linearGradient27);fill-opacity:1;stroke-width:0.338818"
       sodipodi:nodetypes="ssssssssssssssssss"
       class="ColorScheme-Text" />
  </g>
</svg>
