<?xml version="1.0" encoding="UTF-8" standalone="no"?>
<svg
   width="24"
   height="24"
   viewBox="0 0 24 24"
   version="1.1"
   id="svg1"
   sodipodi:docname="kpackagekit-important.svg"
   inkscape:version="1.3.2 (091e20ef0f, 2023-11-25)"
   xmlns:inkscape="http://www.inkscape.org/namespaces/inkscape"
   xmlns:sodipodi="http://sodipodi.sourceforge.net/DTD/sodipodi-0.dtd"
   xmlns:xlink="http://www.w3.org/1999/xlink"
   xmlns="http://www.w3.org/2000/svg"
   xmlns:svg="http://www.w3.org/2000/svg">
  <defs
     id="defs1">
    <linearGradient
       inkscape:collect="always"
       xlink:href="#linearGradient5"
       id="linearGradient6"
       x1="4"
       y1="12"
       x2="20"
       y2="12"
       gradientUnits="userSpaceOnUse" />
    <linearGradient
       id="linearGradient5"
       inkscape:collect="always">
      <stop
         style="stop-color:#ff7f2a;stop-opacity:1"
         offset="0"
         id="stop5" />
      <stop
         style="stop-color:#ffcc00;stop-opacity:1"
         offset="1"
         id="stop6" />
    </linearGradient>
  </defs>
  <sodipodi:namedview
     id="namedview1"
     pagecolor="#ffffff"
     bordercolor="#999999"
     borderopacity="1"
     inkscape:showpageshadow="2"
     inkscape:pageopacity="0"
     inkscape:pagecheckerboard="0"
     inkscape:deskcolor="#d1d1d1"
     inkscape:zoom="31.75"
     inkscape:cx="12"
     inkscape:cy="12"
     inkscape:window-width="1920"
     inkscape:window-height="994"
     inkscape:window-x="0"
     inkscape:window-y="0"
     inkscape:window-maximized="1"
     inkscape:current-layer="svg1" />
  <style
     type="text/css"
     id="current-color-scheme">.ColorScheme-Text{color:#31363b;}.ColorScheme-Background{color:#eff0f1;}.ColorScheme-Highlight{color:#3daee9;}.ColorScheme-ViewText{color:#31363b;}.ColorScheme-ViewBackground{color:#fcfcfc;}.ColorScheme-ViewHover{color:#93cee9;}.ColorScheme-ViewFocus{color:#3daee9;}.ColorScheme-ButtonText{color:#31363b;}.ColorScheme-ButtonBackground{color:#eff0f1;}.ColorScheme-ButtonHover{color:#93cee9;}.ColorScheme-ButtonFocus { color: #3daee9; } </style>
  <g
     id="kpackagekit-important">
    <rect
       style="fill:#ffffff;fill-opacity:0;stroke:none"
       id="rect3009"
       width="22"
       height="22"
       x="1"
       y="1" />
    <path
       id="rect8081-5"
       style="fill:url(#linearGradient6);fill-opacity:1;stroke:none"
       d="m 11.2,15.2 v -1.6 h 1.6 v 1.6 z m 0,-7.2 h 1.6 v 4.8 H 11.2 Z M 12,20 c 4.431968,0 8,-3.568 8,-8 0,-1.44168 -0.382872,-2.78928 -1.04492,-3.95512 L 18.2168,8.7832 C 18.714168,9.74608 19,10.83752 19,12 c 0,3.878 -3.122032,7 -7,7 -1.162512,0 -2.253888,-0.28584 -3.2168,-0.7832 L 8.04492,18.95512 C 9.210712,19.61712 10.558288,20 12,20 Z M 5.04492,15.95512 5.7832,15.2168 C 5.285824,14.25392 5,13.16248 5,12 5,8.122 8.122032,5 12,5 c 1.162512,0 2.253888,0.28576 3.2168,0.7832 L 15.95508,5.04488 C 14.789288,4.38288 13.441712,4 12,4 7.568032,4 4,7.568 4,12 c 0,1.44168 0.382872,2.78928 1.04492,3.95512 z"
       class="ColorScheme-Text" />
  </g>
</svg>
