<?xml version="1.0" encoding="UTF-8" standalone="no"?>
<svg
   viewBox="0 0 24 24"
   width="24"
   height="24"
   version="1.1"
   id="svg2"
   sodipodi:docname="security-low.svg"
   inkscape:version="1.3.2 (091e20ef0f, 2023-11-25)"
   xmlns:inkscape="http://www.inkscape.org/namespaces/inkscape"
   xmlns:sodipodi="http://sodipodi.sourceforge.net/DTD/sodipodi-0.dtd"
   xmlns="http://www.w3.org/2000/svg"
   xmlns:svg="http://www.w3.org/2000/svg">
  <sodipodi:namedview
     id="namedview2"
     pagecolor="#ffffff"
     bordercolor="#999999"
     borderopacity="1"
     inkscape:showpageshadow="2"
     inkscape:pageopacity="0"
     inkscape:pagecheckerboard="0"
     inkscape:deskcolor="#d1d1d1"
     inkscape:zoom="31.75"
     inkscape:cx="12"
     inkscape:cy="12"
     inkscape:window-width="1920"
     inkscape:window-height="994"
     inkscape:window-x="0"
     inkscape:window-y="0"
     inkscape:window-maximized="1"
     inkscape:current-layer="svg2" />
  <defs
     id="defs3051">
    <style
       type="text/css"
       id="current-color-scheme">.ColorScheme-Text{color:#232629;}.ColorScheme-NegativeText { color: #da4453; } </style>
  </defs>
  <g
     transform="translate(1,1)"
     id="g2">
    <path
       style="fill:#c83771;fill-opacity:1;stroke:none"
       d="M 11 3 C 11 3 9 5.6575188 3 6.3242188 C 3 6.3242188 3 15.6581 11 19 C 19 15.6581 19 6.3242188 19 6.3242188 C 13 5.6575188 11 3 11 3 z M 11 4.3769531 C 12.586995 5.7216531 14.87716 6.6187125 17.845703 7.0703125 C 17.684444 8.5155125 17.529828 9.6030969 17.15625 10.654297 C 16.37116 12.863397 15.455775 14.207328 14.634766 15.173828 C 13.362538 16.671528 12.207192 17.277659 11 17.880859 C 9.792808 17.277659 8.6374614 16.671528 7.3652344 15.173828 C 6.5442254 14.207328 5.62884 12.863397 4.84375 10.654297 C 4.470172 9.6030969 4.3155559 8.5155125 4.1542969 7.0703125 C 7.1228399 6.6187125 9.413005 5.7216531 11 4.3769531 z "
       class="ColorScheme-Text"
       id="path1" />
    <path
       style="fill:currentColor;fill-opacity:1;stroke:none"
       d="M 12 11 C 11.445981 11 11 11.446 11 12 L 11 18 C 11 18.5541 11.445981 19 12 19 L 18 19 C 18.554019 19 19 18.5541 19 18 L 19 12 C 19 11.446 18.554019 11 18 11 L 12 11 z "
       class="ColorScheme-NegativeText"
       id="path2" />
    <path
       style="fill:#ffffff"
       d="M 13 12 L 12 13 L 14 15 L 12 17 L 13 18 L 15 16 L 17 18 L 18 17 L 16 15 L 18 13 L 17 12 L 15 14 L 13 12 z "
       id="path4141" />
  </g>
</svg>
