<?xml version="1.0" encoding="UTF-8" standalone="no"?>
<svg
   version="1.1"
   viewBox="0 0 24 24"
   width="24"
   height="24"
   id="svg2"
   sodipodi:docname="smartphoneconnected.svg"
   inkscape:version="1.3.2 (091e20ef0f, 2023-11-25)"
   xmlns:inkscape="http://www.inkscape.org/namespaces/inkscape"
   xmlns:sodipodi="http://sodipodi.sourceforge.net/DTD/sodipodi-0.dtd"
   xmlns="http://www.w3.org/2000/svg"
   xmlns:svg="http://www.w3.org/2000/svg">
  <defs
     id="defs2" />
  <sodipodi:namedview
     id="namedview2"
     pagecolor="#ffffff"
     bordercolor="#999999"
     borderopacity="1"
     inkscape:showpageshadow="2"
     inkscape:pageopacity="0"
     inkscape:pagecheckerboard="0"
     inkscape:deskcolor="#d1d1d1"
     inkscape:zoom="31.75"
     inkscape:cx="12"
     inkscape:cy="12"
     inkscape:window-width="1920"
     inkscape:window-height="994"
     inkscape:window-x="0"
     inkscape:window-y="0"
     inkscape:window-maximized="1"
     inkscape:current-layer="svg2" />
  <style
     id="current-color-scheme"
     type="text/css">.ColorScheme-PositiveText{color:#27ae60;}.ColorScheme-Text { color: #232629; } </style>
  <g
     transform="translate(1,1)"
     id="g2">
    <path
       d="m7.8359 2.9395c-0.72375 0-1.3184 0.59265-1.3184 1.3164v13.488c0 0.72375 0.5946 1.3164 1.3184 1.3164h6.375c0.72375 0 1.3164-0.59265 1.3164-1.3164v-13.488c0-0.72375-0.59265-1.3164-1.3164-1.3164h-6.375zm0 0.66016h6.375c0.36848 0 0.6543 0.28777 0.6543 0.65625v13.488c0 0.36848-0.28582 0.65625-0.6543 0.65625h-6.375c-0.36848 0-0.65625-0.28777-0.65625-0.65625v-13.488c0-0.36848 0.28777-0.65625 0.65625-0.65625zm5.9297 0.61523a0.44372 0.44372 0 0 0-0.43945 0.44727 0.44372 0.44372 0 0 0 0.44531 0.43945 0.44372 0.44372 0 0 0 0.44141-0.44336v-0.0058593a0.44372 0.44372 0 0 0-0.44727-0.4375zm-5.6367 0.0058593a0.44372 0.44372 0 0 0-0.43945 0.44727 0.44372 0.44372 0 0 0 0.44531 0.44141 0.44372 0.44372 0 0 0 0.44336-0.44531v-0.0058594a0.44372 0.44372 0 0 0-0.44922-0.4375zm4.3398 0a0.44372 0.44372 0 0 0-0.43945 0.44727 0.44372 0.44372 0 0 0 0.44531 0.44141 0.44372 0.44372 0 0 0 0.44141-0.44531v-0.0058594a0.44372 0.44372 0 0 0-0.44727-0.4375zm-2.8926 13.037a0.17827 0.17827 0 0 0-0.17773 0.17774 0.17827 0.17827 0 0 0 0.17773 0.17773h2.9551a0.17827 0.17827 0 0 0 0.17969-0.17773 0.17827 0.17827 0 0 0-0.17969-0.17774h-2.9551z"
       id="path1"
       style="fill:#1fb65f;fill-opacity:1" />
    <path
       class="ColorScheme-Text"
       d="m13.149 9.78-2.7631 2.7355-1.0529-1.0423-0.26288 0.26076 1.0522 1.0416 0.26359 0.26076 0.39432-0.39079 2.6316-2.6048z"
       color="#232629"
       fill="#1fb65f"
       stroke="#1fb65f"
       stroke-width=".42324"
       id="path2" />
  </g>
</svg>
