<?xml version="1.0" encoding="UTF-8" standalone="no"?>
<svg
   width="24"
   height="24"
   viewBox="0 0 24 24"
   version="1.1"
   id="svg1"
   sodipodi:docname="input-keyboard-battery.svg"
   inkscape:version="1.3.2 (091e20ef0f, 2023-11-25)"
   xmlns:inkscape="http://www.inkscape.org/namespaces/inkscape"
   xmlns:sodipodi="http://sodipodi.sourceforge.net/DTD/sodipodi-0.dtd"
   xmlns:xlink="http://www.w3.org/1999/xlink"
   xmlns="http://www.w3.org/2000/svg"
   xmlns:svg="http://www.w3.org/2000/svg">
  <defs
     id="defs1">
    <linearGradient
       inkscape:collect="always"
       xlink:href="#linearGradient1"
       id="linearGradient61"
       x1="4"
       y1="43"
       x2="18"
       y2="43"
       gradientUnits="userSpaceOnUse" />
    <linearGradient
       id="linearGradient1"
       inkscape:collect="always">
      <stop
         style="stop-color:#00ccff;stop-opacity:1"
         offset="0"
         id="stop1" />
      <stop
         style="stop-color:#00d4aa;stop-opacity:1"
         offset="1"
         id="stop3" />
    </linearGradient>
  </defs>
  <sodipodi:namedview
     id="namedview1"
     pagecolor="#ffffff"
     bordercolor="#999999"
     borderopacity="1"
     inkscape:showpageshadow="2"
     inkscape:pageopacity="0"
     inkscape:pagecheckerboard="0"
     inkscape:deskcolor="#d1d1d1"
     inkscape:zoom="15.875"
     inkscape:cx="11.464567"
     inkscape:cy="15.559055"
     inkscape:window-width="1920"
     inkscape:window-height="994"
     inkscape:window-x="0"
     inkscape:window-y="0"
     inkscape:window-maximized="1"
     inkscape:current-layer="svg1" />
  <style
     type="text/css"
     id="current-color-scheme">.ColorScheme-Text{color:#31363b;}.ColorScheme-Background{color:#eff0f1;}.ColorScheme-Highlight{color:#3daee9;}.ColorScheme-ViewText{color:#31363b;}.ColorScheme-ViewBackground{color:#fcfcfc;}.ColorScheme-ViewHover{color:#93cee9;}.ColorScheme-ViewFocus{color:#3daee9;}.ColorScheme-ButtonText{color:#31363b;}.ColorScheme-ButtonBackground{color:#eff0f1;}.ColorScheme-ButtonHover{color:#93cee9;}.ColorScheme-ButtonFocus { color: #3daee9; } </style>
  <g
     id="22-22-input-keyboard-battery"
     transform="translate(1,-31)">
    <rect
       style="fill:none"
       width="22"
       height="22"
       x="0"
       y="32"
       ry="0"
       id="rect15" />
    <path
       inkscape:connector-curvature="0"
       id="path880-8-6-5-7"
       d="m 4,36.333325 v 10.6666 c 0,0.666663 0.7000005,1.333325 1.4,1.666756 L 11,51 16.6,48.617248 C 17.300001,48.33325 18,47.666588 18,46.920419 v -10.587094 0 C 18,35.666663 17.300001,35 16.6,35 l -11.2095057,1e-4 C 4.7000005,35 4,35.666663 4,36.333325 Z M 5,36.93 C 5,35.999999 5.5647864,35.999999 6.089,36 h 9.85 c 0.549903,-10e-7 1.061,-10e-7 1.061,0.93 v 0 8.069937 C 17,45.999999 16.414469,45.999999 15.840327,46 H 6.1000005 C 5.5020072,45.999999 5,45.999999 5,44.999937 Z m 5.584374,0.73675 -3.0843735,6.666625 h 0.9105457 l 0.9255896,-1.999988 h 3.3058512 l 0.944733,1.999988 h 0.913281 L 11.35,37.66675 Z m 0.386913,1.1302 1.356247,2.869775 H 9.6437496 Z M 5,47.000025 H 17 C 17,47.666588 16.6,48 15.900001,48 H 6.1000005 C 5.4,48 5,47.666588 5,47.000025 Z"
       style="color:#d1d5e9;fill:url(#linearGradient61);fill-opacity:1;stroke:none;stroke-width:0.683128"
       sodipodi:nodetypes="ccccccccccccccccccccccccccccccccccccccc"
       class="ColorScheme-Text" />
    <path
       style="fill:#ff2a2a;fill-opacity:1;stroke:none;stroke-width:0.666663"
       d="m 13.951864,36.026607 -1.333325,3.333312 h 1.333325 v 1.999988 l 1.333325,-3.333313 h -1.333325 z"
       id="path12-2-5-0"
       inkscape:connector-curvature="0" />
  </g>
</svg>
