<?xml version="1.0" encoding="UTF-8" standalone="no"?>
<svg
   width="24"
   height="24"
   viewBox="0 0 24 24"
   version="1.1"
   id="svg1"
   sodipodi:docname="input-keyboard-virtual-off.svg"
   inkscape:version="1.3.2 (091e20ef0f, 2023-11-25)"
   xmlns:inkscape="http://www.inkscape.org/namespaces/inkscape"
   xmlns:sodipodi="http://sodipodi.sourceforge.net/DTD/sodipodi-0.dtd"
   xmlns:xlink="http://www.w3.org/1999/xlink"
   xmlns="http://www.w3.org/2000/svg"
   xmlns:svg="http://www.w3.org/2000/svg">
  <defs
     id="defs1">
    <linearGradient
       inkscape:collect="always"
       xlink:href="#linearGradient35"
       id="linearGradient53"
       x1="2"
       y1="68.744255"
       x2="5.4885039"
       y2="68.744255"
       gradientUnits="userSpaceOnUse" />
    <linearGradient
       id="linearGradient35"
       inkscape:collect="always">
      <stop
         style="stop-color:#ff2a2a;stop-opacity:1"
         offset="0"
         id="stop36" />
      <stop
         style="stop-color:#ff8080;stop-opacity:1"
         offset="1"
         id="stop38" />
    </linearGradient>
    <linearGradient
       inkscape:collect="always"
       xlink:href="#linearGradient35"
       id="linearGradient49"
       x1="5"
       y1="77"
       x2="17"
       y2="77"
       gradientUnits="userSpaceOnUse" />
    <linearGradient
       inkscape:collect="always"
       xlink:href="#linearGradient35"
       id="linearGradient51"
       x1="11"
       y1="69"
       x2="16"
       y2="69"
       gradientUnits="userSpaceOnUse" />
    <linearGradient
       inkscape:collect="always"
       xlink:href="#linearGradient35"
       id="linearGradient47"
       x1="2"
       y1="77.000008"
       x2="20"
       y2="77.000008"
       gradientUnits="userSpaceOnUse" />
  </defs>
  <sodipodi:namedview
     id="namedview1"
     pagecolor="#ffffff"
     bordercolor="#999999"
     borderopacity="1"
     inkscape:showpageshadow="2"
     inkscape:pageopacity="0"
     inkscape:pagecheckerboard="0"
     inkscape:deskcolor="#d1d1d1"
     inkscape:zoom="31.75"
     inkscape:cx="12"
     inkscape:cy="12"
     inkscape:window-width="1920"
     inkscape:window-height="994"
     inkscape:window-x="0"
     inkscape:window-y="0"
     inkscape:window-maximized="1"
     inkscape:current-layer="svg1" />
  <style
     type="text/css"
     id="current-color-scheme">.ColorScheme-Text{color:#31363b;}.ColorScheme-Background{color:#eff0f1;}.ColorScheme-Highlight{color:#3daee9;}.ColorScheme-ViewText{color:#31363b;}.ColorScheme-ViewBackground{color:#fcfcfc;}.ColorScheme-ViewHover{color:#93cee9;}.ColorScheme-ViewFocus{color:#3daee9;}.ColorScheme-ButtonText{color:#31363b;}.ColorScheme-ButtonBackground{color:#eff0f1;}.ColorScheme-ButtonHover{color:#93cee9;}.ColorScheme-ButtonFocus { color: #3daee9; } </style>
  <g
     id="22-22-input-keyboard-virtual-off"
     transform="translate(1,-63)">
    <rect
       style="fill:none;fill-opacity:1;stroke:none;stroke-linejoin:bevel"
       id="rect4172"
       width="22"
       height="22"
       x="0"
       y="64" />
    <path
       id="path8-0"
       d="M 3.744252,67 A 1.7442518,1.7442418 0 0 0 2,68.744252 1.7442518,1.7442418 0 0 0 3.744252,70.488504 1.7442518,1.7442418 0 0 0 5.488504,68.744252 1.7442518,1.7442418 0 0 0 3.744252,67 Z"
       style="fill:url(#linearGradient53);fill-opacity:1;stroke:none;stroke-width:0.697701"
       inkscape:connector-curvature="0" />
    <path
       style="color:#d1d5e9;fill:url(#linearGradient49);fill-opacity:1;stroke-width:1.26448"
       fill-rule="evenodd"
       d="M 5,74.000053 V 76 h 2 v -1.999947 z m 3,0 V 76 h 2 v -1.999947 z m 3,0 V 76 h 2 v -1.999947 z m 6,0 V 76 H 15 V 74 Z M 5,79 v 0 h 2 v 0 z m 3,0 v 0 0 h 6 z m 7,0 v 0 h 2 v 0 z M 5,78 v 2 h 2 v -2 z m 3,0 v 2 h 6 v -2 z m 7,0 v 2 h 2 v -2 z"
       font-family="sans-serif"
       font-weight="400"
       overflow="visible"
       id="path60-5-7-6-9"
       sodipodi:nodetypes="cccccccccccccccccccccccccccccccccccccccccccccccccc"
       class="ColorScheme-Text" />
    <path
       id="Keyboard-s-3-9-6"
       class="st1  ColorScheme-Text"
       d="M 14.75,68 V 67 H 16 v 1 c 0,0.99 -0.84375,1.8 -1.875,1.8 h -1.25 c -0.34375,0 -0.625,0.27 -0.625,0.6 V 71 H 11 v -0.6 c 0,-0.99 0.84375,-1.8 1.875,-1.8 h 1.25 c 0.34375,0 0.625,-0.27 0.625,-0.6 z"
       style="color:#d1d5e9;clip-rule:evenodd;fill:url(#linearGradient51);fill-opacity:1;fill-rule:evenodd;stroke-width:0.306186"
       sodipodi:nodetypes="sccccccccsccs" />
    <path
       d="m 20,81.60001 v -9.3 c 0,-0.673471 -0.675,-1.3 -1.499993,-1.3 H 3.4 c -0.825001,0 -1.400001,0.626529 -1.4,1.3 v 9.3 c 0,0.673467 0.574999,1.4 1.4,1.4 h 15.2 c 0.824993,0 1.4,-0.726533 1.4,-1.4 z m -16.4,0.4 c -0.599626,0 -0.6,-0.463278 -0.6,-0.8 v -8.4 c 0,-0.33675 -0.11213,-0.800484 0.6,-0.8 l 14.7,0.01 c 0.712121,4.84e-4 0.7,0.45325 0.7,0.79 v 8.4 c 0,0.336722 -3.8e-4,0.8 -0.6,0.8 z"
       id="path2-6"
       style="color:#d1d5e9;fill:url(#linearGradient47);fill-opacity:1;stroke-width:0.338818"
       sodipodi:nodetypes="ssssssssssssssssss"
       class="ColorScheme-Text" />
  </g>
</svg>
