<?xml version="1.0" encoding="UTF-8" standalone="no"?>
<svg
   viewBox="0 0 24 24"
   width="24"
   height="24"
   version="1.1"
   id="svg6"
   sodipodi:docname="microphone-sensitivity-muted.svg"
   inkscape:version="1.3.2 (091e20ef0f, 2023-11-25)"
   xmlns:inkscape="http://www.inkscape.org/namespaces/inkscape"
   xmlns:sodipodi="http://sodipodi.sourceforge.net/DTD/sodipodi-0.dtd"
   xmlns="http://www.w3.org/2000/svg"
   xmlns:svg="http://www.w3.org/2000/svg">
  <defs
     id="defs6" />
  <sodipodi:namedview
     id="namedview6"
     pagecolor="#ffffff"
     bordercolor="#999999"
     borderopacity="1"
     inkscape:showpageshadow="2"
     inkscape:pageopacity="0"
     inkscape:pagecheckerboard="0"
     inkscape:deskcolor="#d1d1d1"
     inkscape:zoom="31.75"
     inkscape:cx="12"
     inkscape:cy="12"
     inkscape:window-width="1920"
     inkscape:window-height="994"
     inkscape:window-x="0"
     inkscape:window-y="0"
     inkscape:window-maximized="1"
     inkscape:current-layer="svg6" />
  <style
     id="current-color-scheme"
     type="text/css">.ColorScheme-Text{color:#232629;}.ColorScheme-NegativeText { color: #da4453; } </style>
  <g
     id="microphone-sensitivity-muted"
     transform="translate(-245.53572,-335.50504)">
    <rect
       style="opacity:0.003;fill:#ff2a7f;fill-opacity:1;stroke-width:2"
       id="rect848-3"
       width="22"
       height="22"
       x="246.53572"
       y="336.50504"
       ry="4.9089599e-06" />
    <path
       d="m 254.03572,339.50504 c -0.7158,0 -1.37486,0.21409 -1.92383,0.58008 l 0.73242,0.73242 c 0.35519,-0.19328 0.75704,-0.3125 1.19141,-0.3125 1.385,0 2.5,1.11499 2.5,2.5 v 1.50391 l 1,1 v -2.50391 c 0,-1.93901 -1.561,-3.5 -3.5,-3.5 z m -3.44922,3.04687 c -0.0214,0.14984 -0.048,0.29784 -0.0508,0.45313 v 0.5 4.5 c 0,1.93901 1.561,3.5 3.5,3.5 1.49447,0 2.75604,-0.93118 3.25977,-2.24414 l -0.80469,-0.80469 c -0.21155,1.16779 -1.22448,2.04883 -2.45508,2.04883 -1.385,0 -2.5,-1.11499 -2.5,-2.5 v -4.50391 z m -1.55078,4.95313 c -0.277,0 -0.5,0.22296 -0.5,0.5 0,2.8783 2.18919,5.22539 5,5.47656 v 2.02344 0.5 c 0,0.277 0.223,0.5 0.5,0.5 0.277,0 0.5,-0.22296 0.5,-0.5 v -2.52344 c 1.8288,-0.16342 3.38119,-1.22157 4.25195,-2.72851 l -0.74218,-0.74219 c -0.7371,1.47496 -2.24276,2.49414 -4.00977,2.49414 -2.493,0 -4.5,-2.00702 -4.5,-4.5 0,-0.277 -0.223,-0.5 -0.5,-0.5 z"
       id="rect1209-3-7-7-0-0"
       style="color:#31363b;fill:#ff2a7f;fill-opacity:1" />
    <path
       d="m 263.73885,341.8019 a 0.49999949,0.49999949 0 0 0 -0.38086,0.16602 0.49999949,0.49999949 0 0 0 0.0352,0.70508 c 1.31707,1.18797 2.14258,2.90598 2.14258,4.83203 0,1.67824 -0.62585,3.19657 -1.6582,4.3457 l 0.70703,0.70508 c 1.21215,-1.33182 1.95117,-3.10443 1.95117,-5.05078 0,-2.21244 -0.95308,-4.20358 -2.47266,-5.57422 a 0.49999949,0.49999949 0 0 0 -0.32421,-0.12891 z"
       style="color:#31363b;fill:#ff2a7f;fill-opacity:1"
       id="path2370-1" />
    <path
       d="m 261.95174,344.05581 a 0.49999949,0.49999949 0 0 0 -0.33789,0.12305 0.49999949,0.49999949 0 0 0 -0.0508,0.70508 c 0.60717,0.70105 0.97266,1.61272 0.97266,2.62109 0,0.85546 -0.27411,1.63249 -0.72461,2.2793 l 0.71289,0.71289 c 0.6264,-0.83576 1.01172,-1.86698 1.01172,-2.99219 0,-1.25164 -0.45789,-2.39913 -1.2168,-3.27539 a 0.49999949,0.49999949 0 0 0 -0.36718,-0.17383 z"
       style="color:#31363b;fill:#ff2a7f;fill-opacity:1"
       id="path2366-7" />
    <path
       id="path2421"
       d="m 250.01228,339.50504 c -0.12443,0.006 -0.24214,0.0582 -0.33008,0.14648 -0.19521,0.19526 -0.19521,0.51178 0,0.70704 l 15,15 c 0.19526,0.19521 0.51178,0.19521 0.70704,0 0.19521,-0.19526 0.19521,-0.51178 0,-0.70704 l -15,-15 c -0.0994,-0.0997 -0.23628,-0.15291 -0.37696,-0.14648 z"
       style="color:#31363b;fill:#ff2a7f;fill-opacity:1" />
    <path
       d="m 254.7357,356.50503 h 2.90127 c 0.33138,-0.002 0.59944,-0.37769 0.59873,-0.70907 -0.002,-0.33137 -0.26991,-0.69165 -0.60129,-0.69092 h -2.89871 v 0 h -0.7 -0.69999 v 0 h -2.90128 c -0.33138,0.002 -0.59944,0.37769 -0.59871,0.70906 0.002,0.33138 0.26994,0.69165 0.6013,0.69093 h 2.89869 v 0 h 0.69999 z"
       style="fill:#ff2a7f;fill-opacity:1;fill-rule:evenodd;stroke:none;stroke-width:0.400003"
       id="path2830-6"
       sodipodi:nodetypes="ccccccccccccccccc" />
  </g>
</svg>
