<?xml version="1.0" encoding="UTF-8" standalone="no"?>
<svg
   width="24"
   height="24"
   viewBox="0 0 24 24"
   version="1.1"
   id="svg1"
   sodipodi:docname="touchpad_enabled.svg"
   inkscape:version="1.3.2 (091e20ef0f, 2023-11-25)"
   xmlns:inkscape="http://www.inkscape.org/namespaces/inkscape"
   xmlns:sodipodi="http://sodipodi.sourceforge.net/DTD/sodipodi-0.dtd"
   xmlns="http://www.w3.org/2000/svg"
   xmlns:svg="http://www.w3.org/2000/svg">
  <defs
     id="defs1" />
  <sodipodi:namedview
     id="namedview1"
     pagecolor="#ffffff"
     bordercolor="#999999"
     borderopacity="1"
     inkscape:showpageshadow="2"
     inkscape:pageopacity="0"
     inkscape:pagecheckerboard="0"
     inkscape:deskcolor="#d1d1d1"
     inkscape:zoom="31.75"
     inkscape:cx="12"
     inkscape:cy="12"
     inkscape:window-width="1920"
     inkscape:window-height="994"
     inkscape:window-x="0"
     inkscape:window-y="0"
     inkscape:window-maximized="1"
     inkscape:current-layer="svg1" />
  <style
     type="text/css"
     id="current-color-scheme">.ColorScheme-Text{color:#31363b;}.ColorScheme-Background{color:#eff0f1;}.ColorScheme-Highlight{color:#3daee9;}.ColorScheme-ViewText{color:#31363b;}.ColorScheme-ViewBackground{color:#fcfcfc;}.ColorScheme-ViewHover{color:#93cee9;}.ColorScheme-ViewFocus{color:#3daee9;}.ColorScheme-ButtonText{color:#31363b;}.ColorScheme-ButtonBackground{color:#eff0f1;}.ColorScheme-ButtonHover{color:#93cee9;}.ColorScheme-ButtonFocus{color:#3daee9;}.ColorScheme-NegativeText { color: #da4453; } </style>
  <g
     id="22-22-touchpad_enabled"
     transform="translate(1,1)">
    <rect
       style="opacity:0.00100002"
       width="22"
       height="22"
       x="0"
       y="-2.5878907e-07"
       id="rect2" />
    <rect
       style="fill:#06a7f9;fill-opacity:1;stroke-width:0.560001;stroke-opacity:0.550265"
       height="8"
       rx="4"
       y="5.333334"
       x="6.999999"
       width="8"
       id="rect16-3" />
    <path
       style="fill:#d3dae3;fill-opacity:1;fill-rule:nonzero;stroke:none;stroke-width:8.50747;stroke-miterlimit:4;stroke-dasharray:none;stroke-opacity:1"
       d="m 10.956534,6.610281 c -0.537997,-0.0025 -0.9992741,0.09739 -1.4187461,0.307422 -0.1396506,0.06991 -0.161386,0.09444 -0.152346,0.169922 0.018493,0.154054 0.098009,0.169009 0.3335907,0.06328 0.4379714,-0.196548 0.6510774,-0.238463 1.2035154,-0.239063 0.634034,-5.14e-4 0.867523,0.05379 1.387501,0.323048 0.08934,0.0462 0.372171,0.264523 0.477741,0.147266 0.104549,-0.104543 0.0493,-0.191073 -0.219923,-0.344141 -0.530961,-0.30187 -0.994881,-0.424814 -1.611333,-0.427734 z m -0.01641,0.622656 C 10.230278,7.232397 9.5208722,7.512851 9.0006709,8.074733 8.7994242,8.292098 8.5647302,8.648367 8.5647302,8.736453 c 0,0.102706 0.042327,0.159378 0.1191414,0.159378 0.0602,0 0.12144,-0.06494 0.267188,-0.283985 C 9.2770209,8.121949 9.6996062,7.796957 10.24403,7.61731 c 0.422221,-0.137804 0.916651,-0.121854 1.391792,0 0.613499,0.201658 1.139814,0.650891 1.428132,1.219143 0.06275,0.123645 0.10026,0.161327 0.161714,0.161327 0.105833,0 0.167974,-0.07876 0.139065,-0.176563 C 13.318113,8.663465 13.069424,8.281232 12.881137,8.077857 12.360202,7.515186 11.64996,7.233473 10.940118,7.232937 Z m 0.03359,0.618357 c -0.151295,-0.0029 -0.304806,0.01167 -0.458205,0.04372 -0.7289198,0.152363 -1.3381784,0.742698 -1.5332044,1.485544 -0.103496,0.394209 -0.055907,1.038105 0.1148453,1.553125 0.05102,0.153912 0.075676,0.186012 0.1488247,0.194535 0.1681993,0.01955 0.1846293,-0.06049 0.083985,-0.408597 -0.287992,-0.996027 -0.04008,-1.84342 0.6742254,-2.305468 0.706179,-0.456816 1.677411,-0.321622 2.230079,0.310157 0.346324,0.395906 0.536279,1.065569 0.38515,1.357813 -0.09984,0.193064 -0.342906,0.309095 -0.542575,0.258985 C 11.930923,10.304518 11.75796,10.125171 11.73582,9.987591 11.65769,9.502094 11.547401,9.312097 11.268244,9.182123 c -0.238131,-0.110878 -0.436619,-0.107817 -0.67031,0.01057 -0.217746,0.110289 -0.384577,0.332899 -0.418366,0.558201 -0.01221,0.08119 -0.0068,0.256889 0.01214,0.390235 0.117799,0.830621 0.71208,1.487709 1.528121,1.689845 0.102629,0.02538 0.270425,0.04339 0.373051,0.03982 l 0.186718,-0.0061 c 0.105471,-0.05353 0.111246,-0.176757 0,-0.2375 l -0.26406,-0.04026 c -0.332363,-0.05067 -0.46999,-0.09443 -0.698443,-0.223045 -0.4968,-0.279673 -0.852729,-0.885945 -0.852729,-1.452342 0,-0.249604 0.0945,-0.395406 0.31484,-0.486719 0.15921,-0.06599 0.16149,-0.06599 0.3207,0 0.201495,0.0835 0.298478,0.223252 0.323438,0.465234 0.04584,0.444096 0.354016,0.736328 0.776562,0.736328 0.339116,0 0.62456,-0.220062 0.725788,-0.559376 0.09907,-0.332072 -0.03397,-0.889822 -0.313282,-1.314063 -0.370228,-0.562232 -0.98306,-0.890171 -1.63868,-0.90156 z m -0.02191,0.643361 c -0.211152,0.003 -0.428294,0.04164 -0.606255,0.110941 C 10.07116,8.739979 9.8096989,9.008351 9.6744575,9.293873 9.5715442,9.51113 9.5654089,9.544964 9.5654702,9.913796 c 7.6e-5,0.453781 0.05496,0.694841 0.250392,1.102348 0.1683773,0.351134 0.4016478,0.657383 0.6609408,0.867186 0.224746,0.181857 0.248626,0.190683 0.342184,0.122268 0.09579,-0.07004 0.04234,-0.190305 -0.151171,-0.338675 -0.209837,-0.160871 -0.436478,-0.451866 -0.589454,-0.75703 C 9.8270935,10.408653 9.7637882,9.789155 9.9275822,9.434499 10.046457,9.177107 10.227719,8.985105 10.45883,8.871613 c 0.277673,-0.136364 0.683268,-0.136364 0.960944,0 0.33142,0.162747 0.543327,0.459101 0.618357,0.86562 0.04477,0.242663 0.11258,0.323322 0.216017,0.256641 0.04791,-0.03086 0.05836,-0.08238 0.05395,-0.267186 -0.01082,-0.449246 -0.3256,-0.900302 -0.785558,-1.126175 -0.1544,-0.07513 -0.359544,-0.108525 -0.570699,-0.105858 z"
       id="path20-6" />
    <path
       style="fill:#d3dae3;fill-opacity:1;fill-rule:nonzero;stroke:none;stroke-width:8.50747;stroke-miterlimit:4;stroke-dasharray:none;stroke-opacity:1"
       d="m 11.88938,11.22436 c -0.579727,-0.126457 -1.026559,-0.637227 -1.076725,-1.230781 -0.01584,-0.187593 -0.01034,-0.212385 0.05461,-0.247158 0.123739,-0.06622 0.195254,0.0037 0.22,0.213868 0.06223,0.529484 0.451339,0.928818 0.974794,1.000402 0.2561,0.035 0.338467,0.133351 0.215071,0.25675 -0.06179,0.06179 -0.130595,0.063 -0.387724,0.0069 z"
       id="path22-7" />
    <path
       style="fill:#06a7f9;fill-opacity:1;stroke-width:1.14286"
       class="ColorScheme-Text"
       d="m 4,15.000015 v 1 h 14 v -1 z"
       fill-rule="evenodd"
       id="path60-5"
       sodipodi:nodetypes="ccccc" />
    <path
       style="fill:#06a7f9;fill-opacity:1;stroke-width:1.14286"
       class="ColorScheme-Text"
       d="m 10,16.000015 v 2 h 2 v -2 z"
       fill-rule="evenodd"
       id="path62-3"
       sodipodi:nodetypes="ccccc" />
    <path
       d="M 17.367351,3 H 4.63267 C 3.7347107,3 3,3.6 3,4.333333 V 17.666665 C 3,18.4 3.7347107,19 4.63267,19 H 17.367351 C 18.265311,19 19,18.4 19,17.666665 V 4.333333 C 19,3.6 18.265311,3 17.367351,3 Z M 18,17.567015 c 0,0 0,0.433 -0.632649,0.433 H 4.63267 C 4,18.000015 4,17.567015 4,17.567015 v -13.134 c 0,0 0,-0.433 0.633,-0.433 H 17.367351 C 18,4.000015 18,4.433015 18,4.433015 Z"
       id="path2-5"
       style="fill:#06a7f9;fill-opacity:1;stroke-width:0.368855"
       sodipodi:nodetypes="ssssssssscssccsscc" />
  </g>
</svg>
