<?xml version="1.0" encoding="UTF-8" standalone="no"?>
<svg
   version="1.1"
   viewBox="0 0 22 22"
   id="svg11"
   sodipodi:docname="brightness-low.svg"
   inkscape:version="1.3.2 (091e20ef0f, 2023-11-25)"
   xmlns:inkscape="http://www.inkscape.org/namespaces/inkscape"
   xmlns:sodipodi="http://sodipodi.sourceforge.net/DTD/sodipodi-0.dtd"
   xmlns="http://www.w3.org/2000/svg"
   xmlns:svg="http://www.w3.org/2000/svg">
  <sodipodi:namedview
     id="namedview11"
     pagecolor="#ffffff"
     bordercolor="#999999"
     borderopacity="1"
     inkscape:showpageshadow="2"
     inkscape:pageopacity="0"
     inkscape:pagecheckerboard="0"
     inkscape:deskcolor="#d1d1d1"
     inkscape:zoom="17.318182"
     inkscape:cx="10.971128"
     inkscape:cy="14.666667"
     inkscape:window-width="1920"
     inkscape:window-height="994"
     inkscape:window-x="0"
     inkscape:window-y="0"
     inkscape:window-maximized="1"
     inkscape:current-layer="svg11" />
  <defs
     id="defs1">
    <style
       id="current-color-scheme"
       type="text/css">.ColorScheme-Text { color: #fcfcfc; } </style>
  </defs>
  <g
     shape-rendering="auto"
     id="g11"
     style="fill:#00ccff;fill-opacity:1">
    <path
       d="m11 7c-2.2032167 0-4 1.7967833-4 4 0 2.203217 1.7967833 4 4 4 2.203217 0 4-1.796783 4-4 0-2.2032167-1.796783-4-4-4zm0 1c1.662777 0 3 1.3372234 3 3 0 1.662777-1.337223 3-3 3-1.6627766 0-3-1.337223-3-3 0-1.6627766 1.3372234-3 3-3z"
       color-rendering="auto"
       dominant-baseline="auto"
       image-rendering="auto"
       id="path1"
       style="fill:#00ccff;fill-opacity:1" />
    <path
       d="m10.5 5v1h1v-1z"
       color-rendering="auto"
       dominant-baseline="auto"
       image-rendering="auto"
       id="path2"
       style="fill:#00ccff;fill-opacity:1" />
    <path
       d="m10.5 16v1h1v-1z"
       color-rendering="auto"
       dominant-baseline="auto"
       image-rendering="auto"
       id="path3"
       style="fill:#00ccff;fill-opacity:1" />
    <path
       d="m5 10.5v1h1v-1z"
       color-rendering="auto"
       dominant-baseline="auto"
       image-rendering="auto"
       id="path4"
       style="fill:#00ccff;fill-opacity:1" />
    <path
       d="m16 10.5v1h1v-1z"
       color-rendering="auto"
       dominant-baseline="auto"
       image-rendering="auto"
       id="path5"
       style="fill:#00ccff;fill-opacity:1" />
    <g
       id="g7"
       style="fill:#00ccff;fill-opacity:1">
      <path
         d="m11.000001 7.7500005v6.4999985h2.166665l1.083333-2.166666v-2.1666663l-1.083333-2.1666662z"
         color-rendering="auto"
         dominant-baseline="auto"
         image-rendering="auto"
         id="path6"
         style="fill:#00ccff;fill-opacity:1" />
      <path
         d="m10.984375 7.734375v0.015625 6.515625h2.191406l1.089844-2.177734v-2.1757816l-1.089844-2.1777344h-2.191406zm0.03125 0.03125h2.140625l1.078125 2.1542969v2.1601561l-1.078125 2.154297h-2.140625v-6.46875z"
         class="ColorScheme-Text"
         fill="currentColor"
         color-rendering="auto"
         dominant-baseline="auto"
         image-rendering="auto"
         id="path7"
         style="fill:#00ccff;fill-opacity:1" />
    </g>
    <path
       d="m14.807107 14.1-0.707107 0.707107 0.707107 0.707107 0.707107-0.707107z"
       color-rendering="auto"
       dominant-baseline="auto"
       image-rendering="auto"
       id="path8"
       style="fill:#00ccff;fill-opacity:1" />
    <path
       d="m7.207107 14.1-0.707107 0.707107 0.707107 0.707107 0.707107-0.707107z"
       color-rendering="auto"
       dominant-baseline="auto"
       image-rendering="auto"
       id="path9"
       style="fill:#00ccff;fill-opacity:1" />
    <path
       d="m14.807107 6.5-0.707107 0.707107 0.707107 0.707107 0.707107-0.707107z"
       color-rendering="auto"
       dominant-baseline="auto"
       image-rendering="auto"
       id="path10"
       style="fill:#00ccff;fill-opacity:1" />
    <path
       d="M 7.207107,6.5 6.5,7.207107 7.207107,7.914214 7.914214,7.207107 Z"
       color-rendering="auto"
       dominant-baseline="auto"
       image-rendering="auto"
       id="path11"
       style="fill:#00ccff;fill-opacity:1" />
  </g>
</svg>
