<?xml version="1.0" encoding="UTF-8" standalone="no"?>
<svg
   version="1.1"
   viewBox="0 0 22 22"
   id="svg12"
   sodipodi:docname="brightness-high.svg"
   inkscape:version="1.3.2 (091e20ef0f, 2023-11-25)"
   xmlns:inkscape="http://www.inkscape.org/namespaces/inkscape"
   xmlns:sodipodi="http://sodipodi.sourceforge.net/DTD/sodipodi-0.dtd"
   xmlns="http://www.w3.org/2000/svg"
   xmlns:svg="http://www.w3.org/2000/svg">
  <sodipodi:namedview
     id="namedview12"
     pagecolor="#ffffff"
     bordercolor="#999999"
     borderopacity="1"
     inkscape:showpageshadow="2"
     inkscape:pageopacity="0"
     inkscape:pagecheckerboard="0"
     inkscape:deskcolor="#d1d1d1"
     inkscape:zoom="34.636364"
     inkscape:cx="11"
     inkscape:cy="11"
     inkscape:window-width="1920"
     inkscape:window-height="994"
     inkscape:window-x="0"
     inkscape:window-y="0"
     inkscape:window-maximized="1"
     inkscape:current-layer="svg12" />
  <defs
     id="defs1">
    <style
       id="current-color-scheme"
       type="text/css">.ColorScheme-Text { color: #fcfcfc; } </style>
  </defs>
  <g
     shape-rendering="auto"
     id="g12"
     style="fill:#ffd42a;fill-opacity:1">
    <path
       d="m11 7c-2.2032167 0-4 1.7967833-4 4 0 2.203217 1.7967833 4 4 4 2.203217 0 4-1.796783 4-4 0-2.2032167-1.796783-4-4-4zm0 1c1.662777 0 3 1.3372234 3 3 0 1.662777-1.337223 3-3 3-1.6627766 0-3-1.337223-3-3 0-1.6627766 1.3372234-3 3-3z"
       color-rendering="auto"
       dominant-baseline="auto"
       image-rendering="auto"
       id="path1"
       style="fill:#ffd42a;fill-opacity:1" />
    <path
       d="m10.5 3v3h1v-3h-1z"
       color-rendering="auto"
       dominant-baseline="auto"
       image-rendering="auto"
       id="path2"
       style="fill:#ffd42a;fill-opacity:1" />
    <path
       d="m10.5 16v3h1v-3h-1z"
       color-rendering="auto"
       dominant-baseline="auto"
       image-rendering="auto"
       id="path3"
       style="fill:#ffd42a;fill-opacity:1" />
    <path
       d="m3 10.5v1h3v-1h-3z"
       class="ColorScheme-Text"
       color-rendering="auto"
       dominant-baseline="auto"
       image-rendering="auto"
       id="path4"
       style="fill:#ffd42a;fill-opacity:1" />
    <path
       d="m16 10.5v1h3v-1h-3z"
       color-rendering="auto"
       dominant-baseline="auto"
       image-rendering="auto"
       id="path5"
       style="fill:#ffd42a;fill-opacity:1" />
    <path
       d="m14.707031 14-0.707031 0.707031 2.121094 2.121094 0.707031-0.707031-2.121094-2.121094z"
       color-rendering="auto"
       dominant-baseline="auto"
       image-rendering="auto"
       id="path6"
       style="fill:#ffd42a;fill-opacity:1" />
    <path
       d="M 5.7070312 5 L 5 5.7070312 L 7.1210938 7.828125 L 7.828125 7.1210938 L 5.7070312 5 z "
       color-rendering="auto"
       dominant-baseline="auto"
       image-rendering="auto"
       id="path7"
       style="fill:#ffd42a;fill-opacity:1" />
    <path
       d="M 7.1210938 14 L 5 16.121094 L 5.7070312 16.828125 L 7.828125 14.707031 L 7.1210938 14 z "
       color-rendering="auto"
       dominant-baseline="auto"
       image-rendering="auto"
       id="path8"
       style="fill:#ffd42a;fill-opacity:1" />
    <path
       d="M 16.121094 5 L 14 7.1210938 L 14.707031 7.828125 L 16.828125 5.7070312 L 16.121094 5 z "
       color-rendering="auto"
       dominant-baseline="auto"
       image-rendering="auto"
       id="path9"
       style="fill:#ffd42a;fill-opacity:1" />
    <g
       id="g11"
       style="fill:#ffd42a;fill-opacity:1">
      <path
         d="m11.000001 7.7500005v6.4999985h2.166665l1.083333-2.166666v-2.1666663l-1.083333-2.1666662z"
         color-rendering="auto"
         dominant-baseline="auto"
         image-rendering="auto"
         id="path10"
         style="fill:#ffd42a;fill-opacity:1" />
      <path
         d="m10.984375 7.734375v0.015625 6.515625h2.191406l1.089844-2.177734v-2.1757816l-1.089844-2.1777344h-2.191406zm0.03125 0.03125h2.140625l1.078125 2.1542969v2.1601561l-1.078125 2.154297h-2.140625v-6.46875z"
         class="ColorScheme-Text"
         fill="currentColor"
         color-rendering="auto"
         dominant-baseline="auto"
         image-rendering="auto"
         id="path11"
         style="fill:#ffd42a;fill-opacity:1" />
    </g>
  </g>
</svg>
