<?xml version="1.0" encoding="UTF-8" standalone="no"?>
<svg
   viewBox="0 0 22 22"
   version="1.1"
   id="svg1"
   sodipodi:docname="contrast.svg"
   inkscape:version="1.3.2 (091e20ef0f, 2023-11-25)"
   xmlns:inkscape="http://www.inkscape.org/namespaces/inkscape"
   xmlns:sodipodi="http://sodipodi.sourceforge.net/DTD/sodipodi-0.dtd"
   xmlns="http://www.w3.org/2000/svg"
   xmlns:svg="http://www.w3.org/2000/svg">
  <sodipodi:namedview
     id="namedview1"
     pagecolor="#ffffff"
     bordercolor="#999999"
     borderopacity="1"
     inkscape:showpageshadow="2"
     inkscape:pageopacity="0"
     inkscape:pagecheckerboard="0"
     inkscape:deskcolor="#d1d1d1"
     inkscape:zoom="34.636364"
     inkscape:cx="11"
     inkscape:cy="11"
     inkscape:window-width="1920"
     inkscape:window-height="994"
     inkscape:window-x="0"
     inkscape:window-y="0"
     inkscape:window-maximized="1"
     inkscape:current-layer="svg1" />
  <defs
     id="defs3051">
    <style
       type="text/css"
       id="current-color-scheme">.ColorScheme-Text { color: #fcfcfc; } </style>
  </defs>
  <path
     transform="translate(-1-1)"
     d="m11.5 4v1.8125h1v-1.8125h-1m-4.8125 1.96875l-.71875.71875 1.28125 1.3125.71875-.75-1.28125-1.28125m10.625 0l-1.28125 1.28125.71875.75 1.28125-1.3125-.71875-.71875m-5.3125 1.03125c-2.761424 0-5 2.2386-5 5 0 2.7614 2.238576 5 5 5 2.761424 0 5-2.2386 5-5 0-2.7614-2.238576-5-5-5zm0 1v8c-2.209139 0-4-1.7909-4-4 0-2.2091 1.790861-4 4-4m-8 3.5v1h1.8125v-1h-1.8125m14.1875 0v1h1.8125v-1h-1.8125zm-10.9375 4.53125l-1.28125 1.28125.71875.71875 1.28125-1.28125-.71875-.71875m9.5 0l-.71875.71875 1.28125 1.28125.71875-.71875-1.28125-1.28125m-5.25 2.15625v1.8125h1v-1.8125h-1z"
     id="path1"
     style="fill:#ffd42a;fill-opacity:1" />
</svg>
