<?xml version="1.0" encoding="UTF-8" standalone="no"?>
<svg
   viewBox="0 0 22 22"
   version="1.1"
   id="svg1"
   sodipodi:docname="document-print.svg"
   width="22"
   height="22"
   inkscape:version="1.3.2 (091e20ef0f, 2023-11-25)"
   xmlns:inkscape="http://www.inkscape.org/namespaces/inkscape"
   xmlns:sodipodi="http://sodipodi.sourceforge.net/DTD/sodipodi-0.dtd"
   xmlns:xlink="http://www.w3.org/1999/xlink"
   xmlns="http://www.w3.org/2000/svg"
   xmlns:svg="http://www.w3.org/2000/svg">
  <sodipodi:namedview
     id="namedview1"
     pagecolor="#ffffff"
     bordercolor="#000000"
     borderopacity="0.25"
     inkscape:showpageshadow="2"
     inkscape:pageopacity="0.0"
     inkscape:pagecheckerboard="0"
     inkscape:deskcolor="#d1d1d1"
     inkscape:zoom="17.340909"
     inkscape:cx="11.158585"
     inkscape:cy="9.3709043"
     inkscape:window-width="1920"
     inkscape:window-height="1002"
     inkscape:window-x="0"
     inkscape:window-y="0"
     inkscape:window-maximized="1"
     inkscape:current-layer="svg1" />
  <defs
     id="defs3051">
    <style
       type="text/css"
       id="current-color-scheme">.ColorScheme-Text { color: #fcfcfc; } </style>
    <linearGradient
       inkscape:collect="always"
       xlink:href="#linearGradient1"
       id="linearGradient4"
       x1="4"
       y1="18"
       x2="18"
       y2="4"
       gradientUnits="userSpaceOnUse" />
    <linearGradient
       id="linearGradient1"
       inkscape:collect="always">
      <stop
         style="stop-color:#d42aff;stop-opacity:1"
         offset="0"
         id="stop1" />
      <stop
         style="stop-color:#9955ff;stop-opacity:1"
         offset="1"
         id="stop2" />
    </linearGradient>
  </defs>
  <g
     id="22-22-printer"
     style="fill:#d1d5e9;fill-opacity:1">
    <rect
       style="opacity:0.00100002;fill:#d1d5e9;fill-opacity:1"
       width="22"
       height="22"
       x="0"
       y="0"
       id="rect2" />
    <path
       d="M 16,7 V 7 4.043529 C 16,3.766816 15.991902,3.501389 15.793791,3.305707 15.595807,3.110031 15.327233,3 15.047261,3 H 6.917667 C 6.637687,3 6.369125,3.110031 6.171136,3.305707 5.973025,3.501383 6.01353,3.767153 6,4.043529 V 7 H 5 C 4.4836239,7 4,7.4800138 4,8 v 6 0 c 0,0.652744 0.5147554,1 1,1 h 1 v 3 0 c 0,0.685036 0.4918816,1 1,1 h 8 v 0 c 0.532504,0 1,-0.442608 0.984139,-0.974771 L 16,15 h 1 v 0 c 0.598144,0 1,-0.354045 1,-1 V 8 C 18,7.5091472 17.614599,7 17,7 Z M 7,5 C 7,4 7,4 8,4 h 6 c 1,0 1,0 1,1 V 5 7 H 7 Z m 8,12 v 1 0 H 7 v 0 L 6.9687709,11.985555 15,12 Z m 2,-3 h -1 v -2 c 0,-0.561228 -0.41548,-1 -1,-1 v 0 H 7 c -0.5216938,0 -1,0 -1,1 v 2 H 5 V 8 h 12 z"
       id="path64-3-5"
       style="color:#d1d5e9;fill:url(#linearGradient4);fill-opacity:1;stroke-width:0.0312385"
       sodipodi:nodetypes="ccscsscscccccccccccccccccccccccccccccccccscccccccccscccc"
       class="ColorScheme-Text" />
    <circle
       cx="15.25"
       cy="9.4499989"
       style="color:#d1d5e9;fill:#b380ff;fill-opacity:1;stroke-width:2.50002;stroke-linecap:round;stroke-linejoin:round"
       id="path4292-3-6-2"
       inkscape:transform-center-x="2.972086"
       inkscape:transform-center-y="0.3953789"
       r="1.25"
       class="ColorScheme-Text" />
  </g>
</svg>
