<?xml version="1.0" encoding="UTF-8" standalone="no"?>
<svg
   viewBox="0 0 22 22"
   version="1.1"
   id="svg1"
   sodipodi:docname="system-search.svg"
   inkscape:version="1.3.2 (091e20ef0f, 2023-11-25)"
   width="22"
   height="22"
   xmlns:inkscape="http://www.inkscape.org/namespaces/inkscape"
   xmlns:sodipodi="http://sodipodi.sourceforge.net/DTD/sodipodi-0.dtd"
   xmlns="http://www.w3.org/2000/svg"
   xmlns:svg="http://www.w3.org/2000/svg">
  <sodipodi:namedview
     id="namedview1"
     pagecolor="#ffffff"
     bordercolor="#000000"
     borderopacity="0.25"
     inkscape:showpageshadow="2"
     inkscape:pageopacity="0.0"
     inkscape:pagecheckerboard="0"
     inkscape:deskcolor="#d1d1d1"
     inkscape:zoom="11.984375"
     inkscape:cx="9.095176"
     inkscape:cy="-0.37548892"
     inkscape:window-width="1920"
     inkscape:window-height="994"
     inkscape:window-x="0"
     inkscape:window-y="0"
     inkscape:window-maximized="1"
     inkscape:current-layer="svg1" />
  <defs
     id="defs1">
    <style
       type="text/css"
       id="style1">.ColorScheme-Text {
        color:#d8dee9;
      }</style>
  </defs>
  <path
     d="m 13.822954,1.0000568 c -3.96408,3.85e-4 -7.1767508,3.212898 -7.1771388,7.176708 1.6e-4,1.74695 0.625461,3.3468552 1.6628599,4.5912652 l -1.4723409,1.472279 c -0.006,0.0056 -0.0076,0.01252 -0.01238,0.01848 -0.726631,-0.343569 -1.616402,-0.233569 -2.215846,0.365769 l -3.035538,3.034171 c -0.76333297,0.763308 -0.76333297,2.004448 0,2.767725 0.764764,0.764728 2.003112,0.764728 2.767866,0 l 3.035562,-3.034137 c 0.601004,-0.600977 0.710706,-1.490509 0.365174,-2.217378 0.0059,-0.0053 0.01213,-0.006 0.01778,-0.01216 l 1.4723495,-1.472175 c 1.2444763,1.037296 2.8444873,1.662537 4.5915333,1.662688 3.964074,-3.99e-4 7.176706,-3.212889 7.177095,-7.1766402 -3.49e-4,-3.963769 -3.212994,-7.176266 -7.177054,-7.176652 z m 0,11.7436532 c -2.520339,-10e-4 -4.5660573,-2.046793 -4.5672749,-4.5669132 0.0018,-2.520193 2.0468999,-4.565878 4.5672749,-4.56702 2.520323,0.0014 4.56605,2.046795 4.567257,4.56702 -0.0015,2.5201202 -2.046934,4.5657362 -4.567257,4.5669132 z"
     id="path2-3-6"
     style="fill:#00ccff;fill-opacity:1;stroke-width:0.0390632" />
</svg>
