<?xml version="1.0" encoding="UTF-8" standalone="no"?>
<svg
   viewBox="0 0 22 22"
   version="1.1"
   id="svg1"
   sodipodi:docname="system-log-out.svg"
   inkscape:version="1.3.1 (91b66b0783, 2023-11-16)"
   xmlns:inkscape="http://www.inkscape.org/namespaces/inkscape"
   xmlns:sodipodi="http://sodipodi.sourceforge.net/DTD/sodipodi-0.dtd"
   xmlns:xlink="http://www.w3.org/1999/xlink"
   xmlns="http://www.w3.org/2000/svg"
   xmlns:svg="http://www.w3.org/2000/svg">
  <sodipodi:namedview
     id="namedview1"
     pagecolor="#ffffff"
     bordercolor="#000000"
     borderopacity="0.25"
     inkscape:showpageshadow="2"
     inkscape:pageopacity="0.0"
     inkscape:pagecheckerboard="0"
     inkscape:deskcolor="#d1d1d1"
     inkscape:zoom="12.326157"
     inkscape:cx="11.520217"
     inkscape:cy="-4.0969786"
     inkscape:window-width="1920"
     inkscape:window-height="994"
     inkscape:window-x="0"
     inkscape:window-y="0"
     inkscape:window-maximized="1"
     inkscape:current-layer="svg1" />
  <defs
     id="defs1">
    <linearGradient
       id="linearGradient1"
       inkscape:collect="always">
      <stop
         style="stop-color:#ff00ff;stop-opacity:1"
         offset="0"
         id="stop1" />
      <stop
         style="stop-color:#ffdd55;stop-opacity:1"
         offset="1"
         id="stop2" />
    </linearGradient>
    <style
       type="text/css"
       id="style1">.ColorScheme-Text {
        color:#d8dee9;
      }</style>
    <linearGradient
       inkscape:collect="always"
       xlink:href="#linearGradient1"
       id="linearGradient2"
       x1="3"
       y1="11"
       x2="19"
       y2="11"
       gradientUnits="userSpaceOnUse"
       gradientTransform="translate(-25.230898,-26.52895)" />
  </defs>
  <path
     d="m -14.230898,-23.52895 c -4.432,0 -8,3.568 -8,8 0,4.432 3.568,7.9999996 8,7.9999996 4.4320003,0 8.0000003,-3.5679996 8.0000003,-7.9999996 0,-4.432 -3.568,-8 -8.0000003,-8 z m 0,1 c 3.878,0 7.0000003,3.122 7.0000003,7 0,3.878 -3.1220003,6.9999996 -7.0000003,6.9999996 -3.878,0 -7,-3.1219996 -7,-6.9999996 0,-3.878 3.122,-7 7,-7 z m 1.293,3 -4,4 4,4 0.70703,-0.70703 -3.293,-3.293 3.293,-3.293 -0.70703,-0.70703 z"
     id="path1"
     style="fill:url(#linearGradient2)" />
  <path
     d="m 17.499895,-29.116008 c -2e-4,0.01961 -0.002,0.03917 -0.005,0.05859 l -1.08178,7.033456 c -0.0469,0.3114 -0.42904,0.435908 -0.65047,0.211948 l -1.3526,-1.352758 -4.32752,4.328742 c -0.44825,0.448046 -1.17487,0.448046 -1.62312,0 l -1.62281,-1.623628 c -0.44812,-0.448174 -0.44812,-1.174668 0,-1.622844 l 4.32908,-4.328342 -1.35297,-1.352367 c -0.224,-0.22152 -0.0992,-0.603704 0.21241,-0.650372 l 7.03461,-1.081886 c 0.23171,-0.03562 0.44069,0.143575 0.44078,0.377972 z m -1.72986,6.229326 0.88808,-5.771776 -5.77079,0.889461 5.77079,-0.889461 v 0 0 0 0 0 0 0 z"
     id="path8"
     style="fill:#b380ff;fill-opacity:1;stroke-width:0.3826"
     sodipodi:nodetypes="ccccccccccccccccccccccccccc" />
  <path
     d="m 3.508585,-32.474547 c -4.716389,4.719382 -4.677799,12.422554 0.11576,17.093091 4.46497,4.350407 11.66013,4.52822 16.32006,0.387626 4.08307,-3.628021 5.16669,-9.408252 2.86959,-14.181245 -0.2757,-0.572846 -0.99745,-0.769523 -1.54059,-0.439586 -0.48697,0.295855 -0.65157,0.910669 -0.40676,1.425426 1.89268,3.979621 0.92154,8.803616 -2.58402,11.747197 -3.55572,2.985735 -8.83131,3.035964 -12.44027,0.114873 -4.60278,-3.725495 -4.866519,-10.525964 -0.79119,-14.60386 2.97001,-2.971905 7.42992,-3.705322 11.14985,-1.930402 0.51137,0.243975 1.12247,0.07613 1.41648,-0.408462 l 0.002,-0.0032 c 0.32875,-0.541829 0.13528,-1.262562 -0.43531,-1.537847 -4.55661,-2.198173 -10.03295,-1.308474 -13.67557,2.336442 z"
     id="path1-0-9"
     style="fill:#b380ff;fill-opacity:1;stroke-width:0.436438" />
  <path
     d="m 15.294485,6.9966819 c -1.5e-4,0.01517 -10e-4,0.0303 -0.004,0.04526 l -0.84551,5.4349921 c -0.0367,0.240627 -0.33521,0.336835 -0.50822,0.163778 l -1.05675,-1.045319 -3.3811599,3.344963 c -0.35022,0.346217 -0.91793,0.346217 -1.26816,0 l -1.2681,-1.254617 c -0.35012,-0.346322 -0.35012,-0.907711 0,-1.254033 L 10.345085,9.0870489 9.2879751,8.0420259 c -0.17504,-0.171178 -0.0775,-0.4665 0.16593,-0.50256 l 5.4962499,-0.836013 c 0.18104,-0.02753 0.34432,0.110947 0.34439,0.292071 z m -0.6577,0.353564 z"
     id="path8-2"
     style="fill:#b380ff;fill-opacity:1;stroke-width:0.297285"
     sodipodi:nodetypes="ccccccccccccccccccc" />
  <path
     d="m 3.9238151,3.9378959 c -3.93032303,3.932814 -3.89817003,10.3521181 0.0965,14.2442241 3.7208,3.625341 9.7167599,3.77352 13.6000299,0.323024 3.40255,-3.023347 4.30557,-7.840201 2.39132,-11.8176911 -0.22975,-0.477371 -0.8312,-0.641268 -1.28382,-0.366321 -0.40581,0.246545 -0.54298,0.75889 -0.33897,1.187854 1.57723,3.3163471 0.76795,7.3363371 -2.15334,9.7893261 -2.9631,2.488105 -7.3594199,2.529961 -10.3668799,0.09573 -3.83566,-3.10458 -4.05544,-8.7716321 -0.65933,-12.1698751 2.475,-2.476585 6.1915999,-3.087765 9.2915299,-1.608667 0.42614,0.203313 0.93539,0.06344 1.1804,-0.340384 l 0.002,-0.0027 c 0.27393,-0.45153 0.11271,-1.05214 -0.36279,-1.281544 C 11.523305,0.15906594 6.9596851,0.90048094 3.9241751,3.9379079 Z"
     id="path1-0-9-9-6-1"
     style="fill:#b380ff;fill-opacity:1;stroke-width:0.363699" />
</svg>
