<?xml version="1.0" encoding="UTF-8" standalone="no"?>
<svg
   width="24"
   height="24"
   version="1.1"
   id="svg2"
   sodipodi:docname="notification-disabled.svg"
   inkscape:version="1.3.2 (091e20ef0f, 2023-11-25)"
   xmlns:inkscape="http://www.inkscape.org/namespaces/inkscape"
   xmlns:sodipodi="http://sodipodi.sourceforge.net/DTD/sodipodi-0.dtd"
   xmlns:xlink="http://www.w3.org/1999/xlink"
   xmlns="http://www.w3.org/2000/svg"
   xmlns:svg="http://www.w3.org/2000/svg">
  <defs
     id="defs2">
    <linearGradient
       inkscape:collect="always"
       xlink:href="#linearGradient3"
       id="linearGradient4"
       x1="208.82494"
       y1="670.24695"
       x2="232.84207"
       y2="646.24548"
       gradientUnits="userSpaceOnUse"
       gradientTransform="matrix(0.74946514,0,0,0.75003967,-153.50701,-481.70971)" />
    <linearGradient
       id="linearGradient3"
       inkscape:collect="always">
      <stop
         style="stop-color:#c83771;stop-opacity:1"
         offset="0"
         id="stop3" />
      <stop
         style="stop-color:#de87aa;stop-opacity:1"
         offset="1"
         id="stop4" />
    </linearGradient>
  </defs>
  <sodipodi:namedview
     id="namedview2"
     pagecolor="#ffffff"
     bordercolor="#000000"
     borderopacity="0.25"
     inkscape:showpageshadow="2"
     inkscape:pageopacity="0.0"
     inkscape:pagecheckerboard="0"
     inkscape:deskcolor="#d1d1d1"
     inkscape:zoom="8.715909"
     inkscape:cx="2.52412"
     inkscape:cy="17.324642"
     inkscape:window-width="1920"
     inkscape:window-height="994"
     inkscape:window-x="0"
     inkscape:window-y="0"
     inkscape:window-maximized="1"
     inkscape:current-layer="svg2" />
  <style
     type="text/css"
     id="style1">.ColorScheme-Text {
            color:#d8dee9;
        }
        .ColorScheme-NegativeText {
            color:#bf616a;
        }</style>
  <path
     id="Path_164-5"
     data-name="Path 164"
     d="M 20.094671,15.038751 18.374528,13.891184 A 1.686394,1.6876869 0 0 1 17.621279,12.484861 V 9.7505924 a 5.621315,5.6256242 0 0 0 -3.495309,-5.2014533 2.2339104,2.2356229 0 0 0 -4.2519727,0 5.621315,5.6256242 0 0 0 -3.4953179,5.2014533 v 2.7342686 a 1.686394,1.6876869 0 0 1 -0.7510016,1.404075 l -1.7223835,1.149815 a 2.0236735,2.0252249 0 0 0 1.12428,3.713068 h 4.7219004 a 2.2485265,2.2502501 0 0 0 4.4970513,0 h 4.721903 a 2.0236735,2.0252249 0 0 0 1.124277,-3.713068 z M 18.97039,17.626385 H 5.0295444 A 0.89941013,0.90009963 0 0 1 4.5303629,15.972549 L 6.2516223,14.824987 A 2.8106574,2.812812 0 0 0 7.5029294,12.484861 V 9.7505924 a 4.4970541,4.5005016 0 0 1 8.9941076,0 v 2.7342686 a 2.8106574,2.812812 0 0 0 1.251304,2.340126 l 1.722386,1.148687 a 0.89941013,0.90009963 0 0 1 -0.500337,1.652711 z m -6.970433,2.250118 a 1.1242632,1.1251251 0 0 1 -1.124269,-1.125059 h 2.248506 a 1.1242632,1.1251251 0 0 1 -1.124271,1.125059 z m 0.56214,-12.9389354 a 0.56213147,0.56256239 0 0 1 -0.56214,0.5625308 2.2485256,2.2502492 0 0 0 -2.2484975,2.2501195 0.56214008,0.56257102 0 0 1 -1.12428,0 3.3727889,3.3753745 0 0 1 3.3727775,-3.3751803 0.56213147,0.56256239 0 0 1 0.56214,0.56253 z"
     style="fill:url(#linearGradient4);fill-opacity:1;stroke-width:1.12472" />
</svg>
