<?xml version="1.0" encoding="UTF-8" standalone="no"?>
<svg
   width="24"
   height="24"
   version="1.1"
   id="svg3"
   sodipodi:docname="notification-active.svg"
   inkscape:version="1.3.2 (091e20ef0f, 2023-11-25)"
   xmlns:inkscape="http://www.inkscape.org/namespaces/inkscape"
   xmlns:sodipodi="http://sodipodi.sourceforge.net/DTD/sodipodi-0.dtd"
   xmlns:xlink="http://www.w3.org/1999/xlink"
   xmlns="http://www.w3.org/2000/svg"
   xmlns:svg="http://www.w3.org/2000/svg">
  <defs
     id="defs3">
    <linearGradient
       inkscape:collect="always"
       xlink:href="#linearGradient5"
       id="linearGradient6"
       x1="208.8199"
       y1="750.24695"
       x2="232.84711"
       y2="726.24548"
       gradientUnits="userSpaceOnUse"
       gradientTransform="matrix(0.74915073,0,0,0.74995394,-153.43755,-541.65068)" />
    <linearGradient
       id="linearGradient5"
       inkscape:collect="always">
      <stop
         style="stop-color:#00ccff;stop-opacity:1;"
         offset="0"
         id="stop5" />
      <stop
         style="stop-color:#007a98;stop-opacity:1;"
         offset="1"
         id="stop6" />
    </linearGradient>
  </defs>
  <sodipodi:namedview
     id="namedview3"
     pagecolor="#ffffff"
     bordercolor="#000000"
     borderopacity="0.25"
     inkscape:showpageshadow="2"
     inkscape:pageopacity="0.0"
     inkscape:pagecheckerboard="0"
     inkscape:deskcolor="#d1d1d1"
     inkscape:zoom="12.326157"
     inkscape:cx="12.250371"
     inkscape:cy="16.631299"
     inkscape:window-width="1920"
     inkscape:window-height="994"
     inkscape:window-x="0"
     inkscape:window-y="0"
     inkscape:window-maximized="1"
     inkscape:current-layer="svg3" />
  <style
     type="text/css"
     id="current-color-scheme">
        .ColorScheme-Text {
            color:#232629;
        }
        .ColorScheme-ButtonFocus {
            color:#3daee9;
        }
        .ColorScheme-NegativeText {
            color:#da4453;
        }
    </style>
  <path
     d="M 0,0.00923493 H 24 V 24.009235 H 0 Z"
     fill="none"
     id="path1"
     style="stroke-width:1.09094" />
  <path
     id="Path_164-9"
     data-name="Path 164"
     d="M 20.091273,15.037363 18.371858,13.889934 C 17.901412,13.577085 17.61872,13.049163 17.618922,12.48377 V 9.7498123 c -0.0021,-2.282709 -1.382953,-4.337523 -3.493843,-5.200855 -0.665662,-2.065276 -3.584539,-2.065276 -4.2501919,0 -2.110897,0.863324 -3.491288,2.918138 -3.49385,5.200855 V 12.48377 c -6.8e-5,0.564167 -0.281764,1.09099 -0.750687,1.403917 l -1.721661,1.149676 c -1.672696,1.110366 -0.883218,3.71851 1.123809,3.712641 h 4.719919 c 0,2.999994 4.4951689,2.999994 4.4951689,0 h 4.719921 c 2.007021,0.0058 2.7965,-2.602275 1.123803,-3.712641 z m -1.123809,2.587341 H 5.0324681 c -0.897978,0.0079 -1.250992,-1.162317 -0.498972,-1.653652 l 1.720537,-1.147429 c 0.781409,-0.521628 1.250752,-1.399638 1.250781,-2.339853 V 9.7498123 c 0,-2.485272 2.012557,-4.499986 4.4951679,-4.499986 2.482611,0 4.495164,2.014714 4.495164,4.499986 V 12.48377 c 2.9e-5,0.940215 0.469376,1.818225 1.250782,2.339853 l 1.72166,1.148555 c 0.749753,0.492308 0.396488,1.659555 -0.500124,1.652526 z m -6.967505,2.249859 c -0.620637,1e-6 -1.123766,-0.503629 -1.123801,-1.124926 h 2.247562 c -3.7e-5,0.621297 -0.503166,1.124927 -1.123796,1.124926 z M 12.561861,6.9371103 c -1.6e-5,0.310647 -0.251592,0.562466 -0.561902,0.562466 -1.241247,1.4e-5 -2.2474829,1.307408 -2.2475559,2.5499897 0,0.750006 -1.12381,0.750006 -1.12381,0 1.06e-4,-1.8638797 1.5094869,-3.6749147 3.3713659,-3.6749207 0.31031,0 0.561886,0.251818 0.561902,0.562465 z"
     style="fill:url(#linearGradient6);fill-opacity:1;stroke-width:1.1244"
     sodipodi:nodetypes="cccccccccccccccccccccssscccccccccccccsc" />
  <path
     d="m 18.307398,6.2506223 c 0,1.236196 -1.0011,2.237242 -2.237322,2.237242 -1.235182,0 -2.237395,-1.001046 -2.237395,-2.237242 0,-1.235154 1.002213,-2.237305 2.237395,-2.237305 1.236222,0 2.237322,1.002151 2.237322,2.237305 z"
     id="path72-3-7-36-2"
     style="color:#e5e9ef;fill:#00d4aa;fill-opacity:1;stroke:#bac8df;stroke-width:0.0266346;stroke-opacity:1"
     class="ColorScheme-Text" />
</svg>
