<?xml version="1.0" encoding="UTF-8" standalone="no"?>
<svg
   width="24"
   height="24"
   version="1.1"
   id="svg1"
   sodipodi:docname="notifications.svg"
   inkscape:version="1.3.2 (091e20ef0f, 2023-11-25)"
   xmlns:inkscape="http://www.inkscape.org/namespaces/inkscape"
   xmlns:sodipodi="http://sodipodi.sourceforge.net/DTD/sodipodi-0.dtd"
   xmlns:xlink="http://www.w3.org/1999/xlink"
   xmlns="http://www.w3.org/2000/svg"
   xmlns:svg="http://www.w3.org/2000/svg">
  <defs
     id="defs1">
    <linearGradient
       inkscape:collect="always"
       xlink:href="#linearGradient1"
       id="linearGradient2"
       x1="208.82494"
       y1="710.15692"
       x2="232.84207"
       y2="686.15546"
       gradientUnits="userSpaceOnUse"
       gradientTransform="matrix(0.74947101,0,0,0.74996036,-153.50831,-511.58945)" />
    <linearGradient
       id="linearGradient1"
       inkscape:collect="always">
      <stop
         style="stop-color:#9955ff;stop-opacity:1;"
         offset="0"
         id="stop1" />
      <stop
         style="stop-color:#ccaaff;stop-opacity:1"
         offset="1"
         id="stop2" />
    </linearGradient>
  </defs>
  <sodipodi:namedview
     id="namedview1"
     pagecolor="#ffffff"
     bordercolor="#000000"
     borderopacity="0.25"
     inkscape:showpageshadow="2"
     inkscape:pageopacity="0.0"
     inkscape:pagecheckerboard="0"
     inkscape:deskcolor="#d1d1d1"
     inkscape:zoom="12.326157"
     inkscape:cx="4.7054406"
     inkscape:cy="8.5995984"
     inkscape:window-width="1920"
     inkscape:window-height="994"
     inkscape:window-x="0"
     inkscape:window-y="0"
     inkscape:window-maximized="1"
     inkscape:current-layer="svg1" />
  <style
     type="text/css"
     id="style1">.ColorScheme-Text {
            color:#d8dee9;
        }</style>
  <path
     id="Path_164"
     data-name="Path 164"
     d="m 20.094725,15.037386 -1.720148,-1.14744 A 1.6864067,1.6875089 0 0 1 17.621324,12.48377 V 9.7497902 a 5.6213587,5.6250295 0 0 0 -3.495341,-5.2008991 2.2339282,2.235387 0 0 0 -4.2520034,0 5.6213587,5.6250295 0 0 0 -3.495349,5.2008991 V 12.48377 A 1.6864067,1.6875089 0 0 1 5.627631,13.887695 l -1.7224049,1.149691 a 2.0236888,2.0250107 0 0 0 1.1242933,3.712679 h 4.7219359 a 2.2485458,2.2500145 0 0 0 4.4970917,0 h 4.72194 a 2.0236888,2.0250107 0 0 0 1.124287,-3.712679 z M 18.970442,17.62475 H 5.0294888 A 0.89941726,0.90000465 0 0 1 4.5303062,15.971085 L 6.2515697,14.823648 A 2.8106786,2.8125143 0 0 0 7.5028943,12.48377 V 9.7497902 a 4.4970915,4.5000281 0 0 1 8.9941827,0 V 12.48377 a 2.8106786,2.8125143 0 0 0 1.25131,2.339878 l 1.722398,1.148563 a 0.89941726,0.90000465 0 0 1 -0.500343,1.652539 z m -6.970477,2.249882 a 1.1242714,1.1250063 0 0 1 -1.124286,-1.124943 h 2.248529 a 1.1242714,1.1250063 0 0 1 -1.12428,1.124943 z M 12.562104,6.9370648 a 0.56213584,0.56250292 0 0 1 -0.562139,0.5624698 2.2485437,2.2500113 0 0 0 -2.2485232,2.2498809 0.56214606,0.56251305 0 0 1 -1.1242918,0 3.3728154,3.3750183 0 0 1 3.372815,-3.3748218 0.56213584,0.56250292 0 0 1 0.562139,0.5624711 z"
     style="fill:url(#linearGradient2);fill-opacity:1;stroke-width:1.12459" />
</svg>
