<?xml version="1.0" encoding="UTF-8" standalone="no"?>
<svg
   viewBox="0 0 22 22"
   version="1.1"
   id="svg1"
   sodipodi:docname="system-suspend.svg"
   inkscape:version="1.3.2 (091e20ef0f, 2023-11-25)"
   width="100%"
   height="100%"
   xmlns:inkscape="http://www.inkscape.org/namespaces/inkscape"
   xmlns:sodipodi="http://sodipodi.sourceforge.net/DTD/sodipodi-0.dtd"
   xmlns="http://www.w3.org/2000/svg"
   xmlns:svg="http://www.w3.org/2000/svg">
  <sodipodi:namedview
     id="namedview1"
     pagecolor="#ffffff"
     bordercolor="#000000"
     borderopacity="0.25"
     inkscape:showpageshadow="2"
     inkscape:pageopacity="0.0"
     inkscape:pagecheckerboard="0"
     inkscape:deskcolor="#d1d1d1"
     inkscape:zoom="12.326157"
     inkscape:cx="16.469042"
     inkscape:cy="3.8535936"
     inkscape:window-width="1920"
     inkscape:window-height="994"
     inkscape:window-x="0"
     inkscape:window-y="0"
     inkscape:window-maximized="1"
     inkscape:current-layer="svg1" />
  <defs
     id="defs1">
    <style
       type="text/css"
       id="style1">.ColorScheme-Text {
        color:#d8dee9;
      }</style>
  </defs>
  <path
     d="m 11.96884,13.069571 c -0.644763,0 -1.248606,-0.175746 -1.768114,-0.481686 H 7.6999914 c -0.063135,0 -0.1134473,-0.0517 -0.1134473,-0.11371 0,-0.06321 0.051619,-0.113693 0.1134473,-0.113693 H 9.860184 C 9.0163973,11.720599 8.4712228,10.706933 8.4712228,9.5677856 c 0,-0.8368067 0.2995284,-1.6465417 0.8425455,-2.2806189 C 9.67298,6.8688427 10.123524,6.5429588 10.624427,6.3332214 8.2266794,6.5253484 6.3333573,8.5423589 6.3333573,10.992776 c 0,2.577159 2.0934031,4.673857 4.6665847,4.673857 1.165575,0 2.232738,-0.430046 3.050612,-1.140285 h -3.962209 c -0.06318,0 -0.113538,-0.05168 -0.113538,-0.113703 0,-0.06326 0.05155,-0.113602 0.113538,-0.113602 h 4.206923 c 0.846032,-0.84609 1.371492,-2.015765 1.371492,-3.306077 0,-0.471104 -0.06798,-0.928198 -0.202411,-1.3677094 -0.0294,1.9044384 -1.586762,3.4443794 -3.49531,3.4443794 z"
     id="path4-7-1"
     style="color:#d6dbf1;fill:#ffd42a;fill-opacity:1;fill-rule:nonzero;stroke:none;stroke-width:0.0241994;stroke-opacity:1"
     class="ColorScheme-Text" />
  <path
     d="M 5.3390759,5.3501879 C 2.1947894,8.4964718 2.220516,13.631958 5.4162609,16.745674 8.3929345,19.645962 13.189734,19.764512 16.296389,17.004078 19.018457,14.58539 19.740877,10.731881 18.209465,7.5498557 18.02566,7.1679558 17.544488,7.0368388 17.182385,7.2567959 16.857736,7.4540307 16.74801,7.8639186 16.911222,8.2070917 18.173013,10.8602 17.525572,14.076212 15.188527,16.038612 12.818018,18.029115 9.3009366,18.062605 6.8949518,16.115165 3.8264045,13.631494 3.6505794,9.0978254 6.3674834,6.3792098 8.347504,4.3979188 11.320799,3.9089679 13.800763,5.0922549 c 0.340923,0.1626604 0.748322,0.05073 0.944329,-0.272307 l 0.002,-0.00239 C 14.965604,4.4567209 14.836616,3.9762319 14.456234,3.7927033 11.418446,2.3272597 7.7675248,2.920398 5.339093,5.3503618 Z"
     id="path1-0-9-8-0"
     style="fill:#ffd42a;fill-opacity:1;stroke-width:0.290958" />
</svg>
