<?xml version="1.0" encoding="UTF-8" standalone="no"?>
<svg
   version="1.1"
   viewBox="0 0 22 22"
   id="svg1"
   sodipodi:docname="system-save-session.svg"
   inkscape:version="1.3.2 (091e20ef0f, 2023-11-25)"
   xmlns:inkscape="http://www.inkscape.org/namespaces/inkscape"
   xmlns:sodipodi="http://sodipodi.sourceforge.net/DTD/sodipodi-0.dtd"
   xmlns="http://www.w3.org/2000/svg"
   xmlns:svg="http://www.w3.org/2000/svg">
  <sodipodi:namedview
     id="namedview1"
     pagecolor="#ffffff"
     bordercolor="#000000"
     borderopacity="0.25"
     inkscape:showpageshadow="2"
     inkscape:pageopacity="0.0"
     inkscape:pagecheckerboard="0"
     inkscape:deskcolor="#d1d1d1"
     inkscape:zoom="34.863636"
     inkscape:cx="11.014342"
     inkscape:cy="11"
     inkscape:window-width="1920"
     inkscape:window-height="994"
     inkscape:window-x="0"
     inkscape:window-y="0"
     inkscape:window-maximized="1"
     inkscape:current-layer="svg1" />
  <defs
     id="defs1">
    <style
       type="text/css"
       id="style1">.ColorScheme-Text {
        color:#d8dee9;
      }</style>
  </defs>
  <path
     d="M 5,3 C 3.892,3 3,3.892 3,5 v 12 c 0,1.108 0.892,2 2,2 h 12 c 1.108,0 2,-0.892 2,-2 V 7 L 15,3 Z m 0,1 h 2 v 3 c 0,1.108 0.892,2 2,2 h 4 c 1.108,0 2,-0.892 2,-2 V 4.4141001 l 3,3 V 17 c 0,0.553998 -0.446002,1 -1,1 v -2 c 0,-1.108 -0.892,-2 -2,-2 H 7 c -1.108,0 -2,0.892 -2,2 v 2 C 4.446,18 4,17.553998 4,17 V 5 C 4,4.446 4.446,4 5,4 Z m 3,0 h 3 V 8 H 9 C 8.446,8 8,7.554 8,7 Z M 7,15 h 8 c 0.554002,0 1.0131,0.446148 1,1 v 2 H 6 v -2 c 0,-0.553998 0.446,-1 1,-1 z"
     id="path1"
     style="fill:#00ccff;stroke-width:1" />
</svg>
