<?xml version="1.0" encoding="UTF-8" standalone="no"?>
<svg
   width="24"
   height="24"
   version="1.1"
   id="svg6"
   sodipodi:docname="system-user-list.svg"
   inkscape:version="1.3.2 (091e20ef0f, 2023-11-25)"
   viewBox="0 0 24 24"
   xmlns:inkscape="http://www.inkscape.org/namespaces/inkscape"
   xmlns:sodipodi="http://sodipodi.sourceforge.net/DTD/sodipodi-0.dtd"
   xmlns="http://www.w3.org/2000/svg"
   xmlns:svg="http://www.w3.org/2000/svg">
  <sodipodi:namedview
     id="namedview1"
     pagecolor="#ffffff"
     bordercolor="#999999"
     borderopacity="1"
     inkscape:showpageshadow="2"
     inkscape:pageopacity="0"
     inkscape:pagecheckerboard="0"
     inkscape:deskcolor="#d1d1d1"
     inkscape:zoom="31.75"
     inkscape:cx="12"
     inkscape:cy="12"
     inkscape:window-width="1920"
     inkscape:window-height="994"
     inkscape:window-x="0"
     inkscape:window-y="0"
     inkscape:window-maximized="1"
     inkscape:current-layer="svg6" />
  <defs
     id="defs10" />
  <namedview
     id="namedview8"
     pagecolor="#ffffff"
     bordercolor="#000000"
     borderopacity="0.25"
     inkscape:showpageshadow="2"
     inkscape:pageopacity="0.0"
     inkscape:pagecheckerboard="0"
     inkscape:deskcolor="#d1d1d1"
     showgrid="false"
     inkscape:zoom="35.136364"
     inkscape:cx="9.4773609"
     inkscape:cy="10.98577"
     inkscape:window-width="1920"
     inkscape:window-height="1011"
     inkscape:window-x="0"
     inkscape:window-y="0"
     inkscape:window-maximized="1"
     inkscape:current-layer="svg6" />
  <style
     type="text/css"
     id="current-color-scheme">.ColorScheme-Text { color: #fcfcfc; } </style>
  <g
     transform="translate(1,1)"
     id="g1">
    <g
       id="22-22-system-user-list"
       transform="matrix(0.6875,0,0,0.6875,-15.125,0)"
       stroke-width="1.45455">
      <path
         id="path340-1-2"
         d="m 45.488131,9.350652 c -0.428032,0 -0.823357,0.1184373 -1.175322,0.3084418 2.17e-4,0.00191 -0.108876,0.066808 -0.10856,0.069072 0.131159,1.6601862 -0.285093,2.7164222 -0.76011,3.5412572 0.452639,0.644006 1.198201,1.068212 2.043981,1.068212 1.172343,0 2.155534,-0.809129 2.422076,-1.899351 0.04653,-0.190445 0.0715,-0.389372 0.0715,-0.594162 -1.4e-5,-1.377127 -1.116395,-2.4934999 -2.493503,-2.4934999 z m -14.968602,0 c 0.42804,0 0.823356,0.1184373 1.175321,0.3084418 -2.09e-4,0.00191 0.108879,0.066808 0.108562,0.069072 -0.131159,1.6601862 0.285087,2.7164222 0.760097,3.5412572 -0.452638,0.644006 -1.198195,1.068212 -2.043975,1.068212 -1.172349,0 -2.155535,-0.809129 -2.422077,-1.899351 -0.04653,-0.190445 -0.07149,-0.389372 -0.07149,-0.594162 1.5e-5,-1.377127 1.11639,-2.4934999 2.493504,-2.4934999 z m -4.9e-5,6.649328 c 1.401687,0 2.631097,0.646312 3.383127,1.688313 -0.42202,0.2237 -0.851439,0.498543 -1.223982,0.720761 -0.409551,-0.483039 -1.171438,-0.74673 -2.159145,-0.74673 -1.496514,0 -2.493506,1.098054 -2.493506,3.324685 h 2.077922 l -0.831167,1.66234 h -2.909094 l 1e-6,-2.525987 c 1e-6,-2.392057 1.853728,-4.123382 4.155844,-4.123382 z M 45.480522,16 c -1.401687,0 -2.631104,0.646307 -3.383127,1.688308 0.42202,0.223706 0.851432,0.498543 1.223982,0.72076 0.409551,-0.483039 1.17143,-0.746729 2.159145,-0.746729 1.496519,0 2.493501,1.135867 2.493501,3.32467 h -2.077921 l 0.831167,1.66234 h 2.909094 l 2e-6,-2.525972 C 49.636367,17.731321 47.782643,16 45.480522,16 Z m -7.480524,3.324671 c 3.324672,0 6.64935,1.662338 6.64935,6.649353 H 31.35065 c 0,-4.987015 3.324671,-6.649353 6.649348,-6.649353 z m 0,-1.662334 c -4.834545,0 -8.298541,3.399229 -8.308363,8.311687 l -0.0029,1.66234 h 16.623354 l -0.0029,-1.66234 c -0.01006,-4.938643 -3.473862,-8.311687 -8.308384,-8.311687 z m 8.9e-5,-13.2987007 c -3.213354,0 -5.818233,2.6048784 -5.818233,5.8181787 0,3.213308 2.604879,5.818185 5.818233,5.818185 2.73549,0 5.030048,-1.887767 5.651997,-4.431614 0.10856,-0.444361 0.166249,-0.908738 0.166249,-1.386571 0,-3.2133003 -2.604936,-5.8181787 -5.818246,-5.8181787 z"
         style="stroke-width:1.66235;fill:#9955ff" />
      <path
         id="path84-3-7"
         d="M 22,0 V 32 H 54 V 0 Z"
         fill="none" />
    </g>
  </g>
</svg>
