<?xml version="1.0" encoding="UTF-8" standalone="no"?>
<svg
   viewBox="0 0 22 22"
   version="1.1"
   id="svg1"
   sodipodi:docname="system-switch-user.svg"
   inkscape:version="1.3.2 (091e20ef0f, 2023-11-25)"
   xmlns:inkscape="http://www.inkscape.org/namespaces/inkscape"
   xmlns:sodipodi="http://sodipodi.sourceforge.net/DTD/sodipodi-0.dtd"
   xmlns="http://www.w3.org/2000/svg"
   xmlns:svg="http://www.w3.org/2000/svg">
  <sodipodi:namedview
     id="namedview1"
     pagecolor="#ffffff"
     bordercolor="#000000"
     borderopacity="0.25"
     inkscape:showpageshadow="2"
     inkscape:pageopacity="0.0"
     inkscape:pagecheckerboard="0"
     inkscape:deskcolor="#d1d1d1"
     inkscape:zoom="17.431818"
     inkscape:cx="13.308996"
     inkscape:cy="15.919166"
     inkscape:window-width="1920"
     inkscape:window-height="994"
     inkscape:window-x="0"
     inkscape:window-y="0"
     inkscape:window-maximized="1"
     inkscape:current-layer="svg1"
     showgrid="true">
    <inkscape:grid
       id="grid1"
       units="px"
       originx="0"
       originy="0"
       spacingx="1"
       spacingy="1"
       empcolor="#0099e5"
       empopacity="0.30196078"
       color="#0099e5"
       opacity="0.14901961"
       empspacing="5"
       dotted="false"
       gridanglex="30"
       gridanglez="30"
       visible="true" />
  </sodipodi:namedview>
  <defs
     id="defs1">
    <style
       type="text/css"
       id="style1">.ColorScheme-Text {
        color:#d8dee9;
      }</style>
  </defs>
  <path
     d="m 11.377987,3.0000285 c -1.9833595,0 -3.2106577,1.2169499 -3.3872135,2.6958782 V 6.6764008 L 5.846411,5.2122091 5.0000591,5.8508217 8.3854821,8.40521 11.770896,5.8508217 10.924566,5.2122091 8.9877494,6.6764008 V 5.6959067 c 0,-0.9974464 1.0613136,-1.7323345 2.3901026,-1.7327203 1.32878,3.497e-4 2.612925,0.7354469 2.59446,1.7327203 v 0.7830462 h 0.996922 V 5.6955896 C 14.969234,4.206837 13.361401,3 11.378058,3 Z m 2.594289,4.4420826 c -1.101198,0 -1.993831,0.8624408 -1.993831,1.9263155 0,1.0639014 0.892652,1.9263154 1.993831,1.9263154 1.10119,0 1.99382,-0.86244 1.99382,-1.9263154 0,-1.0639051 -0.892664,-1.9263155 -1.99382,-1.9263155 z M 7.9907735,9.3684266 A 1.9938294,1.9263144 0 0 0 5.9969446,11.294742 1.9938294,1.9263144 0 0 0 7.9907735,13.221049 1.9938294,1.9263144 0 0 0 9.984609,11.294742 1.9938294,1.9263144 0 0 0 7.9907735,9.3684266 Z M 13.987831,12.2579 c -1.514138,0 -2.755689,1.120254 -2.969333,2.57346 0.58109,0.637743 0.959931,1.279163 0.959931,2.24232 h 4.416027 C 16.786464,16.552984 16.999321,15.919252 17,15.267762 c 1e-6,-1.66231 -1.348043,-3.009862 -3.012164,-3.009862 z m -0.04878,0.963149 c 1.099192,0 1.989934,0.808548 1.989934,1.805919 -4.57e-4,0.39091 -0.140232,0.771143 -0.399147,1.083555 h -2.8116 c -0.08533,-0.518662 -0.356085,-0.98231 -0.739895,-1.346879 0.141087,-0.871928 0.960621,-1.542595 1.960732,-1.542595 z M 7.9907412,14.18422 A 2.9907437,3.0098662 0 0 0 5,17.194079 2.9907437,3.0098662 0 0 0 5.6036009,19 H 10.381816 A 2.9907437,3.0098662 0 0 0 10.981534,17.194079 2.9907437,3.0098662 0 0 0 7.9907735,14.18422 Z m 0,0.96315 A 1.9938294,2.1671044 0 0 1 9.984579,17.31448 1.9938294,2.1671044 0 0 1 9.867751,18.036849 H 6.1137627 A 1.9938294,2.1671044 0 0 1 5.9969352,17.31448 1.9938294,2.1671044 0 0 1 7.9907642,15.14737 Z"
     id="path1"
     style="fill:#ff80ff;fill-opacity:1;stroke-width:0.979947" />
</svg>
