<?xml version="1.0" encoding="UTF-8" standalone="no"?>
<svg
   viewBox="0 0 22 22"
   version="1.1"
   id="svg1"
   sodipodi:docname="system-shutdown.svg"
   inkscape:version="1.3.2 (091e20ef0f, 2023-11-25)"
   width="100%"
   height="100%"
   xmlns:inkscape="http://www.inkscape.org/namespaces/inkscape"
   xmlns:sodipodi="http://sodipodi.sourceforge.net/DTD/sodipodi-0.dtd"
   xmlns="http://www.w3.org/2000/svg"
   xmlns:svg="http://www.w3.org/2000/svg">
  <sodipodi:namedview
     id="namedview1"
     pagecolor="#ffffff"
     bordercolor="#000000"
     borderopacity="0.25"
     inkscape:showpageshadow="2"
     inkscape:pageopacity="0.0"
     inkscape:pagecheckerboard="0"
     inkscape:deskcolor="#d1d1d1"
     inkscape:zoom="12.326157"
     inkscape:cx="0.56789801"
     inkscape:cy="0.44620558"
     inkscape:window-width="1920"
     inkscape:window-height="994"
     inkscape:window-x="0"
     inkscape:window-y="0"
     inkscape:window-maximized="1"
     inkscape:current-layer="svg1" />
  <defs
     id="defs1">
    <style
       type="text/css"
       id="style1">.ColorScheme-Text {
        color:#d8dee9;
      }</style>
  </defs>
  <path
     d="m 5.3390358,5.3503752 c -3.144232,3.146228 -3.118506,8.2816388 0.07718,11.3953078 2.976626,2.900246 7.7733492,3.01879 10.8799532,0.258411 2.722028,-2.418661 3.44443,-6.272114 1.913037,-9.4540868 -0.183797,-0.381895 -0.664956,-0.513011 -1.02705,-0.293053 -0.324648,0.197229 -0.434376,0.607106 -0.271171,0.950279 1.261775,2.6530578 0.614354,5.8690248 -1.722657,7.8313968 -2.370468,1.990479 -5.8874942,2.023958 -8.2934502,0.07657 -3.068496,-2.483649 -3.244322,-7.0172618 -0.527458,-9.7358298 1.979991,-1.981258 4.9532432,-2.4702 7.4331752,-1.286935 0.340908,0.162657 0.748306,0.05072 0.944309,-0.272303 l 0.002,-0.0022 c 0.218938,-0.36123 0.08997,-0.841708 -0.29043,-1.025233 -3.037784,-1.465432 -6.6886482,-0.872302 -9.1170442,1.55762 z"
     id="path1-0-4"
     style="fill:#c83771;stroke-width:0.290958" />
  <path
     d="m 7.4647488,11.543776 c -0.01276,-0.07686 -0.02319,-0.154417 -0.03129,-0.232701 0.0051,0.04655 0.0093,0.09221 0.01432,0.138737 -0.03601,-0.353419 -0.02711,-0.710392 0.02492,-1.061671 -0.0073,0.04621 -0.01388,0.09166 -0.02121,0.137868 0.05441,-0.353545 0.154176,-0.697485 0.297604,-1.0256795 -0.01886,0.043617 -0.03773,0.087226 -0.05655,0.1292905 0.146629,-0.3327548 0.33605,-0.6459138 0.564185,-0.9310758 -0.03031,0.03792 -0.0614,0.0766 -0.09174,0.114501 0.230473,-0.285868 0.496457,-0.539195 0.793196,-0.755423 -0.03935,0.02837 -0.07947,0.0576 -0.118831,0.08603 0.299082,-0.216951 0.624961,-0.39305 0.969808,-0.523845 -0.04448,0.01675 -0.08894,0.03338 -0.131858,0.05016 0.3292132,-0.123449 0.6735672,-0.203999 1.0238252,-0.241894 -0.04652,0.0056 -0.09219,0.0093 -0.138691,0.0144 0.350967,-0.03556 0.704701,-0.02698 1.053479,0.02553 -0.04614,-0.0077 -0.09165,-0.01377 -0.137807,-0.02117 0.347986,0.05328 0.687119,0.151199 1.011319,0.290499 -0.04358,-0.01883 -0.08717,-0.03766 -0.129196,-0.05648 0.33791,0.147359 0.65616,0.33909 0.943315,0.569488 -0.03789,-0.03026 -0.07648,-0.06142 -0.114398,-0.09169 0.2856,0.230368 0.538633,0.496277 0.754577,0.792981 -0.02836,-0.03931 -0.05751,-0.07944 -0.08592,-0.11882 0.216652,0.299051 0.392467,0.6249366 0.522172,0.970578 -0.01672,-0.044442 -0.03327,-0.088947 -0.05003,-0.1318724 0.123153,0.3292552 0.20344,0.6736932 0.240279,1.0248162 -0.0051,-0.04653 -0.009,-0.09223 -0.01427,-0.13874 0.03534,0.351088 0.02645,0.704962 -0.0263,1.05391 0.008,-0.04616 0.01386,-0.09168 0.02125,-0.137874 -0.05355,0.348158 -0.151613,0.687502 -0.291839,1.011128 0.0188,-0.0436 0.03767,-0.0872 0.05658,-0.129286 -0.14754,0.338154 -0.340166,0.655863 -0.570684,0.943296 0.03027,-0.03791 0.06149,-0.07655 0.09175,-0.114514 -0.230472,0.285875 -0.497206,0.538406 -0.793197,0.755427 0.03932,-0.02837 0.07949,-0.05761 0.118842,-0.08602 -0.295128,0.213172 -0.616336,0.387849 -0.957302,0.517959 0.04443,-0.01668 0.08894,-0.03333 0.131863,-0.05017 -0.333918,0.126423 -0.683747,0.209163 -1.038628,0.246941 0.04652,-0.0051 0.09217,-0.0091 0.138685,-0.01442 -0.352515,0.0356 -0.706254,0.02685 -1.056569,-0.02565 0.04619,0.0079 0.09162,0.01378 0.137807,0.02116 -0.08928,-0.01459 -0.178526,-0.0307 -0.266152,-0.04982 0.07505,0.307202 0.150063,0.614412 0.224332,0.920827 0.0039,-0.0042 0.0085,-0.0081 0.01267,-0.012 0.101319,-0.0965 0.166019,-0.242594 0.170272,-0.382423 0.0037,-0.134452 -0.05209,-0.295829 -0.151004,-0.390233 -0.101906,-0.09757 -0.236066,-0.171956 -0.382177,-0.17009 -0.145347,0.0033 -0.2825142,0.04882 -0.3901752,0.15134 -0.0039,0.0042 -0.0087,0.0081 -0.01268,0.01207 -0.139323,0.132688 -0.199229,0.334572 -0.155213,0.521957 0.04264,0.18118 0.192776,0.358009 0.3803022,0.399663 0.810916,0.176621 1.673061,0.158109 2.465527,-0.103318 0.720005,-0.23766 1.384418,-0.632071 1.915038,-1.178162 0.530599,-0.54456 0.929811,-1.212902 1.146627,-1.942887 0.223506,-0.751474 0.249919,-1.562614 0.08433,-2.328165 -0.161446,-0.7484738 -0.517357,-1.4444228 -1.008964,-2.0292418 -0.243191,-0.288857 -0.527509,-0.540056 -0.831041,-0.763907 -0.306588,-0.225482 -0.642341,-0.397525 -0.993428,-0.542889 -0.360292,-0.148674 -0.732971,-0.23426 -1.117236,-0.289199 -0.39579,-0.05753 -0.788637,-0.04696 -1.183844,-0.0041 -0.341739,0.03736 -0.6783812,0.118065 -0.9997852,0.238611 -0.356487,0.132829 -0.695885,0.293142 -1.011167,0.508921 -0.312149,0.214317 -0.604043,0.453088 -0.857609,0.735313 -0.252772,0.281473 -0.479905,0.588311 -0.659015,0.921821 -0.37123,0.6929925 -0.573159,1.4766848 -0.564216,2.2647228 0.0023,0.252864 0.02752,0.507842 0.06844,0.75701 0.02216,0.13429 0.137663,0.274712 0.25035,0.34239 0.112706,0.06765 0.278821,0.09953 0.407242,0.06316 0.137765,-0.03921 0.272726,-0.120953 0.342426,-0.250697 0.06969,-0.12974 0.08608,-0.260001 0.06269,-0.406689 z"
     id="path2-2-8"
     style="fill:#c83771;stroke-width:0.0109281" />
  <path
     d="m 4.6139648,17.815797 6.2742452,-5.77594 c 0.154709,-0.14242 0.167509,-0.560156 -0.08174,-0.830894 -0.249228,-0.270739 -0.715611,-0.24735 -0.87032,-0.104929 l -6.2252252,5.730815 c -0.15471,0.142423 -0.16748,0.560125 0.08176,0.830866 0.249238,0.270743 0.666571,0.29251 0.821279,0.150082 z"
     id="path2653-4-7"
     style="fill:#c83771;fill-opacity:0.986348;stroke-width:0.251967"
     sodipodi:nodetypes="sssssss" />
</svg>
