<?xml version="1.0" encoding="UTF-8" standalone="no"?>
<svg
   width="16"
   height="16"
   version="1.1"
   id="svg2"
   sodipodi:docname="disk-quota.svg"
   inkscape:version="1.3.2 (091e20ef0f, 2023-11-25)"
   xmlns:inkscape="http://www.inkscape.org/namespaces/inkscape"
   xmlns:sodipodi="http://sodipodi.sourceforge.net/DTD/sodipodi-0.dtd"
   xmlns="http://www.w3.org/2000/svg"
   xmlns:svg="http://www.w3.org/2000/svg">
  <defs
     id="defs2" />
  <sodipodi:namedview
     id="namedview2"
     pagecolor="#ffffff"
     bordercolor="#000000"
     borderopacity="0.25"
     inkscape:showpageshadow="2"
     inkscape:pageopacity="0.0"
     inkscape:pagecheckerboard="0"
     inkscape:deskcolor="#d1d1d1"
     inkscape:zoom="16.948466"
     inkscape:cx="20.73934"
     inkscape:cy="14.721096"
     inkscape:window-width="1920"
     inkscape:window-height="1002"
     inkscape:window-x="0"
     inkscape:window-y="0"
     inkscape:window-maximized="1"
     inkscape:current-layer="svg2" />
  <style
     type="text/css"
     id="current-color-scheme">
        .ColorScheme-Text {
            color:#232629;
        }
        .ColorScheme-NeutralText {
            color:#f67400;
        }
        .ColorScheme-NegativeText {
            color:#da4453;
        }
    </style>
  <path
     d="M 12.775519,1 H 3.2245018 C 2.5510332,1 2,1.525 2,2.1666657 V 13.833328 C 2,14.475 2.5510332,15 3.2245018,15 H 12.775519 C 13.448989,15 14,14.475 14,13.833328 V 2.1666657 C 14,1.525 13.448989,1 12.775519,1 Z m 0.367339,12.25 c 0,0.875 0,0.875 -0.857143,0.875 H 3.7142858 c -0.8571428,0 -0.8571428,0 -0.8571428,-0.875 V 2.75 c 0,-0.875 0,-0.875 0.8571428,-0.875 h 8.5714292 c 0.857143,0 0.857143,0 0.857143,0.875 z"
     id="path2-3-3-3-0-3"
     style="fill:#37c871;fill-opacity:1;stroke-width:0.298811"
     sodipodi:nodetypes="ssssssssscscccsscc" />
  <path
     d="M 11.732,12.375 H 4.3615388 c -0.2630553,0 -0.4758245,0.174484 -0.4758245,0.388847 v 0.09765 c 0,0.21464 0.2128779,0.388498 0.4758245,0.388498 H 11.732 c 0.262737,0 0.475717,-0.173855 0.475717,-0.388498 v -0.09765 C 12.207717,12.54965 11.994733,12.375 11.732,12.375 Z m -0.298626,0.869437 -6.8619452,0.006 -0.00218,-0.0037 -3.403e-4,7.93e-4 6.8597165,0.003 0.0028,-0.0031 -8.32e-4,-0.0033 z"
     id="path79-3-8-7"
     style="fill:#37c871;fill-opacity:1;stroke-width:0.0253141"
     sodipodi:nodetypes="ssssssssssccccccs" />
  <path
     d="M 8.0714238,3.625 C 7.1432425,3.625 6.2530737,3.993887 5.5965742,4.6501453 4.9403189,5.306596 4.5714241,6.1967627 4.5714241,7.125 c 0,0.9282373 0.3688844,1.818355 1.0251501,2.4748567 C 6.2530234,10.25611 7.1431905,10.625 8.0714238,10.625 8.9996573,10.625 9.8897765,10.256114 10.54627,9.5998567 11.202529,8.943404 11.571424,8.0532353 11.571424,7.124999 11.570436,6.197157 11.201182,5.3075833 10.544889,4.6515277 9.8887849,3.9952757 8.9992128,3.6261863 8.0714238,3.625 Z m 0,6.1343567 v 1.983e-4 l -0.00663,0.030147 v 0 0 0 0 0 0 0 z"
     id="path74-6-6-5"
     style="fill:#37c871;fill-opacity:1;stroke-width:0.0494422"
     sodipodi:nodetypes="ccscsccccccccccccccc" />
  <path
     d="M 8.0714238,5.375 C 7.6073315,5.375 7.1622512,5.559443 6.8339994,5.8875727 6.5058714,6.215798 6.3214235,6.6608793 6.3214235,7.124999 c 0,0.4641217 0.1844443,0.909176 0.5125759,1.2374293 C 7.1622241,8.6905547 7.6073094,8.875 8.0714238,8.875 8.5355418,8.875 8.9806011,8.6905567 9.3088474,8.3624283 9.6369756,8.034201 9.8214236,7.589115 9.8214236,7.124999 9.8209218,6.6610773 9.6363008,6.2162917 9.3081561,5.8882623 8.9801019,5.560137 8.5353178,5.3755927 8.0714238,5.375 Z m 0,3.0671797 v 1.01e-4 l -0.00337,0.015063 v 0 0 0 0 0 0 0 z"
     id="path74-6-7-7-9"
     style="fill:#000000;fill-opacity:1;stroke-width:0.024721"
     sodipodi:nodetypes="ccscsccccccccccccccc" />
</svg>
