<?xml version="1.0" encoding="UTF-8" standalone="no"?>
<svg
   version="1.1"
   viewBox="0 0 16 16"
   id="svg2"
   sodipodi:docname="compass.svg"
   inkscape:version="1.3.2 (091e20ef0f, 2023-11-25)"
   width="100%"
   height="100%"
   xmlns:inkscape="http://www.inkscape.org/namespaces/inkscape"
   xmlns:sodipodi="http://sodipodi.sourceforge.net/DTD/sodipodi-0.dtd"
   xmlns="http://www.w3.org/2000/svg"
   xmlns:svg="http://www.w3.org/2000/svg">
  <sodipodi:namedview
     id="namedview2"
     pagecolor="#ffffff"
     bordercolor="#000000"
     borderopacity="0.25"
     inkscape:showpageshadow="2"
     inkscape:pageopacity="0.0"
     inkscape:pagecheckerboard="0"
     inkscape:deskcolor="#d1d1d1"
     inkscape:zoom="16.948466"
     inkscape:cx="6.3722581"
     inkscape:cy="8.6143489"
     inkscape:window-width="1920"
     inkscape:window-height="994"
     inkscape:window-x="0"
     inkscape:window-y="0"
     inkscape:window-maximized="1"
     inkscape:current-layer="svg2" />
  <defs
     id="defs1">
    <style
       type="text/css"
       id="style1">.ColorScheme-Text {
        color:#d8dee9;
      }</style>
  </defs>
  <path
     d="M 7.5828396,7.0553526 C 6.8935955,7.3613297 6.7356344,8.1749316 7.2665695,8.688629 c 0.4237524,0.4099881 1.0430979,0.4099881 1.466858,0 0.5309422,-0.5136974 0.3729648,-1.3272993 -0.3162307,-1.6332764 -0.3284666,-0.1404695 -0.5055666,-0.1404695 -0.8343572,0 z"
     id="path20-3"
     style="fill:#00d4aa;fill-opacity:1;stroke-width:0.00324367" />
  <path
     d="m 7.8015462,11.940712 c -0.2297857,0.07342 -0.3479974,0.229783 -0.3479974,0.450054 0,0.274562 0.1245575,0.383124 0.5969255,0.510841 0.143677,0.03833 0.284042,0.09575 0.3128411,0.127701 0.07027,0.07977 0.038332,0.178821 -0.079784,0.239434 -0.2425812,0.124535 -0.5745932,-0.01284 -0.5745932,-0.236273 0,-0.05748 -0.019152,-0.06714 -0.1596803,-0.06714 H 7.3896006 v 0.11173 c 0,0.146851 0.063742,0.268229 0.2042936,0.392618 0.1276978,0.111718 0.2745648,0.150013 0.5363082,0.143677 0.3574798,-0.0089 0.6193796,-0.252075 0.590576,-0.549119 -0.025598,-0.255417 -0.1819869,-0.383133 -0.5874198,-0.488364 -0.312858,-0.07975 -0.3608114,-0.105396 -0.3608114,-0.201128 0,-0.102227 0.083102,-0.143702 0.2840509,-0.143702 0.1788228,0 0.2905406,0.07341 0.2905406,0.188318 0,0.08939 0.047914,0.108568 0.191485,0.08297 0.1180571,-0.01914 0.1277133,-0.02884 0.1277133,-0.124556 0,-0.130859 -0.1117203,-0.300034 -0.2489241,-0.379787 -0.1178903,-0.07018 -0.4755288,-0.102064 -0.615889,-0.05728 z"
     id="path22-6"
     style="fill:#00d4aa;fill-opacity:1;stroke-width:0.001665" />
  <path
     d="m 7.4372281,2.562451 c -0.01281,0.00991 -0.022429,0.3854579 -0.022429,0.8350917 v 0.8126582 h 0.1606445 0.1606576 l 0.00649,-0.5235186 0.010352,-0.5203233 0.350114,0.5203233 0.3500622,0.5235186 H 8.6106073 8.7647317 V 3.3750977 2.5400006 H 8.6039592 8.4432993 V 3.0764015 3.6159908 L 8.0836533,3.0764015 7.7271723,2.5400006 H 7.5922562 c -0.073862,0 -0.1445571,0.00981 -0.154276,0.022498 z"
     id="path6-5"
     style="fill:#00d4aa;fill-opacity:1;stroke-width:0.00167519" />
  <path
     d="m 12.06,8.2401865 v 0.8700146 h 0.65256 0.652555 V 8.9428256 8.7754685 H 12.879932 12.394756 V 8.5747623 8.3740439 h 0.434906 0.434922 V 8.2066871 8.0393134 H 12.829662 12.394756 V 7.8551857 7.6712316 h 0.468407 0.468434 V 7.5206141 7.3700013 H 12.695806 12.06 Z"
     id="path16-9"
     style="fill:#00d4aa;fill-opacity:1;stroke-width:0.00174525" />
  <path
     d="m 2.4000802,7.4832894 c 0,0.038534 0.4170552,1.5915702 0.436464,1.620352 0.0098,0.01611 0.080149,0.028959 0.1571552,0.028959 H 3.1349421 L 3.1831576,8.96256 c 0.025516,-0.089846 0.096204,-0.3434148 0.1539592,-0.5583077 0.057785,-0.2182231 0.1123019,-0.3946231 0.122011,-0.3946231 0.016156,0 0.105926,0.3176489 0.2952222,1.0203779 0.028896,0.1027587 0.035263,0.1059351 0.1763901,0.096272 L 4.081529,9.115877 4.2836988,8.3778281 c 0.2791497,-1.0299861 0.2694422,-0.914338 0.076884,-0.914338 -0.186098,0 -0.1444217,-0.076915 -0.3208232,0.6192119 -0.051357,0.2085755 -0.099443,0.3851424 -0.1059342,0.3946817 -0.0098,0.00658 -0.076896,-0.2182386 -0.1539618,-0.50057 L 3.641964,7.4601659 3.4622143,7.4700562 3.2856609,7.4799479 3.1380495,8.0094619 C 3.0545055,8.2982885 2.9809041,8.5133499 2.9743708,8.4909163 2.9645708,8.4653803 2.9068417,8.2212993 2.8460125,7.9550425 L 2.7368852,7.4642112 H 2.5700318 c -0.093048,0 -0.1700328,0.0098 -0.1700328,0.019197 z"
     id="path18-1"
     style="fill:#00d4aa;fill-opacity:1;stroke-width:0.00167353" />
  <path
     d="m 10.883374,13.010247 v 0 c 0.291382,-0.16655 0.664714,-0.06561 0.833002,0.224866 v 0 c 0.168294,0.290504 0.06824,0.663257 -0.223411,0.831257 v 0 C 10.359253,14.719121 9.0663055,15.040534 7.7613733,14.995912 6.5780924,14.955667 5.4233717,14.614701 4.4057444,14.007454 v 0 C 4.1175908,13.834788 4.023954,13.460288 4.1966253,13.172112 v 0 c 0.1729663,-0.288156 0.5471732,-0.381791 0.8356213,-0.209125 v 0 c 0.8385534,0.50371 1.7911258,0.782838 2.7705559,0.816383 1.0800367,0.03676 2.1455053,-0.22838 3.0805715,-0.769123 z m 2.293091,-7.5897678 v 0 C 13.025378,5.1194786 13.146985,4.7531547 13.448018,4.6029439 v 0 c 0.301,-0.1502052 0.666447,-0.028 0.816072,0.2730007 v 0 c 0.5215,1.0409524 0.771462,2.1977125 0.731793,3.3626273 -0.03028,0.8881192 -0.2275,1.7613804 -0.584209,2.5716201 v 0 c -0.134742,0.308 -0.494365,0.44859 -0.802365,0.313557 v 0 c -0.308,-0.134764 -0.448584,-0.494378 -0.313551,-0.802378 v 0 c 0.296914,-0.6690898 0.4585,-1.3912644 0.483291,-2.1242139 0.03299,-0.9613435 -0.175,-1.9153824 -0.602584,-2.7766779 z M 5.4948341,2.7893588 v 0 C 5.1923717,2.9337366 4.8283716,2.8054028 4.6822461,2.5029417 v 0 C 4.5364193,2.2004753 4.663312,1.8361826 4.9657466,1.6903572 v 0 C 5.9842475,1.2012341 7.1068731,0.96556193 8.2385441,1.0040619 9.3273403,1.0410919 10.39572,1.3304401 11.352088,1.8533914 v 0 c 0.295457,0.1612913 0.404256,0.5320007 0.242957,0.8274666 v 0 c -0.161289,0.2951718 -0.531999,0.4039526 -0.827457,0.2426718 v 0 C 9.9783412,2.4915639 9.0972207,2.2515297 8.1971321,2.2205975 7.2632182,2.1888455 6.3368724,2.3827699 5.4948341,2.7893588 Z M 2.5137112,9.8348701 v 0 C 2.6207447,10.152781 2.448646,10.497814 2.1298705,10.604578 v 0 C 1.8110876,10.711313 1.46545,10.538352 1.3587098,10.218984 v 0 C 1.0965001,9.4273998 0.97574271,8.5949853 1.0040339,7.7614001 1.0416249,6.660363 1.3371211,5.5803118 1.8726225,4.6148951 v 0 C 2.0339165,4.3211847 2.4037447,4.2150309 2.6983292,4.3780667 v 0 c 0.2945887,0.163035 0.4013294,0.5337451 0.2382947,0.8274651 v 0 C 2.4953292,6.0035317 2.2517943,6.8933994 2.2205883,7.8028135 2.1973063,8.4934839 2.2955358,9.1789011 2.5137112,9.8348701 Z M 10.365685,2.1666659 Z M 3.7305373,12.014196 c -0.011411,0.335709 -0.2931184,0.599091 -0.6288254,0.587707 -0.3360008,-0.0117 -0.5990887,-0.293416 -0.5877102,-0.629119 0.01141,-0.335705 0.2934154,-0.599089 0.6291222,-0.587705 0.335706,0.01143 0.599089,0.293406 0.5874134,0.629117 z m 9.7443117,0.332209 c 0.01142,-0.335709 -0.252002,-0.617449 -0.587709,-0.629121 -0.335709,-0.01142 -0.61747,0.252 -0.629122,0.587703 -0.01142,0.335709 0.251999,0.61776 0.587705,0.629125 0.335708,0.0114 0.617742,-0.251998 0.629126,-0.587707 z M 4.1689193,3.2679776 C 4.1803293,2.9322709 3.9172133,2.6502358 3.5815036,2.638858 3.2455027,2.627448 2.9637448,2.8908589 2.9523714,3.2265648 2.940653,3.5622714 3.2040897,3.8440308 3.5397967,3.8556844 3.8757977,3.8670915 4.1575373,3.6036834 4.1689193,3.2679776 Z"
     fill-rule="evenodd"
     id="path8-4-6"
     style="isolation:isolate;fill:#00d4aa;fill-opacity:1;stroke-width:0.291672"
     sodipodi:nodetypes="sssssscsssssscssssssscsssssscsssssssssssssscssssssscsssssscscccccccsscscccsscccs" />
  <ellipse
     cx="12.688851"
     cy="3.5620704"
     id="circle4-20-6-84-9-6"
     style="fill:#00d4aa;fill-opacity:1;stroke-width:0.513259"
     rx="0.641666"
     ry="0.64147204" />
  <path
     d="m 4.4999998,8.0000014 c 0,1.929944 1.5700599,3.4999996 3.5000004,3.4999996 C 9.9299462,11.500001 11.5,9.9299454 11.5,8.0000014 11.5,6.0700636 9.9299462,4.5000009 8.0000002,4.5000009 c -1.9299405,0 -3.5000004,1.5700627 -3.5000004,3.5000005 z M 8.0000002,5.4032271 c 1.4317967,0 2.5967808,1.1649769 2.5967808,2.5967743 0,1.4317967 -1.1649841,2.5967776 -2.5967808,2.5967776 -1.4317974,0 -2.5967737,-1.1649809 -2.5967737,-2.5967776 0,-1.4317974 1.1649763,-2.5967743 2.5967737,-2.5967743 z"
     id="path1-1-4"
     style="fill:#00d4aa;fill-opacity:1;stroke-width:0.225803" />
</svg>
