<?xml version="1.0" encoding="UTF-8" standalone="no"?>
<svg
   viewBox="0 0 16 16"
   version="1.1"
   id="svg3"
   sodipodi:docname="folder-open-recent.svg"
   inkscape:version="1.3.2 (091e20ef0f, 2023-11-25)"
   xmlns:inkscape="http://www.inkscape.org/namespaces/inkscape"
   xmlns:sodipodi="http://sodipodi.sourceforge.net/DTD/sodipodi-0.dtd"
   xmlns:xlink="http://www.w3.org/1999/xlink"
   xmlns="http://www.w3.org/2000/svg"
   xmlns:svg="http://www.w3.org/2000/svg">
  <defs
     id="defs3">
    <linearGradient
       id="linearGradient6"
       inkscape:collect="always">
      <stop
         style="stop-color:#b380ff;stop-opacity:1"
         offset="0"
         id="stop5" />
      <stop
         style="stop-color:#00ccff;stop-opacity:1"
         offset="1"
         id="stop6" />
    </linearGradient>
    <linearGradient
       inkscape:collect="always"
       xlink:href="#linearGradient6"
       id="linearGradient4"
       x1="3.4698162"
       y1="2"
       x2="14"
       y2="14"
       gradientUnits="userSpaceOnUse" />
    <linearGradient
       inkscape:collect="always"
       xlink:href="#linearGradient6"
       id="linearGradient8"
       x1="8"
       y1="11"
       x2="14"
       y2="11"
       gradientUnits="userSpaceOnUse" />
    <linearGradient
       inkscape:collect="always"
       xlink:href="#linearGradient6"
       id="linearGradient2"
       x1="10"
       y1="10.5"
       x2="12"
       y2="10.5"
       gradientUnits="userSpaceOnUse" />
  </defs>
  <sodipodi:namedview
     id="namedview3"
     pagecolor="#ffffff"
     bordercolor="#999999"
     borderopacity="1"
     inkscape:showpageshadow="2"
     inkscape:pageopacity="0"
     inkscape:pagecheckerboard="0"
     inkscape:deskcolor="#d1d1d1"
     showgrid="true"
     inkscape:zoom="47.625"
     inkscape:cx="8"
     inkscape:cy="8"
     inkscape:window-width="1920"
     inkscape:window-height="994"
     inkscape:window-x="0"
     inkscape:window-y="0"
     inkscape:window-maximized="1"
     inkscape:current-layer="svg3">
    <inkscape:grid
       id="grid3"
       units="px"
       originx="0"
       originy="0"
       spacingx="1"
       spacingy="1"
       empcolor="#0099e5"
       empopacity="0.30196078"
       color="#0099e5"
       opacity="0.14902"
       empspacing="5"
       dotted="false"
       gridanglex="30"
       gridanglez="30"
       visible="true" />
  </sodipodi:namedview>
  <style
     type="text/css"
     id="current-color-scheme">.ColorScheme-Text { color: #fcfcfc; } </style>
  <g
     class="ColorScheme-Text"
     fill="currentColor"
     id="g3">
    <path
       d="m 11,8 c -1.662,0 -3,1.338 -3,3 0,1.662 1.338,3 3,3 1.662,0 3,-1.338 3,-3 0,-1.662 -1.338,-3 -3,-3 z m 0,1 c 1.104569,0 2,0.8954305 2,2 0,1.104569 -0.895431,2 -2,2 C 9.8954305,13 9,12.104569 9,11 9,9.8954305 9.8954305,9 11,9 Z"
       id="path1"
       sodipodi:nodetypes="ssssssssss"
       style="fill:url(#linearGradient8)" />
    <path
       d="m 2,3 v 10 c 0,0.53435 0.4719164,1 0.9816273,1 H 8 V 13 H 3 V 7 H 5 L 7,5 h 6.028 L 13,8 h 1 L 14,5 C 14,4.3642076 13.546484,4 12.976378,4 H 9.008 L 7.008,2 7,2.008 V 2 H 3 C 2.4267338,2 2,2.4512149 2,3 Z"
       id="path2"
       style="fill:url(#linearGradient4);fill-opacity:1"
       sodipodi:nodetypes="cccccccccccccccccccc" />
    <path
       d="m10 9v3h2v-1h-1v-2z"
       id="path3"
       style="fill:url(#linearGradient2);fill-opacity:1" />
  </g>
</svg>
