<?xml version="1.0" encoding="UTF-8" standalone="no"?>
<!-- Created with Inkscape (http://www.inkscape.org/) -->

<svg
   width="32"
   version="1.1"
   height="32"
   id="svg1"
   sodipodi:docname="help-about.svg"
   inkscape:version="1.3.2 (091e20ef0f, 2023-11-25)"
   xmlns:inkscape="http://www.inkscape.org/namespaces/inkscape"
   xmlns:sodipodi="http://sodipodi.sourceforge.net/DTD/sodipodi-0.dtd"
   xmlns:xlink="http://www.w3.org/1999/xlink"
   xmlns="http://www.w3.org/2000/svg"
   xmlns:svg="http://www.w3.org/2000/svg">
  <sodipodi:namedview
     id="namedview1"
     pagecolor="#ffffff"
     bordercolor="#999999"
     borderopacity="1"
     inkscape:showpageshadow="2"
     inkscape:pageopacity="0"
     inkscape:pagecheckerboard="0"
     inkscape:deskcolor="#d1d1d1"
     inkscape:zoom="5.953125"
     inkscape:cx="11.254593"
     inkscape:cy="2.519685"
     inkscape:window-width="1920"
     inkscape:window-height="994"
     inkscape:window-x="0"
     inkscape:window-y="0"
     inkscape:window-maximized="1"
     inkscape:current-layer="layer1" />
  <defs
     id="defs5455">
    <linearGradient
       id="linearGradient2"
       inkscape:collect="always">
      <stop
         style="stop-color:#c83771;stop-opacity:1"
         offset="0"
         id="stop2" />
      <stop
         style="stop-color:#00ccff;stop-opacity:1"
         offset="1"
         id="stop3" />
    </linearGradient>
    <linearGradient
       inkscape:collect="always"
       xlink:href="#linearGradient2"
       id="linearGradient3"
       x1="400.57144"
       y1="517.79797"
       x2="400.57144"
       y2="545.79797"
       gradientUnits="userSpaceOnUse" />
  </defs>
  <metadata
     id="metadata5458" />
  <g
     inkscape:label="Capa 1"
     inkscape:groupmode="layer"
     id="layer1"
     transform="matrix(1 0 0 1 -384.57143 -515.798)">
    <g
       id="g2"
       style="fill:url(#linearGradient3)">
      <path
         d="m 400.57143,517.798 a 14,14 0 0 0 -14,14 14,14 0 0 0 14,14 14,14 0 0 0 14,-14 14,14 0 0 0 -14,-14 z m 0,2.33333 a 11.666667,11.666667 0 0 1 11.66666,11.66667 11.666667,11.666667 0 0 1 -11.66666,11.66666 11.666667,11.666667 0 0 1 -11.66667,-11.66666 11.666667,11.666667 0 0 1 11.66667,-11.66667 z"
         id="path1"
         style="stroke-width:2.33333;fill:url(#linearGradient3)" />
      <path
         d="m 398.23809,522.46466 h 4.66667 v 4.66667 h -4.66667 z"
         id="path2"
         style="stroke-width:2.33333;fill:url(#linearGradient3)" />
      <path
         d="m 398.23809,529.46466 h 4.66667 v 11.66667 h -4.66667 z"
         id="path3"
         style="stroke-width:2.33333;fill:url(#linearGradient3)" />
    </g>
  </g>
</svg>
