<?xml version="1.0" encoding="UTF-8" standalone="no"?>
<svg
   viewBox="0 0 22 22"
   version="1.1"
   id="svg1"
   sodipodi:docname="system-search.svg"
   inkscape:version="1.3.2 (091e20ef0f, 2023-11-25)"
   width="22"
   height="22"
   xmlns:inkscape="http://www.inkscape.org/namespaces/inkscape"
   xmlns:sodipodi="http://sodipodi.sourceforge.net/DTD/sodipodi-0.dtd"
   xmlns="http://www.w3.org/2000/svg"
   xmlns:svg="http://www.w3.org/2000/svg">
  <sodipodi:namedview
     id="namedview1"
     pagecolor="#ffffff"
     bordercolor="#000000"
     borderopacity="0.25"
     inkscape:showpageshadow="2"
     inkscape:pageopacity="0.0"
     inkscape:pagecheckerboard="0"
     inkscape:deskcolor="#d1d1d1"
     inkscape:zoom="16.948466"
     inkscape:cx="4.838196"
     inkscape:cy="3.6876494"
     inkscape:window-width="1920"
     inkscape:window-height="994"
     inkscape:window-x="0"
     inkscape:window-y="0"
     inkscape:window-maximized="1"
     inkscape:current-layer="svg1" />
  <defs
     id="defs1">
    <style
       type="text/css"
       id="style1">.ColorScheme-Text {
        color:#d8dee9;
      }</style>
  </defs>
  <path
     d="M 13.257801,3.0002 C 10.08657,3.0005106 7.5164593,5.570485 7.5161494,8.7415019 7.5162745,10.139051 8.0165118,11.418968 8.8464229,12.41449 l -1.1778615,1.177803 c -0.005,0.0047 -0.0064,0.0103 -0.0095,0.01475 -0.581295,-0.274815 -1.2931051,-0.186816 -1.7726512,0.292649 L 3.457996,16.327011 c -0.6106613,0.610646 -0.6106613,1.603541 0,2.214159 0.6118104,0.611776 1.6024777,0.611776 2.2142698,0 l 2.4284285,-2.427275 c 0.480797,-0.480782 0.5685641,-1.192396 0.2921371,-1.773888 0.0049,-0.0039 0.00929,-0.0051 0.014197,-0.0097 l 1.1778924,-1.177783 c 0.9955722,0.829833 2.2755662,1.330014 3.6731882,1.330141 3.171237,-3.12e-4 5.741316,-2.570284 5.741622,-5.7412517 C 18.999447,5.5702882 16.429366,3.000306 13.258147,3 Z m 0,9.394824 c -2.01625,-8.86e-4 -3.6528073,-1.637416 -3.653781,-3.6534888 0.0014,-2.0161334 1.637499,-3.6526781 3.653781,-3.6535889 2.016242,0.0016 3.652803,1.6374202 3.653771,3.6535889 -0.0013,2.0160728 -1.637529,3.6525508 -3.653771,3.6534888 z"
     id="path2-3-6"
     style="fill:#058bce;fill-opacity:1;stroke-width:0.0312511" />
</svg>
