<?xml version="1.0" encoding="UTF-8" standalone="no"?>
<svg
   viewBox="0 0 22 22"
   version="1.1"
   id="svg1"
   sodipodi:docname="system-suspend-hibernate.svg"
   inkscape:version="1.3.2 (091e20ef0f, 2023-11-25)"
   xmlns:inkscape="http://www.inkscape.org/namespaces/inkscape"
   xmlns:sodipodi="http://sodipodi.sourceforge.net/DTD/sodipodi-0.dtd"
   xmlns="http://www.w3.org/2000/svg"
   xmlns:svg="http://www.w3.org/2000/svg">
  <sodipodi:namedview
     id="namedview1"
     pagecolor="#ffffff"
     bordercolor="#000000"
     borderopacity="0.25"
     inkscape:showpageshadow="2"
     inkscape:pageopacity="0.0"
     inkscape:pagecheckerboard="0"
     inkscape:deskcolor="#d1d1d1"
     inkscape:zoom="12.326157"
     inkscape:cx="11.763602"
     inkscape:cy="3.8535936"
     inkscape:window-width="1920"
     inkscape:window-height="994"
     inkscape:window-x="0"
     inkscape:window-y="0"
     inkscape:window-maximized="1"
     inkscape:current-layer="svg1" />
  <defs
     id="defs1">
    <style
       type="text/css"
       id="style1">.ColorScheme-Text {
        color:#d8dee9;
      }</style>
  </defs>
  <path
     d="m 8.2822804,6.1011459 -0.558143,0.322397 1.060792,1.840786 -1.449053,-0.388261 -0.169882,0.623989 2.076507,0.554671 1.0122416,1.7541621 H 8.2302564 l -1.518373,-1.5183641 -0.457602,0.4575991 1.060797,1.06078 h -2.125043 v 0.644805 h 2.125043 l -1.060797,1.064256 0.457602,0.454123 1.518373,-1.518367 h 2.0210226 l -1.0122466,1.750713 -2.073038,0.558141 0.166401,0.623989 1.452524,-0.391732 -1.064248,1.840777 0.558129,0.322399 1.064251,-1.840784 0.3882762,1.452519 0.6240064,-0.1664 -0.5581404,-2.076499 1.1994964,-2.073026 h 0.0035 l 1.199496,2.080042 -0.558133,2.07304 0.624,0.166402 0.388259,-1.449062 1.064254,1.837319 0.558137,-0.3224 -1.060795,-1.840789 1.44906,0.388271 0.169868,-0.620521 -2.076493,-0.558156 -1.012248,-1.754153 h 2.024529 l 1.518364,1.518371 0.457598,-0.454148 -1.060789,-1.064242 h 2.125035 V 10.80899 H 14.685406 L 15.7462,9.748205 15.71496,9.710015 h -0.842536 l -1.102431,1.098943 h -2.02439 l 0.637862,-1.098943 h -0.738389 l -0.644796,1.098943 -0.0034,-0.0033 L 9.8011156,8.7331464 10.35925,6.6601074 9.7352546,6.4902424 9.3469884,7.9427574 Z m 6.9160276,1.185563 h 0.970717 l -0.02083,0.48534 h -1.920569 l 0.970714,-1.452519 h -0.97071 v -0.481859 h 1.941341 z m -2.58617,1.293042 h 0.97071 l -0.02083,0.481873 h -1.917105 l 0.967168,-1.449052 h -0.967167 v -0.485348 h 1.937875 z"
     id="path1-0"
     style="fill:#5599ff;fill-opacity:1;stroke-width:0.887466" />
  <path
     d="m 5.3391244,5.3499849 c -3.144334,3.146332 -3.118611,8.2818961 0.07709,11.3956561 2.976727,2.900326 7.7736036,3.018887 10.8802976,0.258411 2.722106,-2.418731 3.444524,-6.272291 1.913099,-9.4543581 -0.183809,-0.38191 -0.664993,-0.513042 -1.027101,-0.293074 -0.324662,0.197251 -0.434384,0.607128 -0.271169,0.950305 1.261819,2.6531561 0.614364,5.8692091 -1.722709,7.8316421 -2.370542,1.990529 -5.8876786,2.02403 -8.2936976,0.07652 -3.068587,-2.483699 -3.244415,-7.0174481 -0.527476,-9.7361041 1.98005,-1.981312 4.9533916,-2.470272 7.4334006,-1.286965 0.340932,0.162657 0.748334,0.05073 0.944337,-0.272317 l 0.0018,-0.0018 c 0.218549,-0.36115 0.08947,-0.841644 -0.290836,-1.025181 -3.037807,-1.465479 -6.6887766,-0.872312 -9.1172386,1.557674 z"
     id="path1-0-9-2-6"
     style="fill:#5599ff;fill-opacity:1;stroke-width:0.290959" />
</svg>
