<?xml version="1.0" encoding="UTF-8" standalone="no"?>
<svg
   viewBox="0 0 22 22"
   version="1.1"
   id="svg1"
   sodipodi:docname="system-lock-screen.svg"
   inkscape:version="1.3.2 (091e20ef0f, 2023-11-25)"
   xmlns:inkscape="http://www.inkscape.org/namespaces/inkscape"
   xmlns:sodipodi="http://sodipodi.sourceforge.net/DTD/sodipodi-0.dtd"
   xmlns="http://www.w3.org/2000/svg"
   xmlns:svg="http://www.w3.org/2000/svg">
  <sodipodi:namedview
     id="namedview1"
     pagecolor="#ffffff"
     bordercolor="#000000"
     borderopacity="0.25"
     inkscape:showpageshadow="2"
     inkscape:pageopacity="0.0"
     inkscape:pagecheckerboard="0"
     inkscape:deskcolor="#d1d1d1"
     inkscape:zoom="17.431818"
     inkscape:cx="12.391134"
     inkscape:cy="12.649283"
     inkscape:window-width="1920"
     inkscape:window-height="994"
     inkscape:window-x="0"
     inkscape:window-y="0"
     inkscape:window-maximized="1"
     inkscape:current-layer="svg1" />
  <defs
     id="defs1">
    <style
       type="text/css"
       id="style1">.ColorScheme-Text {
        color:#d8dee9;
      }</style>
  </defs>
  <path
     class="fil0"
     d="m 7.401672,10.96663 c 0.760486,-0.732035 1.9187405,-0.85446 2.823426,-0.307438 l 3.949636,-3.8018965 c 0.564227,-0.5430791 1.390737,0.3154642 0.8265,0.8586705 L 14.755913,7.9520455 15.299032,8.516309 C 15.724096,8.9578764 15.037201,9.6190758 14.612134,9.1775 l -0.543109,-0.5641754 -0.22079,0.2124798 0.543129,0.5642071 c 0.448667,0.4661198 -0.23822,1.1273605 -0.686899,0.6612075 L 13.161336,9.4870354 11.051601,11.517839 c 0.53669,0.901208 0.369321,2.102194 -0.39117,2.834193 -0.932203,0.897328 -2.4247286,0.8689 -3.3220709,-0.06321 -0.8973435,-0.932248 -0.8688956,-2.4248 0.063279,-3.322127 z m 0.8265019,0.858599 c -0.4661025,0.448717 -0.4798711,1.170887 -0.0312,1.636957 0.4486638,0.466173 1.1708625,0.479888 1.6369659,0.03109 0.4661032,-0.448734 0.4798632,-1.170839 0.0312,-1.636982 -0.4486715,-0.466173 -1.1708622,-0.479875 -1.6369734,-0.03108 z"
     id="path1-4-2"
     style="fill:#37c8ab;fill-opacity:1;fill-rule:nonzero;stroke:#37c8ab;stroke-width:0.0340516;stroke-opacity:1;image-rendering:optimizeQuality;shape-rendering:geometricPrecision;text-rendering:geometricPrecision" />
  <path
     d="m 5.3389869,5.3506821 c -3.1441709,3.1462029 -3.118443,8.2815019 0.0772,11.3950959 2.9765627,2.900184 7.7731921,3.018684 10.8797341,0.258359 2.721965,-2.4186 3.444361,-6.271948 1.913,-9.4538582 -0.183785,-0.3818711 -0.664953,-0.5129676 -1.027032,-0.2930713 -0.32464,0.1972155 -0.43436,0.6071348 -0.27116,0.9502616 1.261757,2.6530209 0.61434,5.8689149 -1.722632,7.8312899 C 12.817682,18.0292 9.3007246,18.062686 6.8948244,16.115129 3.8263896,13.631559 3.650566,9.0980843 6.3673774,6.3795365 8.3473256,4.3982921 11.320519,3.9093965 13.8004,5.0926186 c 0.340904,0.1626482 0.748294,0.051116 0.944294,-0.2723035 l 0.002,-0.00239 C 14.965476,4.4567241 14.8365,3.9762606 14.456114,3.7927162 11.418465,2.3272471 7.7676702,2.9204223 5.3393303,5.3502823 Z"
     id="path1-0-9-9-7"
     style="fill:#37c8ab;fill-opacity:1;stroke-width:0.290961" />
</svg>
