<?xml version="1.0" encoding="UTF-8" standalone="no"?>
<svg
   viewBox="0 0 22 22"
   version="1.1"
   id="svg1"
   sodipodi:docname="system-reboot.svg"
   inkscape:version="1.3.2 (091e20ef0f, 2023-11-25)"
   width="100%"
   height="100%"
   xmlns:inkscape="http://www.inkscape.org/namespaces/inkscape"
   xmlns:sodipodi="http://sodipodi.sourceforge.net/DTD/sodipodi-0.dtd"
   xmlns="http://www.w3.org/2000/svg"
   xmlns:svg="http://www.w3.org/2000/svg">
  <sodipodi:namedview
     id="namedview1"
     pagecolor="#ffffff"
     bordercolor="#000000"
     borderopacity="0.25"
     inkscape:showpageshadow="2"
     inkscape:pageopacity="0.0"
     inkscape:pagecheckerboard="0"
     inkscape:deskcolor="#d1d1d1"
     inkscape:zoom="12.326157"
     inkscape:cx="6.5713912"
     inkscape:cy="7.0175968"
     inkscape:window-width="1920"
     inkscape:window-height="994"
     inkscape:window-x="0"
     inkscape:window-y="0"
     inkscape:window-maximized="1"
     inkscape:current-layer="svg1"
     showgrid="true">
    <inkscape:grid
       id="grid1"
       units="px"
       originx="0"
       originy="0"
       spacingx="1"
       spacingy="1"
       empcolor="#0099e5"
       empopacity="0.30196078"
       color="#0099e5"
       opacity="0.14901961"
       empspacing="5"
       dotted="false"
       gridanglex="30"
       gridanglez="30"
       visible="true" />
  </sodipodi:namedview>
  <defs
     id="defs1">
    <style
       type="text/css"
       id="style1">.ColorScheme-Text {
        color:#d8dee9;
      }
      .ColorScheme-Highlight {
        color:#88c0d0;
      }</style>
  </defs>
  <path
     d="m 14.295318,16.690529 v 0 c 0.333004,-0.190335 0.759669,-0.07499 0.952002,0.256995 v 0 c 0.192336,0.332001 0.07801,0.758009 -0.255333,0.95001 v 0 C 13.696318,18.64353 12.218641,19.01087 10.727305,18.959866 9.3749678,18.913886 8.0552962,18.524198 6.8922916,17.830201 v 0 C 6.5629566,17.632863 6.4559561,17.204862 6.6532904,16.875524 v 0 c 0.1976679,-0.329325 0.6253363,-0.436331 0.9550043,-0.238999 v 0 c 0.9583369,0.575671 2.0470079,0.894673 3.1663453,0.933008 1.23434,0.04202 2.452004,-0.261004 3.520678,-0.879004 z m 2.620679,-8.6740328 v 0 C 16.743325,7.6724936 16.88233,7.2538258 17.226326,7.0821592 v 0 c 0.344001,-0.1716679 0.761675,-0.032 0.932673,0.312 v 0 c 0.596,1.1896715 0.881675,2.5116758 0.836337,3.8430138 -0.03466,1.015001 -0.260001,2.013009 -0.667669,2.939008 v 0 c -0.153997,0.352001 -0.565004,0.512669 -0.917006,0.358339 v 0 c -0.352,-0.154002 -0.512663,-0.565005 -0.35833,-0.917005 v 0 c 0.339332,-0.764671 0.524001,-1.590006 0.552337,-2.427674 0.03765,-1.098672 -0.200001,-2.1890079 -0.688671,-3.1733448 z M 8.1369635,5.0094847 v 0 C 7.7912952,5.1744851 7.3752934,5.0278208 7.2082931,4.68215 v 0 C 7.0416247,4.336482 7.186629,3.920147 7.5322945,3.7534801 v 0 C 8.6962984,3.1944777 9.979304,2.9251433 11.272643,2.9691434 c 1.244339,0.042338 2.465342,0.3730018 3.558342,0.9706714 v 0 c 0.337673,0.1843337 0.462008,0.6080015 0.277673,0.9456684 v 0 c -0.184336,0.3373357 -0.608002,0.4616691 -0.945675,0.2773349 v 0 C 13.260985,4.6691487 12.25398,4.3948155 11.225312,4.3594806 10.157971,4.3231445 9.0993001,4.5448155 8.1369635,5.0094847 Z m -3.407013,8.0520283 v 0 c 0.1223332,0.363333 -0.074335,0.757671 -0.4386678,0.879669 v 0 c -0.364335,0.122003 -0.7593363,-0.07565 -0.8813373,-0.440668 v 0 C 3.1102778,12.59584 2.9722767,11.644508 3.0046108,10.69184 3.0476108,9.4335 3.3852784,8.1991624 3.9972818,7.0958258 v 0 C 4.1816153,6.7601583 4.6042832,6.6388236 4.9409514,6.8251579 v 0 c 0.3366683,0.1863342 0.4586683,0.610003 0.2723344,0.9456703 v 0 C 4.7089506,8.6828305 4.4306157,9.6998343 4.394949,10.739172 4.368286,11.528504 4.480616,12.31184 4.7299505,13.061513 Z M 13.703671,4.2978323 Z M 6.1206215,15.552188 c -0.013002,0.383665 -0.3350005,0.684671 -0.7186685,0.671666 -0.3840018,-0.01334 -0.6846689,-0.335333 -0.6716692,-0.719 0.013002,-0.383667 0.335335,-0.684669 0.719003,-0.671668 0.3836666,0.01301 0.6846688,0.335332 0.6713347,0.719002 z m 11.1363795,0.379665 c 0.01302,-0.383665 -0.288001,-0.705661 -0.671674,-0.719 -0.383666,-0.01301 -0.70567,0.288001 -0.719005,0.671668 -0.01302,0.38367 0.288002,0.706006 0.671674,0.719002 0.383668,0.01301 0.706002,-0.288 0.719005,-0.67167 z M 6.6216236,5.5564869 C 6.6346226,5.1728189 6.3339561,4.8504844 5.9502881,4.8374841 c -0.3840017,-0.013 -0.7060026,0.2880001 -0.7190023,0.6716682 -0.013336,0.3836679 0.2876675,0.7056698 0.6713348,0.7190039 0.3840019,0.013 0.7060026,-0.2880019 0.719003,-0.6716693 z"
     fill-rule="evenodd"
     id="path8-4-9"
     style="isolation:isolate;fill:#00ccff;fill-opacity:1;stroke-width:0.333336"
     sodipodi:nodetypes="sssssscsssssscssssssscsssssscsssssssssssssscssssssscsssssscscccccccsscscccsscccs" />
  <path
     d="m 7.0000096,10.964519 c 0,2.205659 1.794362,4.000008 4.0000124,4.000008 2.205657,0 4.000012,-1.794349 4.000012,-4.000008 0,-2.2056463 -1.794355,-4.0000078 -4.000012,-4.0000078 -2.2056499,0 -4.0000124,1.7943615 -4.0000124,4.0000078 z M 11.000022,7.9967756 c 1.636348,0 2.967746,1.3314015 2.967746,2.9677434 0,1.636345 -1.331398,2.967758 -2.967746,2.967758 -1.6363437,0 -2.967749,-1.331412 -2.967749,-2.967758 0,-1.6363435 1.3314053,-2.9677451 2.967749,-2.9677434 z"
     id="path1-1-9-2"
     style="fill:#00ccff;stroke-width:0.258066" />
  <path
     d="m 15.395291,5.4650168 c -0.03052,0.048102 -0.079,0.082006 -0.134592,0.094274 L 13.033854,5.8740386 C 12.81894,5.8913192 12.413911,5.6545685 12.651582,5.2814781 l 0.733602,-1.1507298 0.636975,-0.9991674 c 0.08899,-0.1395015 0.22916,-0.427355 0.431591,-0.4725976 v 0 c 0.202663,-0.044913 0.403316,0.082969 0.448143,0.2856426 l 0.522046,2.3586298 c 0.01234,0.055568 0.0018,0.1138042 -0.02864,0.1617882 z"
     id="path4-3-75-3-6-2-6"
     style="color:#d6dbf1;fill:#00ccff;fill-opacity:1;stroke-width:0.107372"
     sodipodi:nodetypes="ccccccssccc" />
</svg>
