<?xml version="1.0" encoding="UTF-8" standalone="no"?>
<svg
   viewBox="0 0 22 22"
   version="1.1"
   id="svg1"
   sodipodi:docname="system-log-out.svg"
   inkscape:version="1.3.2 (091e20ef0f, 2023-11-25)"
   width="100%"
   height="100%"
   xmlns:inkscape="http://www.inkscape.org/namespaces/inkscape"
   xmlns:sodipodi="http://sodipodi.sourceforge.net/DTD/sodipodi-0.dtd"
   xmlns="http://www.w3.org/2000/svg"
   xmlns:svg="http://www.w3.org/2000/svg">
  <sodipodi:namedview
     id="namedview1"
     pagecolor="#ffffff"
     bordercolor="#000000"
     borderopacity="0.25"
     inkscape:showpageshadow="2"
     inkscape:pageopacity="0.0"
     inkscape:pagecheckerboard="0"
     inkscape:deskcolor="#d1d1d1"
     inkscape:zoom="12.326157"
     inkscape:cx="11.520217"
     inkscape:cy="15.37381"
     inkscape:window-width="1920"
     inkscape:window-height="994"
     inkscape:window-x="0"
     inkscape:window-y="0"
     inkscape:window-maximized="1"
     inkscape:current-layer="svg1" />
  <defs
     id="defs1">
    <style
       type="text/css"
       id="style1">.ColorScheme-Text {
        color:#d8dee9;
      }</style>
  </defs>
  <path
     d="m 14.435575,7.7973482 c -1.25e-4,0.012131 -8e-4,0.02424 -0.0039,0.036209 L 13.755409,12.18154 c -0.02939,0.1925 -0.268168,0.269466 -0.406577,0.131019 L 12.503589,11.476311 9.7986645,14.15228 c -0.2801755,0.276967 -0.7343428,0.276967 -1.0145268,0 L 7.7700471,13.148584 c -0.2800955,-0.277051 -0.2800955,-0.726159 0,-1.003225 L 10.476063,9.4696395 9.6303734,8.6336229 C 9.4903416,8.4966797 9.5683735,8.2604232 9.7631162,8.2315752 L 14.16011,7.5627651 c 0.14483,-0.022021 0.275457,0.08876 0.27551,0.2336572 z m -0.526163,0.2828511 z"
     id="path8-2"
     style="fill:#b380ff;fill-opacity:1;stroke-width:0.237833"
     sodipodi:nodetypes="ccccccccccccccccccc" />
  <path
     d="M 5.3390511,5.3503235 C 2.1947968,8.4965698 2.2205198,13.632009 5.4162521,16.74568 c 2.976636,2.900279 7.7733989,3.018824 10.8800059,0.258423 2.722041,-2.418673 3.444458,-6.272151 1.913061,-9.4541379 -0.1838,-0.3818955 -0.664958,-0.5130134 -1.027054,-0.2930565 -0.324648,0.1972365 -0.434384,0.6071115 -0.271179,0.9502826 1.261785,2.6530718 0.614358,5.8690558 -1.722675,7.8314478 -2.370466,1.990484 -5.8875243,2.023967 -8.2934896,0.07659 C 3.8263967,13.631564 3.650573,9.0979284 6.367458,6.3793382 8.3474547,4.3980727 11.320725,3.9091294 13.800679,5.092407 c 0.340901,0.16265 0.748309,0.050756 0.944318,-0.2723071 l 0.002,-0.00219 C 14.96573,4.4567159 14.83676,3.9762291 14.45636,3.7927066 11.418639,2.3272631 7.7677436,2.9203944 5.3393391,5.350332 Z"
     id="path1-0-9-9-6-1"
     style="fill:#b380ff;fill-opacity:1;stroke-width:0.290958" />
</svg>
